<!-- SPDX-FileCopyrightText: Copyright © SixtyFPS GmbH <info@slint-ui.com>
SPDX-License-Identifier: GPL-3.0-only OR LicenseRef-Slint-commercial -->

<svg width="70" height="30" viewBox="0 0 70 30" fill="none" xmlns="http://www.w3.org/2000/svg">
<path fill-rule="evenodd" clip-rule="evenodd" d="M18.6249 28.6845H3.42381C2.11204 28.6845 1.04865 27.6185 1.04865 26.3035V3.68449C1.04865 2.36952 2.11204 1.30353 3.42381 1.30353H18.6249C19.9366 1.30353 21 2.36952 21 3.68449V26.3035C21 27.6185 19.9366 28.6845 18.6249 28.6845ZM15.169 4.74517L3.75278 12.6702C3.75278 12.6702 3.23737 12.9666 3.23737 13.4333C3.23737 14.0571 3.88817 14.2595 3.88817 14.2595L10.1693 16.7499C10.3938 16.838 10.7025 16.5904 10.4128 16.2797L8.3333 14.188C8.3333 14.188 7.7502 13.6202 7.7502 13.2464C7.7502 12.8726 8.10646 12.5416 8.10646 12.5416L15.6761 5.22375C15.9469 4.96304 15.5835 4.49159 15.169 4.74517ZM5.94744 24.8381L17.3637 16.9131C17.3637 16.9131 17.8791 16.6167 17.8791 16.15C17.8791 15.5262 17.2283 15.3238 17.2283 15.3238L10.9472 12.8333C10.7227 12.7452 10.4139 12.9928 10.7037 13.3095L12.7832 15.4012C12.7832 15.4012 13.3663 15.969 13.3663 16.3428C13.3663 16.7167 13.01 17.0476 13.01 17.0476L5.43915 24.3595C5.16957 24.619 5.53296 25.0917 5.94744 24.8381Z" fill="white"/>
<path d="M33.6916 15.8119C33.0503 15.3302 32.1522 15.0127 30.9971 14.8595L28.8666 14.5869C28.295 14.5163 27.856 14.3873 27.5495 14.2C27.4039 14.1169 27.2839 13.9952 27.2028 13.8481C27.1217 13.7011 27.0827 13.5345 27.09 13.3666C27.09 12.5159 27.8979 12.0901 29.5138 12.0893C30.4317 12.0763 31.3444 12.2287 32.2084 12.5393C32.4739 12.6322 32.7293 12.7518 32.971 12.8964C33.1003 12.9725 33.2229 13.0602 33.3368 13.1583C33.4045 13.1277 33.4677 13.0876 33.5242 13.0393C33.6135 12.9708 33.6935 12.8907 33.7619 12.8012C33.8432 12.6971 33.9132 12.5845 33.971 12.4655C34.0364 12.3286 34.069 12.1781 34.0658 12.0262C34.0658 11.5095 33.6652 11.0909 32.8639 10.7702C32.0628 10.4496 30.9381 10.2909 29.4901 10.294C28.7472 10.2789 28.0058 10.367 27.2871 10.5559C26.7523 10.695 26.2511 10.9408 25.8133 11.2785C25.4579 11.5595 25.1752 11.9221 24.9891 12.3357C24.8145 12.7349 24.7254 13.1664 24.7279 13.6024C24.7153 14.0617 24.8117 14.5175 25.0093 14.9321C25.1947 15.2997 25.4631 15.6189 25.7931 15.8643C26.1565 16.1299 26.5626 16.3312 26.9938 16.4595C27.4939 16.6132 28.0084 16.7149 28.5293 16.7631L30.1646 16.9536C30.9167 17.0369 31.4389 17.1797 31.731 17.3821C31.8744 17.4802 31.9901 17.6137 32.0671 17.7697C32.1441 17.9256 32.1796 18.0988 32.1704 18.2726C32.1704 18.7337 31.9404 19.0583 31.4804 19.2464C31.0205 19.4345 30.4267 19.5285 29.6991 19.5285C29.182 19.5337 28.6654 19.4939 28.1552 19.4095C27.7275 19.3361 27.305 19.2347 26.8904 19.1059C26.5752 19.0068 26.2653 18.8916 25.9618 18.7607C25.7797 18.6859 25.6048 18.5947 25.4392 18.4881L24.5402 20.1C24.7112 20.2219 24.8933 20.3271 25.0841 20.4143C25.4385 20.5842 25.8049 20.7279 26.1803 20.844C26.7042 21.0077 27.2381 21.1369 27.7788 21.2309C28.4548 21.3482 29.1401 21.4044 29.8262 21.3988C31.3858 21.3988 32.5797 21.0845 33.4081 20.4559C33.8042 20.1708 34.1248 19.7927 34.3416 19.3545C34.5584 18.9164 34.6648 18.4317 34.6513 17.9428C34.6519 17.004 34.3323 16.2936 33.6916 15.8119Z" fill="white"/>
<path d="M38.542 5.66539C38.1381 5.66539 37.8294 5.75707 37.6026 5.93804C37.3755 6.11897 37.2675 6.39875 37.2675 6.77136V21.0999H39.6497V5.89636C39.5797 5.86897 39.441 5.82255 39.232 5.76065C39.0078 5.69526 38.7752 5.66317 38.542 5.66539Z" fill="white"/>
<path d="M44.0403 5.87491C43.8503 5.87265 43.662 5.90852 43.4862 5.98036C43.31 6.0522 43.1503 6.15855 43.0158 6.29323C42.8816 6.42788 42.7755 6.58807 42.7039 6.76442C42.6323 6.94078 42.5965 7.12971 42.5987 7.32013C42.6 7.5572 42.6597 7.79026 42.772 7.99878C42.8845 8.20733 43.0465 8.38494 43.2436 8.51597C43.4403 8.64701 43.6668 8.72742 43.902 8.75017C44.1374 8.77291 44.3749 8.73723 44.5932 8.64633C44.8116 8.55542 45.0042 8.41207 45.1545 8.22888C45.3045 8.04571 45.4074 7.82833 45.4539 7.59591C45.5003 7.36349 45.4891 7.12317 45.4213 6.8961C45.3533 6.66907 45.2307 6.46226 45.0642 6.29394C44.931 6.15788 44.7713 6.05049 44.5955 5.97842C44.4194 5.90639 44.2303 5.87113 44.0403 5.87491Z" fill="white"/>
<path d="M44.1235 10.5868C43.7196 10.5868 43.4109 10.6749 43.1842 10.8487C42.9571 11.0225 42.849 11.3059 42.849 11.6964V21.1011H45.2316V10.8178C45.1613 10.7892 45.0225 10.744 44.8135 10.6809C44.589 10.6165 44.3567 10.5848 44.1235 10.5868Z" fill="white"/>
<path d="M57.0742 11.4774C56.599 11.0799 56.0506 10.7802 55.46 10.5953C54.7977 10.3874 54.1068 10.2849 53.4126 10.2917C52.72 10.2839 52.0306 10.3864 51.37 10.5953C50.7806 10.7806 50.2335 11.0803 49.7597 11.4774C49.3055 11.861 48.9406 12.3397 48.6909 12.8798C48.4251 13.4684 48.2929 14.1088 48.3039 14.7548V21.1H50.6861V15.3572C50.6861 14.4048 50.9119 13.6822 51.3642 13.1893C51.8161 12.6964 52.4951 12.4488 53.4009 12.4464C54.2932 12.4464 54.9687 12.6941 55.428 13.1893C55.8874 13.6845 56.1168 14.4072 56.1168 15.3572V21.0953H58.498V14.75C58.509 14.1052 58.3809 13.4656 58.1226 12.875C57.8809 12.3369 57.5226 11.8595 57.0742 11.4774Z" fill="white"/>
<path d="M67.2574 18.7333C67.0229 18.8844 66.77 19.0044 66.5045 19.0905C66.1423 19.218 65.7606 19.2817 65.3765 19.2786C65.1342 19.2797 64.8926 19.2517 64.6568 19.1952C64.4355 19.1436 64.2284 19.0436 64.05 18.9024C63.8697 18.7543 63.7297 18.5631 63.6426 18.3464C63.5358 18.0626 63.4861 17.7603 63.4965 17.4571V12.7857H67.5081C67.5719 12.6463 67.6274 12.5032 67.6745 12.3571C67.7458 12.1444 67.7813 11.921 67.779 11.6964C67.779 11.3393 67.6852 11.0583 67.4974 10.8702C67.3097 10.6821 66.9855 10.5869 66.5261 10.5869H63.4965V7.84881C63.4265 7.82143 63.2839 7.77501 63.069 7.71311C62.841 7.64817 62.6052 7.61611 62.3684 7.61788C62.0413 7.59959 61.7177 7.69182 61.449 7.87978C61.2274 8.05436 61.1161 8.3373 61.1155 8.72859V17.9417C61.1155 18.9734 61.429 19.8068 62.0558 20.4417C62.6829 21.0766 63.609 21.3941 64.8339 21.3941C65.2326 21.3954 65.6306 21.3555 66.0213 21.275C66.3552 21.2057 66.6835 21.1114 67.0035 20.9929C67.261 20.8972 67.509 20.7776 67.7445 20.6357C67.9464 20.5095 68.1048 20.4048 68.2194 20.3214L67.2574 18.7333Z" fill="white"/>
</svg>
