<svg width="12" height="7" viewBox="0 0 12 7" fill="none" xmlns="http://www.w3.org/2000/svg">
<path d="M0 0.5C0 0.364583 0.0494792 0.247396 0.148438 0.148438C0.247396 0.0494792 0.364583 0 0.5 0C0.635417 0 0.752604 0.0494792 0.851562 0.148438L6 5.28906L11.1484 0.148438C11.2474 0.0494792 11.3646 0 11.5 0C11.6354 0 11.7526 0.0494792 11.8516 0.148438C11.9505 0.247396 12 0.364583 12 0.5C12 0.635417 11.9505 0.752604 11.8516 0.851562L6.35156 6.35156C6.2526 6.45052 6.13542 6.5 6 6.5C5.86458 6.5 5.7474 6.45052 5.64844 6.35156L0.148438 0.851562C0.0494792 0.752604 0 0.635417 0 0.5Z" fill="white" fill-opacity="0.786" />
</svg>
