<svg width="8" height="6" viewBox="0 0 8 6" fill="none" xmlns="http://www.w3.org/2000/svg">
<path d="M0.992188 6C0.854167 6 0.72526 5.97396 0.605469 5.92188C0.485677 5.86719 0.380208 5.79557 0.289062 5.70703C0.200521 5.61589 0.130208 5.51042 0.078125 5.39062C0.0260417 5.26823 0 5.13802 0 5C0 4.89062 0.0143229 4.79036 0.0429688 4.69922C0.0742188 4.60807 0.119792 4.51823 0.179688 4.42969L2.78125 0.644531C2.84896 0.545573 2.92839 0.458333 3.01953 0.382812C3.11068 0.307292 3.20833 0.244792 3.3125 0.195312C3.41927 0.143229 3.53125 0.104167 3.64844 0.078125C3.76562 0.0520833 3.88281 0.0390625 4 0.0390625C4.11719 0.0390625 4.23438 0.0520833 4.35156 0.078125C4.46875 0.104167 4.57943 0.143229 4.68359 0.195312C4.79036 0.244792 4.88932 0.307292 4.98047 0.382812C5.07161 0.458333 5.15104 0.545573 5.21875 0.644531L7.82031 4.42969C7.88021 4.51823 7.92448 4.60807 7.95312 4.69922C7.98438 4.79036 8 4.89062 8 5C8 5.13802 7.97396 5.26823 7.92188 5.39062C7.86979 5.51042 7.79948 5.61589 7.71094 5.70703C7.6224 5.79557 7.51693 5.86719 7.39453 5.92188C7.27474 5.97396 7.14714 6 7.01172 6H0.992188Z" fill="white" fill-opacity="0.5442" />
</svg>
