<?xml version="1.0" encoding="UTF-8" standalone="no"?>
<!DOCTYPE svg PUBLIC "-//W3C//DTD SVG 1.1//EN" "http://www.w3.org/Graphics/SVG/1.1/DTD/svg11.dtd">
<svg width="100%" height="100%" viewBox="0 0 3172 635" version="1.1" xmlns="http://www.w3.org/2000/svg" xmlns:xlink="http://www.w3.org/1999/xlink" xml:space="preserve" xmlns:serif="http://www.serif.com/" style="fill-rule:evenodd;clip-rule:evenodd;stroke-linejoin:round;stroke-miterlimit:1.41421;">
    <g id="Logo-Vermillion-87-Saturation" serif:id="Logo Vermillion 87 Saturation" transform="matrix(1,0,0,1,-387.622,-203.331)">
        <path id="segmented-line" serif:id="segmented line" d="M674.5,574.796L743.796,505.5L1044.3,806L905.704,806L674.5,574.796ZM605.204,505.5L427.342,327.639C408.219,308.516 408.219,277.465 427.342,258.342C446.465,239.219 477.516,239.219 496.639,258.342L674.5,436.204L605.204,505.5Z" style="fill:rgb(167,43,12);"/>
        <g id="whole-line" serif:id="whole line" transform="matrix(0.699964,0.699964,-1.22244,1.22244,1092.04,-519.105)">
            <path d="M511,331.651L412,388.339L412,779.656C412,795.3 434.18,808 461.5,808C488.82,808 511,795.3 511,779.656L511,331.651Z" style="fill:rgb(240,78,38);"/>
        </g>
        <g id="vertical" transform="matrix(0.989899,0,0,1,5.16162,-2)">
            <path d="M511,295C511,267.956 488.82,246 461.5,246C434.18,246 412,267.956 412,295L412,759C412,786.044 434.18,808 461.5,808C488.82,808 511,786.044 511,759L511,295Z" style="fill:rgb(240,78,38);"/>
        </g>
    </g>
    <g transform="matrix(1.02897,0,0,1.02897,30.2111,266.834)">
        <path d="M1080.69,-95.336L1080.69,-210.913L761.725,-210.913L761.725,314.437L881.805,314.437L881.805,121.558L1076.93,121.558L1076.93,5.981L881.805,5.981L881.805,-95.336L1080.69,-95.336Z" style="fill:rgb(34,38,46);fill-rule:nonzero;"/>
        <g transform="matrix(1,0,0,1,5.8311,0)">
            <path d="M1272.07,198.86L1272.07,105.798L1459.69,105.798L1459.69,-8.278L1272.07,-8.278L1272.07,-95.336L1478.45,-95.336L1478.45,-210.913L1151.99,-210.913L1151.99,314.437L1482.2,314.437L1482.2,198.86L1272.07,198.86Z" style="fill:rgb(34,38,46);fill-rule:nonzero;"/>
        </g>
        <g transform="matrix(1,0,0,1,9.71849,0)">
            <path d="M1669.83,198.86L1669.83,-210.913L1549.75,-210.913L1549.75,314.437L1857.45,314.437L1857.45,198.86L1669.83,198.86Z" style="fill:rgb(34,38,46);fill-rule:nonzero;"/>
        </g>
        <path d="M2430.09,21.742L2166.66,21.742L2166.66,126.812L2307,126.812C2288.24,177.095 2242.46,207.866 2172.66,207.866C2070.6,207.866 2007.56,142.572 2007.56,53.263C2007.56,-39.049 2073.6,-104.342 2162.16,-104.342C2221.45,-104.342 2268.73,-77.324 2290.49,-42.801L2392.56,-101.34C2348.28,-171.887 2263.47,-221.42 2162.91,-221.42C2008.31,-221.42 1887.48,-99.839 1887.48,52.512C1887.48,203.363 2006.05,324.944 2171.16,324.944C2318.26,324.944 2430.09,227.379 2430.09,66.772L2430.09,21.742Z" style="fill:rgb(34,38,46);fill-rule:nonzero;"/>
        <path d="M2748.3,324.944C2899.15,324.944 3021.48,206.365 3021.48,51.762C3021.48,-102.841 2899.15,-221.42 2748.3,-221.42C2597.45,-221.42 2475.12,-102.841 2475.12,51.762C2475.12,206.365 2597.45,324.944 2748.3,324.944ZM2748.3,207.866C2662.74,207.866 2595.2,145.574 2595.2,51.762C2595.2,-42.051 2662.74,-104.342 2748.3,-104.342C2833.86,-104.342 2901.4,-42.051 2901.4,51.762C2901.4,145.574 2833.86,207.866 2748.3,207.866Z" style="fill:rgb(34,38,46);fill-rule:nonzero;"/>
    </g>
</svg>
