{"accessors" : [{"bufferView" : 0, "byteOffset" : 0, "componentType" : 5123, "count" : 17412, "type" : "SCALAR", "max" : [14018], "min" : [0]}, {"bufferView" : 1, "byteOffset" : 0, "componentType" : 5126, "count" : 14019, "type" : "VEC3", "max" : [5.9980878829956055, 2.7597200870513916, 1.7014050483703613], "min" : [-4.445835113525391, -3.637036085128784, -1.7014050483703613], "name" : "POSITION"}], "asset" : {"generator" : "Aspose.3D 24.1.0", "version" : "2.0"}, "buffers" : [{"uri" : "data:application/octet-stream;base64,", "byteLength" : 243776}], "bufferViews" : [{"buffer" : 0, "byteOffset" : 0, "byteLength" : 34824, "target" : 34963}, {"buffer" : 0, "byteOffset" : 34828, "byteLength" : 208944, "byteStride" : 12, "target" : 34962}], "meshes" : [{"primitives" : [{"attributes" : {"POSITION" : 1}, "indices" : 0, "mode" : 4}], "name" : ""}], "nodes" : [{"mesh" : 0, "name" : ""}], "scene" : 0, "scenes" : [{"nodes" : [0]}]}