<?xml version="1.0" encoding="UTF-8" standalone="no"?>
<!DOCTYPE svg PUBLIC "-//W3C//DTD SVG 1.1//EN" "http://www.w3.org/Graphics/SVG/1.1/DTD/svg11.dtd">
<!-- Copyright © SixtyFPS GmbH <info@slint.dev> ; SPDX-License-Identifier: GPL-3.0-only OR LicenseRef-Slint-Royalty-free-2.0 OR LicenseRef-Slint-Software-3.0 -->
<svg width="100%" height="100%" viewBox="0 0 15 22" version="1.1" xmlns="http://www.w3.org/2000/svg" xmlns:xlink="http://www.w3.org/1999/xlink" xml:space="preserve" xmlns:serif="http://www.serif.com/" style="fill-rule:evenodd;clip-rule:evenodd;stroke-linejoin:round;stroke-miterlimit:2;">
    <g transform="matrix(1,0,0,1,-1194,-1650)">
        <g transform="matrix(1.80511,0,0,1.76153,-494.864,-2299.46)">
            <g id="cconstant" transform="matrix(0.553984,0,0,0.567689,299.656,1304.56)">
                <path d="M1162.19,1653.65L1162.56,1659.13L1162.19,1659.13C1161.7,1657.49 1161,1656.31 1160.09,1655.59C1159.18,1654.86 1158.08,1654.5 1156.81,1654.5C1155.74,1654.5 1154.77,1654.78 1153.91,1655.32C1153.05,1655.86 1152.37,1656.73 1151.87,1657.91C1151.38,1659.1 1151.13,1660.58 1151.13,1662.35C1151.13,1663.81 1151.36,1665.07 1151.83,1666.14C1152.3,1667.21 1153,1668.03 1153.94,1668.6C1154.88,1669.17 1155.95,1669.45 1157.15,1669.45C1158.2,1669.45 1159.12,1669.23 1159.92,1668.78C1160.72,1668.34 1161.6,1667.45 1162.56,1666.12L1162.93,1666.35C1162.12,1667.79 1161.18,1668.84 1160.1,1669.5C1159.02,1670.17 1157.74,1670.5 1156.26,1670.5C1153.59,1670.5 1151.52,1669.51 1150.06,1667.53C1148.96,1666.06 1148.42,1664.32 1148.42,1662.32C1148.42,1660.72 1148.78,1659.24 1149.5,1657.89C1150.22,1656.54 1151.21,1655.5 1152.48,1654.76C1153.74,1654.02 1155.12,1653.65 1156.62,1653.65C1157.78,1653.65 1158.93,1653.93 1160.07,1654.5C1160.4,1654.68 1160.63,1654.77 1160.78,1654.77C1160.99,1654.77 1161.18,1654.69 1161.34,1654.54C1161.54,1654.33 1161.69,1654.03 1161.78,1653.65L1162.19,1653.65Z" style="fill:rgb(134,134,135);fill-rule:nonzero;"/>
            </g>
        </g>
    </g>
</svg>
