<?xml version="1.0" encoding="UTF-8" standalone="no"?>
<!DOCTYPE svg PUBLIC "-//W3C//DTD SVG 1.1//EN" "http://www.w3.org/Graphics/SVG/1.1/DTD/svg11.dtd">
<!-- Copyright © SixtyFPS GmbH <info@slint.dev> ; SPDX-License-Identifier: GPL-3.0-only OR LicenseRef-Slint-Royalty-free-2.0 OR LicenseRef-Slint-Software-3.0 -->
<svg width="100%" height="100%" viewBox="0 0 22 22" version="1.1" xmlns="http://www.w3.org/2000/svg" xmlns:xlink="http://www.w3.org/1999/xlink" xml:space="preserve" xmlns:serif="http://www.serif.com/" style="fill-rule:evenodd;clip-rule:evenodd;stroke-linejoin:round;stroke-miterlimit:2;">
    <g transform="matrix(1,0,0,1,-1278,-1651)">
        <g transform="matrix(1,0,0,1,1.13687e-13,-582.164)">
            <g id="revert">
                <g transform="matrix(5.02328e-17,-0.820364,0.820364,5.02328e-17,-1078.04,2962.65)">
                    <path d="M883.955,2876.62C884.393,2876.96 884.808,2877.32 885.196,2877.7C887.37,2879.88 888.715,2882.88 888.715,2886.2C888.715,2892.83 883.331,2898.22 876.7,2898.22C870.064,2898.22 864.685,2892.84 864.685,2886.2L867.123,2886.2C867.123,2891.49 871.411,2895.78 876.7,2895.78C881.986,2895.78 886.277,2891.49 886.277,2886.2C886.277,2883.56 885.205,2881.16 883.472,2879.43C883.393,2879.35 883.313,2879.27 883.231,2879.2L882.751,2880.91L876.7,2875.41L884.731,2873.87L883.955,2876.62Z" style="fill:rgb(134,134,135);"/>
                </g>
                <g transform="matrix(0.68101,0,0,0.68101,538.393,281.044)">
                    <path d="M1090.22,2897.89C1092.76,2897.89 1094.17,2895.71 1094.17,2891.77C1094.17,2887.82 1092.76,2885.64 1090.22,2885.64C1087.67,2885.64 1086.27,2887.82 1086.27,2891.77C1086.27,2895.71 1087.67,2897.89 1090.22,2897.89ZM1087.69,2891.77C1087.69,2888.58 1088.56,2886.91 1090.22,2886.91C1091.32,2886.91 1092.09,2887.66 1092.47,2889.11L1087.74,2893.06C1087.71,2892.66 1087.69,2892.23 1087.69,2891.77ZM1090.22,2896.62C1089.12,2896.62 1088.36,2895.88 1087.98,2894.44L1092.69,2890.46C1092.73,2890.87 1092.74,2891.3 1092.74,2891.77C1092.74,2894.94 1091.88,2896.62 1090.22,2896.62Z" style="fill:rgb(134,134,135);fill-rule:nonzero;"/>
                </g>
            </g>
        </g>
    </g>
</svg>
