<svg width="64" height="64" viewBox="0 0 64 64" fill="none" xmlns="http://www.w3.org/2000/svg">
  <path d="M20.663 55.828 48.733 37.031s1.267-.703 1.267-1.813c0-1.477-1.602-1.958-1.602-1.958l-15.442-5.905c-.552-.209-1.31.376-.6 1.118l5.113 4.944s1.42 1.348 1.42 2.232-.872 1.672-.872 1.672L19.414 54.691c-.662.618.232 1.738 1.249 1.137Z" fill="currentColor"/>
  <path d="M43.337 8.173 15.267 26.968S14 27.671 14 28.78c0 1.478 1.602 1.959 1.602 1.959l15.442 5.907c.551.206 1.312-.379.6-1.117l-5.113-4.961s-1.42-1.345-1.42-2.232c0-.888.872-1.673.872-1.673L44.575 9.308c.673-.618-.219-1.739-1.238-1.135Z" fill="currentColor"/>
</svg>
