<svg clip-rule="evenodd" fill-rule="evenodd" stroke-linecap="round" stroke-linejoin="round" stroke-miterlimit="1.5" viewBox="0 0 100 100" xmlns="http://www.w3.org/2000/svg"><g fill="none"><path d="m0 0h100v100h-100z"/><g stroke="#000"><circle cx="49.999315" cy="50.000218" r="16.783984" stroke-width="4.58955"/><g stroke-width="3.14"><path d="m50 32.774v-13.728" transform="matrix(1.39339 0 0 1.39339 -19.6694 -19.6694)"/><path d="m50 32.774v-13.728" transform="matrix(1.20671 .696694 -.696694 1.20671 24.4992 -45.1701)"/><path d="m50 32.774v-13.728" transform="matrix(.696694 1.20671 -1.20671 .696694 75.5008 -45.1701)"/><path d="m50 32.774v-13.728" transform="matrix(0 1.39339 -1.39339 0 119.669 -19.6694)"/><path d="m50 32.774v-13.728" transform="matrix(-.696694 1.20671 -1.20671 -.696694 145.17 24.4992)"/><path d="m50 32.774v-13.728" transform="matrix(-1.20671 .696694 -.696694 -1.20671 145.17 75.5008)"/><path d="m50 32.774v-13.728" transform="matrix(-1.39339 0 0 -1.39339 119.669 119.669)"/><path d="m50 32.774v-13.728" transform="matrix(-1.20671 -.696694 .696694 -1.20671 75.5008 145.17)"/><path d="m50 32.774v-13.728" transform="matrix(-.696694 -1.20671 1.20671 -.696694 24.4992 145.17)"/><path d="m50 32.774v-13.728" transform="matrix(0 -1.39339 1.39339 0 -19.6694 119.669)"/><path d="m50 32.774v-13.728" transform="matrix(.696694 -1.20671 1.20671 .696694 -45.1701 75.5008)"/><path d="m50 32.774v-13.728" transform="matrix(1.20671 -.696694 .696694 1.20671 -45.1701 24.4992)"/></g></g></g></svg>