<svg clip-rule="evenodd" fill-rule="evenodd" stroke-linecap="round" stroke-linejoin="round" stroke-miterlimit="1.5" viewBox="0 0 89 89" xmlns="http://www.w3.org/2000/svg"><g fill="none" stroke="#333"><path d="m428.144 792.813v76.18" stroke-width="9.86" transform="matrix(.67271754 0 0 .53717482 -243.877441 -422.106666)"/><path d="m403.913 792.813 25.03 25.03" stroke-width="9.91" transform="matrix(.58551323 0 0 .62421117 -208.044007 -489.539641)"/><path d="m403.913 792.813 25.03 25.03" stroke-width="9.91" transform="matrix(-.58551323 0 0 .62421117 296.328636 -489.539641)"/><path d="m428.144 792.813v76.18" stroke-width="9.86" transform="matrix(0 -.67272125 .53717595 0 -422.658531 332.720802)"/><path d="m403.913 792.813 25.03 25.03" stroke-width="9.91" transform="matrix(0 -.58551646 .62421248 0 -490.091648 296.88717)"/><path d="m403.913 792.813 25.03 25.03" stroke-width="9.91" transform="matrix(0 .58551646 .62421248 0 -490.091648 -207.488255)"/><path d="m428.144 792.813v76.18" stroke-width="9.86" transform="matrix(-.67271754 0 0 -.53717482 332.163622 511.501666)"/><path d="m403.913 792.813 25.03 25.03" stroke-width="9.91" transform="matrix(-.58551323 0 0 -.62421117 296.330188 578.934641)"/><path d="m403.913 792.813 25.03 25.03" stroke-width="9.91" transform="matrix(.58551323 0 0 -.62421117 -208.042456 578.934641)"/><path d="m428.144 792.813v76.18" stroke-width="9.86" transform="matrix(0 .67272125 -.53717595 0 510.943986 -243.323002)"/><path d="m403.913 792.813 25.03 25.03" stroke-width="9.91" transform="matrix(0 .58551646 -.62421248 0 578.377103 -207.48937)"/><path d="m403.913 792.813 25.03 25.03" stroke-width="9.91" transform="matrix(0 -.58551646 -.62421248 0 578.377103 296.886055)"/><g stroke-width="6.29"><path d="m397.421 798.974 61.268 61.269" transform="matrix(.95392602 0 0 .953928 -364.189251 -746.689)"/><path d="m397.421 798.974 61.268 61.269" transform="matrix(0 -.953928 .95392602 0 -747.24148 453.031)"/></g></g></svg>