<svg clip-rule="evenodd" fill-rule="evenodd" stroke-linejoin="round" stroke-miterlimit="2" viewBox="0 0 105 106" width="105" height="106" xmlns="http://www.w3.org/2000/svg"><g fill="#333"><path d="m161.256 784.519v134.482h-134.482v-134.482zm-7.727 7.726h-119.029v119.029h119.029z" transform="matrix(.77653103 0 0 .776533 -20.239227 -608.56476)"/><path d="m105.405 836.507-.001-26.914c0-2.132 1.731-3.863 3.864-3.863 2.132 0 3.863 1.731 3.863 3.863v17.588l28.141-28.142c1.508-1.508 3.956-1.508 5.464 0 1.508 1.507 1.508 3.955 0 5.463l-28.142 28.142h17.587c2.133 0 3.864 1.731 3.864 3.863s-1.731 3.863-3.864 3.863h-26.913c-1.041 0-2.014-.414-2.732-1.132-.717-.717-1.132-1.691-1.131-2.731z" transform="matrix(-.77653103 0 0 -.776533 171.671187 668.37924)"/><path d="m105.405 836.507-.001-26.914c0-2.132 1.731-3.863 3.864-3.863 2.132 0 3.863 1.731 3.863 3.863v17.588l28.141-28.142c1.508-1.508 3.956-1.508 5.464 0 1.508 1.507 1.508 3.955 0 5.463l-28.142 28.142h17.587c2.133 0 3.864 1.731 3.864 3.863s-1.731 3.863-3.864 3.863h-26.913c-1.041 0-2.014-.414-2.732-1.132-.717-.717-1.132-1.691-1.131-2.731z" transform="matrix(.77653103 0 0 .776533 -67.220708 -561.58316)"/></g></svg>