<svg clip-rule="evenodd" fill-rule="evenodd" stroke-linejoin="round" stroke-miterlimit="2" viewBox="0 0 24 24" width="24" height="24" xmlns="http://www.w3.org/2000/svg"><path d="m23.498 9.77c1.592.177 2.832 1.529 2.832 3.168v6.375c0 1.759-1.428 3.187-3.187 3.187h-10.172c-1.759 0-3.187-1.428-3.187-3.187v-6.375c0-1.639 1.24-2.991 2.832-3.168v-2.69c0-1.443.573-2.827 1.593-3.847s2.404-1.593 3.847-1.593h.002c1.443 0 2.827.573 3.847 1.593s1.593 2.404 1.593 3.847zm-8.882-.02h6.882v-2.67c0-.913-.362-1.788-1.007-2.433-.646-.645-1.521-1.007-2.433-1.007h-.002c-.913 0-1.788.362-2.433 1.007s-1.007 1.52-1.007 2.433z" transform="translate(-6.05696)"/></svg>