<svg clip-rule="evenodd" fill-rule="evenodd" stroke-linejoin="round" stroke-miterlimit="2" viewBox="0 0 64 64" width="64" height="64" xmlns="http://www.w3.org/2000/svg"><g fill="#d7dae0" fill-rule="nonzero"><path d="m17.024 63.411 37.034-24.799s1.671-.928 1.671-2.392c0-1.949-2.114-2.583-2.114-2.583l-20.373-7.791c-.727-.275-1.728.497-.791 1.475l6.745 6.522s1.874 1.78 1.874 2.946c0 1.167-1.151 2.207-1.151 2.207l-24.544 22.915c-.873.816.308 2.294 1.649 1.5z"/><path d="m46.938.54-37.034 24.795s-1.671.928-1.671 2.392c0 1.949 2.114 2.584 2.114 2.584l20.373 7.794c.727.271 1.731-.5.791-1.475l-6.745-6.544s-1.874-1.776-1.874-2.946c0-1.171 1.151-2.207 1.151-2.207l24.529-22.897c.888-.815-.289-2.294-1.634-1.496z"/></g></svg>