<!-- SPDX-FileCopyrightText: Copyright © Spyrosoft GmbH <office@spyro-soft.com >
SPDX-License-Identifier: CC-BY-4.0 -->

<svg width="139" height="32" viewBox="0 0 139 32" fill="none" xmlns="http://www.w3.org/2000/svg">
<path d="M2.16818 23.6967C2.16092 23.6967 2.14639 23.6895 2.13913 23.6895C0.715284 23.3044 -0.185521 21.9024 0.032414 20.4422L0.105064 19.9555C0.59905 20.3405 1.36909 20.7037 2.40065 21.0452C3.43221 21.3866 4.56547 21.561 5.81496 21.561C6.98455 21.561 7.88535 21.3866 8.51736 21.0452C9.14937 20.7037 9.46901 20.217 9.46901 19.5995C9.46901 18.8731 9.12031 18.321 8.42292 17.9432C7.72553 17.5655 6.85379 17.2531 5.81496 16.9916C4.67444 16.7373 3.70826 16.4613 2.92369 16.1707C2.13913 15.8801 1.47079 15.437 0.911424 14.834C0.352057 14.2311 0.0760104 13.4392 0.0760104 12.4585C0.0760104 11.1073 0.635375 9.98134 1.75411 9.08054C2.87284 8.17974 4.60179 7.72934 6.93369 7.72934C8.00157 7.72934 8.90964 7.82378 9.65788 8.00539C10.4061 8.187 11.1471 8.44126 11.8954 8.7609L11.4885 11.3979C10.8928 10.9693 10.2318 10.6351 9.51259 10.3881C8.79341 10.1412 7.95799 10.0177 7.0136 10.0177C5.91666 10.0177 5.05946 10.192 4.42018 10.548C3.78817 10.9039 3.46853 11.4342 3.46853 12.1389C3.46853 12.6111 3.61382 12.9888 3.91893 13.2794C4.21677 13.57 4.63812 13.8097 5.18296 14.0059C5.72779 14.202 6.57773 14.4417 7.71826 14.7468C9.13484 15.1101 10.3553 15.6259 11.3868 16.2869C12.4184 16.948 12.9342 18.0013 12.9342 19.4397C12.9342 20.7255 12.4039 21.8297 11.3505 22.7523C10.2972 23.6749 8.49556 24.1326 5.96025 24.1326C4.51462 24.1326 3.25059 23.9873 2.16818 23.6967Z" fill="white"/>
<path d="M40.1246 23.515L32.5187 8.47025H36.2454L41.948 20.1734L47.0913 8.47025H50.818L40.6622 29.8351C40.0374 31.1573 38.7008 32 37.2406 32H35.9112L40.1246 23.515Z" fill="white"/>
<path d="M53.9578 8.48498H56.7183L57.1251 11.0857C58.0695 10.0759 58.9703 9.34219 59.8275 8.87C60.6847 8.39781 61.5855 8.16534 62.5299 8.16534C62.8277 8.16534 63.111 8.1944 63.3871 8.25978L63.0529 11.4416C62.7333 11.3763 62.3555 11.3472 61.9342 11.3472C61.0116 11.3472 60.1471 11.5215 59.3262 11.8775C58.5054 12.2335 57.9097 12.6475 57.5392 13.1125V24.2344H53.9578V8.48498Z" fill="white"/>
<path d="M85.9784 24.0238C85.9711 24.0238 85.9566 24.0166 85.9493 24.0166C84.5255 23.6316 83.6247 22.2295 83.8426 20.7693L83.9152 20.2826C84.4092 20.6676 85.1793 21.0309 86.2108 21.3723C87.2424 21.7137 88.3756 21.8881 89.6251 21.8881C90.7947 21.8881 91.6955 21.7137 92.3275 21.3723C92.9595 21.0309 93.2792 20.5441 93.2792 19.9267C93.2792 19.2002 92.9305 18.6481 92.2331 18.2703C91.5357 17.8926 90.664 17.5802 89.6251 17.3187C88.4846 17.0644 87.5184 16.7884 86.7339 16.4978C85.9493 16.2072 85.281 15.7641 84.7216 15.1611C84.1622 14.5582 83.8862 13.7664 83.8862 12.7857C83.8862 11.4345 84.4455 10.3085 85.5643 9.40766C86.683 8.50686 88.412 8.05646 90.7439 8.05646C91.8118 8.05646 92.7198 8.15089 93.4681 8.33251C94.2163 8.51412 94.9573 8.76838 95.7055 9.08802L95.2987 11.725C94.703 11.2964 94.042 10.9623 93.3228 10.7153C92.6036 10.4683 91.7682 10.3448 90.8238 10.3448C89.7268 10.3448 88.8696 10.5191 88.2304 10.8751C87.5983 11.231 87.2787 11.7614 87.2787 12.466C87.2787 12.9382 87.424 13.316 87.7291 13.6065C88.027 13.8971 88.4483 14.1368 88.9931 14.333C89.538 14.5291 90.3879 14.7689 91.5284 15.074C92.945 15.4372 94.1655 15.953 95.197 16.614C96.2286 17.2751 96.7444 18.3285 96.7444 19.7668C96.7444 21.0527 96.214 22.1569 95.1607 23.0795C94.1073 24.002 92.3057 24.4597 89.7704 24.4597C88.3248 24.4597 87.0608 24.3144 85.9784 24.0238Z" fill="white"/>
<path d="M23.5049 7.5986C18.8992 7.5986 15.1653 11.3326 15.1653 15.9383C15.1653 15.9746 15.1653 16.0036 15.1653 16.04C15.1653 16.0545 15.1653 16.0763 15.1653 16.0908V31.9783C17.0032 31.9783 18.4852 30.4891 18.4852 28.6584V22.5998C19.88 23.6532 21.6162 24.2779 23.4977 24.2779C28.1034 24.2779 31.8373 20.5439 31.8373 15.9383C31.8373 11.3326 28.1106 7.5986 23.5049 7.5986ZM23.5049 21.1106C20.6064 21.1106 18.26 18.7641 18.26 15.8656C18.26 12.9671 20.6064 10.6206 23.5049 10.6206C26.4035 10.6206 28.7499 12.9671 28.7499 15.8656C28.7499 18.7641 26.4035 21.1106 23.5049 21.1106Z" fill="white"/>
<path d="M107.38 7.92557C102.774 7.92557 99.0402 11.6595 99.0402 16.2652C99.0402 20.8709 102.774 24.6049 107.38 24.6049C111.986 24.6049 115.719 20.8709 115.719 16.2652C115.712 11.6595 111.986 7.92557 107.38 7.92557ZM107.38 21.4375C104.481 21.4375 102.135 19.0911 102.135 16.1926C102.135 13.294 104.481 10.9476 107.38 10.9476C110.278 10.9476 112.625 13.294 112.625 16.1926C112.618 19.0911 110.271 21.4375 107.38 21.4375Z" fill="white"/>
<path d="M137.549 22.1277C136.256 22.1277 135.37 22.0696 134.883 21.9533C134.396 21.8371 134.084 21.5756 133.932 21.1688C133.786 20.7619 133.706 20.0137 133.706 18.9168V10.6207H137.033V8.36871H133.706V2.86221L133.561 2.87674C131.745 3.03656 130.35 4.55484 130.35 6.37823V8.36871H129.813H124.037V4.83089C124.037 3.33441 124.807 2.5789 126.347 2.5789C126.427 2.5789 126.507 2.58616 126.587 2.58616C126.892 1.56913 127.669 0.762772 128.665 0.399547C127.837 0.138025 126.892 0 125.824 0C124.161 0 122.882 0.414077 122.003 1.23497C121.124 2.06312 120.681 3.18912 120.681 4.62749V8.35418H117.957L117.506 10.6062H120.674V24.1036H124.03V10.6207H130.336V20.682C130.336 21.7354 130.728 22.6217 131.512 23.3481C132.297 24.0746 133.496 24.4378 135.108 24.4378H138.13L138.392 22.1204H137.549V22.1277Z" fill="white"/>
<path d="M76.3537 9.24774C76.5934 9.6255 76.7532 10.0686 76.7241 10.5118C76.7096 10.7733 76.6443 11.0275 76.5861 11.2745C76.528 11.507 76.5062 11.7249 76.499 11.9211C76.4772 12.3933 76.6951 12.989 77.022 13.3667C77.792 14.2385 78.1916 15.2555 78.1843 16.505C78.1698 18.9967 76.2302 21.4666 73.7675 21.8517C70.5566 22.3529 67.8324 19.9992 67.6145 16.9118C67.5636 16.5922 67.52 15.8366 67.5346 15.4734C67.5709 14.0786 67.6435 14.2167 67.8833 12.8655C68.014 11.6959 67.273 11.3617 66.5103 11.2963V11.2891C65.0065 13.0543 64.2219 15.4516 64.6288 18.0305C65.1881 21.6192 67.9632 24.3797 71.5518 24.9245C76.7387 25.7091 81.1991 21.7209 81.1991 16.6866C81.1918 13.2214 79.3031 10.4827 76.3537 9.24774Z" fill="white"/>
<path d="M73.7674 7.91109L68.1519 5.84797C67.2148 5.50654 66.2631 6.29837 66.4302 7.27908L67.0622 10.0178C67.3819 10.0541 67.8468 10.0759 68.21 10.3011C68.704 10.6062 69.0164 11.013 69.0382 11.5143C69.0454 11.9719 68.9946 12.1245 68.9728 12.3642C68.9583 12.524 68.9219 12.8873 68.9219 12.9672C68.9365 13.5048 68.951 13.5265 69.0091 13.8026C69.1253 14.3547 69.4087 14.7615 69.4087 14.7615L74.2032 10.4391C75.0822 9.71269 74.8425 8.30337 73.7674 7.91109Z" fill="white"/>
</svg>
