<svg width="77" height="77" viewBox="0 0 77 77" fill="none" xmlns="http://www.w3.org/2000/svg">
<path d="M0.303192 38.4999C0.303192 59.5955 17.4045 76.6968 38.5 76.6968C59.5956 76.6968 76.6969 59.5955 76.6969 38.4999C76.6969 17.4044 59.5956 0.30307 38.5 0.30307C17.4045 0.30307 0.303192 17.4044 0.303192 38.4999Z" fill="url(#paint0_radial_1014_7552)"/>
<path d="M28.4749 51.5356L53.2937 34.347C53.2937 34.347 54.4154 33.7043 54.4154 32.6918C54.4154 31.3397 52.9997 30.9002 52.9997 30.9002L39.358 25.498C38.8699 25.307 38.1969 25.8436 38.8274 26.5196L43.3504 31.0669C43.3504 31.0669 44.6146 32.2977 44.6146 33.1071C44.6146 33.9165 43.8446 34.6228 43.8446 34.6228L27.3835 50.4897C26.7863 51.0596 27.5867 52.0843 28.4749 51.5356Z" fill="#0025FF"/>
<path d="M48.5252 7.96081L23.7063 25.1433C23.7063 25.1433 22.5847 25.786 22.5847 26.8016C22.5847 28.1536 24.0004 28.5901 24.0004 28.5901L37.6421 33.9923C38.1302 34.1833 38.8032 33.6467 38.1726 32.9707L33.6496 28.4355C33.6496 28.4355 32.3855 27.2229 32.3855 26.3953C32.3855 25.5677 33.1555 24.8796 33.1555 24.8796L49.6165 9.00971C50.2137 8.43372 49.4134 7.40908 48.5252 7.96081Z" fill="#0025FF"/>
<path d="M29.0781 62.0365C28.4809 61.6349 27.7913 61.3919 27.0743 61.3301L25.4918 61.13C25.1488 61.0986 24.8162 60.9953 24.5157 60.8269C24.409 60.7664 24.3207 60.678 24.2604 60.5712C24.2 60.4644 24.1699 60.3432 24.1731 60.2206C24.1731 59.59 24.7734 59.2748 25.9739 59.2748C26.3592 59.2705 26.744 59.304 27.1228 59.3748C27.4123 59.4305 27.6971 59.5086 27.9746 59.6082C28.1721 59.6765 28.3621 59.7649 28.5415 59.872C28.6382 59.9282 28.7295 59.9932 28.8144 60.066C28.8643 60.0426 28.9111 60.013 28.9538 59.9781C29.0205 59.9281 29.0797 59.8689 29.1296 59.8022C29.1894 59.7242 29.2422 59.641 29.2873 59.5537C29.3351 59.4513 29.359 59.3393 29.357 59.2263C29.357 58.8443 29.0539 58.5341 28.4476 58.2956C27.6413 58.0264 26.7928 57.9062 25.9435 57.9409C25.3917 57.9298 24.841 57.994 24.3065 58.1319C23.9096 58.236 23.5375 58.4184 23.2122 58.6685C22.9512 58.8777 22.7435 59.1457 22.6059 59.4506C22.4761 59.7468 22.41 60.067 22.4118 60.3904C22.4026 60.7307 22.4742 61.0684 22.621 61.3756C22.7588 61.648 22.9581 61.8847 23.2031 62.0668C23.4733 62.2631 23.7746 62.4127 24.0943 62.5094C24.4658 62.6221 24.8477 62.6973 25.2342 62.7337L26.4468 62.8731C26.8519 62.884 27.2491 62.9877 27.6078 63.1763C27.7146 63.2483 27.8008 63.3468 27.8582 63.4621C27.9155 63.5774 27.9421 63.7055 27.9352 63.8341C27.9445 63.9953 27.9002 64.1549 27.8091 64.2882C27.7181 64.4215 27.5855 64.5208 27.432 64.5708C27.0097 64.7237 26.5622 64.7946 26.1133 64.78C25.7284 64.7823 25.3441 64.7518 24.9644 64.689C24.6476 64.6348 24.3346 64.5598 24.0276 64.4647C23.7928 64.3912 23.5621 64.3052 23.3365 64.207C23.2015 64.1517 23.0717 64.0848 22.9484 64.0069L22.2815 65.2013C22.4083 65.2906 22.5433 65.3678 22.6847 65.4317C22.9483 65.5535 23.221 65.6548 23.5002 65.7349C23.888 65.8624 24.284 65.9637 24.6855 66.038C25.1861 66.124 25.6933 66.1655 26.2012 66.1623C27.3592 66.1623 28.2455 65.9299 28.8598 65.4651C29.1514 65.2515 29.3866 64.9702 29.5451 64.6454C29.7036 64.3205 29.7805 63.962 29.7693 63.6007C29.7883 63.3036 29.7353 63.0063 29.615 62.734C29.4947 62.4617 29.3105 62.2225 29.0781 62.0365Z" fill="white"/>
<path d="M32.6795 54.5185C32.4306 54.5036 32.1843 54.5754 31.9823 54.7216C31.8955 54.7988 31.8278 54.8952 31.7847 55.003C31.7416 55.1109 31.7241 55.2273 31.7337 55.3431V65.9533H33.5011V54.6913C33.4485 54.6711 33.3475 54.6378 33.1979 54.5913C33.0299 54.5407 32.855 54.5161 32.6795 54.5185Z" fill="white"/>
<path d="M36.763 54.6762C36.5195 54.6809 36.2852 54.7698 36.0997 54.9276C35.9143 55.0855 35.7892 55.3027 35.7456 55.5423C35.7021 55.7819 35.7428 56.0292 35.8608 56.2422C35.9788 56.4552 36.1669 56.6208 36.3931 56.711C36.6194 56.8011 36.8698 56.8102 37.102 56.7367C37.3342 56.6632 37.5338 56.5116 37.6669 56.3077C37.8001 56.1038 37.8586 55.8601 37.8325 55.618C37.8064 55.3759 37.6974 55.1502 37.5239 54.9793C37.4243 54.8798 37.3055 54.8015 37.1746 54.7494C37.0438 54.6973 36.9037 54.6724 36.763 54.6762Z" fill="white"/>
<path d="M36.8236 58.1653C36.576 58.1497 36.3303 58.2181 36.1263 58.3593C36.0385 58.437 35.9702 58.5343 35.927 58.6433C35.8838 58.7523 35.8669 58.87 35.8778 58.9868V65.9592H37.6482V58.335L37.345 58.235C37.1755 58.1866 36.9999 58.1631 36.8236 58.1653Z" fill="white"/>
<path d="M46.4425 58.8262C46.086 58.53 45.6737 58.3084 45.2299 58.1745C44.7396 58.0203 44.2281 57.9446 43.7142 57.9501C43.2002 57.9432 42.6884 58.019 42.1984 58.1745C41.7609 58.3102 41.3549 58.5318 41.004 58.8262C40.6674 59.1108 40.3973 59.4657 40.2128 59.866C40.0085 60.3001 39.9049 60.7747 39.9096 61.2545V65.9533H41.677V61.7092C41.6366 61.1289 41.8175 60.5548 42.1833 60.1025C42.6069 59.744 43.144 59.5472 43.699 59.5472C44.254 59.5472 44.7911 59.744 45.2148 60.1025C45.5852 60.5526 45.7686 61.1278 45.7271 61.7092V65.9533H47.4944V61.2545C47.5039 60.7769 47.4087 60.303 47.2156 59.866C47.039 59.4659 46.7748 59.1106 46.4425 58.8262Z" fill="white"/>
<path d="M54.0061 64.2011C53.8311 64.3123 53.6427 64.4009 53.4453 64.4648C53.0038 64.6184 52.5282 64.6457 52.0721 64.5436C51.9085 64.504 51.7555 64.4295 51.6234 64.3253C51.4886 64.2162 51.3842 64.0742 51.3202 63.9131C51.2403 63.7033 51.2032 63.4796 51.2111 63.2552V59.7963H54.1911C54.2378 59.6923 54.2793 59.5861 54.3154 59.478C54.3685 59.3197 54.3951 59.1538 54.3942 58.9869C54.4013 58.8767 54.3862 58.7663 54.3498 58.6621C54.3133 58.558 54.2563 58.4622 54.182 58.3806C53.9778 58.2198 53.719 58.1448 53.4605 58.1714H51.2111V56.1403C51.1596 56.1191 51.0535 56.0857 50.8928 56.0372C50.7241 55.9899 50.5496 55.9665 50.3744 55.9675C50.1317 55.954 49.8915 56.0223 49.6923 56.1615C49.6042 56.2397 49.5358 56.3375 49.4926 56.4471C49.4494 56.5566 49.4327 56.6748 49.4437 56.7921V63.616C49.429 63.9562 49.4832 64.296 49.603 64.6148C49.7228 64.9336 49.9058 65.2249 50.141 65.4713C50.6078 65.9421 51.296 66.1776 52.2054 66.1776C52.5026 66.1789 52.7991 66.1505 53.0906 66.0927C53.338 66.0412 53.5812 65.9712 53.8182 65.8835C54.0092 65.8113 54.1937 65.723 54.3699 65.6198C54.5185 65.5258 54.6367 65.447 54.7185 65.3864L54.0061 64.2011Z" fill="white"/>
<defs>
<radialGradient id="paint0_radial_1014_7552" cx="0" cy="0" r="1" gradientUnits="userSpaceOnUse" gradientTransform="translate(23.6336 22.9701) scale(127.179 93.2647)">
<stop offset="0.1" stop-color="#2C2F36"/>
<stop offset="0.33" stop-color="#202328"/>
<stop offset="0.94" stop-color="#040708"/>
</radialGradient>
</defs>
</svg>
