<svg width="165" height="66" viewBox="0 0 165 66" fill="none" xmlns="http://www.w3.org/2000/svg">
<path d="M80.4389 27.1544C78.8683 25.9581 76.6676 25.1711 73.8367 24.7934L68.6189 24.1175C67.2189 23.9424 66.1447 23.6217 65.3963 23.1554C65.0416 22.9516 64.7489 22.6527 64.5504 22.2914C64.3519 21.9302 64.2551 21.5205 64.2707 21.1072C64.2707 18.994 66.2484 17.9384 70.204 17.9404C72.4528 17.9087 74.6889 18.2865 76.8062 19.056C77.456 19.2875 78.0815 19.5841 78.6735 19.9414C78.9899 20.1299 79.2887 20.3472 79.5664 20.5907C79.7335 20.5151 79.8892 20.4157 80.0288 20.2955C80.2462 20.1242 80.4416 19.9259 80.6105 19.7053C80.8079 19.4458 80.9794 19.167 81.1224 18.873C81.2825 18.5334 81.3613 18.1603 81.3522 17.784C81.3522 16.5031 80.372 15.4642 78.4117 14.6674C76.4514 13.8705 73.6971 13.477 70.1487 13.4868C68.3284 13.4493 66.5118 13.6678 64.7506 14.1361C63.4416 14.4803 62.2148 15.0897 61.1441 15.9276C60.2676 16.6223 59.5692 17.5213 59.1081 18.5484C58.6804 19.538 58.4624 20.6079 58.4683 21.6886C58.437 22.8277 58.6743 23.9579 59.1605 24.9852C59.6144 25.8957 60.2705 26.6868 61.0772 27.2961C61.9686 27.954 62.964 28.453 64.0206 28.7717C65.2454 29.1528 66.5055 29.4049 67.7812 29.5243L71.7716 29.9936C73.6137 30.1903 74.8924 30.5445 75.6079 31.0561C75.9583 31.2998 76.241 31.6309 76.429 32.0175C76.6169 32.4041 76.7037 32.8332 76.6812 33.2637C76.6812 34.4068 76.1188 35.2115 74.9942 35.6778C73.8696 36.1442 72.4154 36.3773 70.6315 36.3773C69.3647 36.3849 68.0997 36.2812 66.8505 36.0674C65.8038 35.8859 64.77 35.6345 63.7559 35.3148C62.9824 35.0695 62.2222 34.7828 61.4785 34.456C61.0325 34.272 60.6042 34.0467 60.1988 33.7831L58 37.7792C58.4174 38.0815 58.8626 38.3424 59.3292 38.5583C60.1989 38.9778 61.097 39.3338 62.0166 39.6238C63.2986 40.0295 64.6054 40.3499 65.9285 40.5829C67.5843 40.8735 69.2624 41.0128 70.9427 40.9991C74.7606 40.9991 77.6855 40.2199 79.7176 38.6616C80.6884 37.9548 81.4735 37.0173 82.0044 35.9311C82.5353 34.845 82.7957 33.6433 82.7628 32.4314C82.7822 30.1097 82.0075 28.3507 80.4389 27.1544Z" fill="#151D21"/>
<path d="M92.3084 2.00029C91.3196 2.00029 90.5633 2.22754 90.0049 2.67614C89.4465 3.12474 89.1876 3.8183 89.1876 4.74207V40.2642H95.0191V2.57284C94.8475 2.50496 94.5072 2.38986 93.9954 2.23639C93.4475 2.07414 92.8791 1.99459 92.3084 2.00029Z" fill="#151D21"/>
<path d="M105.783 2.51972C105.318 2.51418 104.857 2.60307 104.426 2.78117C103.995 2.95926 103.603 3.22297 103.275 3.55678C102.946 3.8906 102.686 4.28778 102.51 4.72498C102.335 5.16218 102.247 5.63058 102.253 6.10263C102.255 6.69061 102.401 7.26881 102.676 7.78623C102.951 8.30366 103.348 8.7444 103.831 9.06957C104.313 9.39474 104.868 9.59435 105.444 9.65079C106.021 9.70722 106.603 9.61875 107.138 9.39318C107.673 9.16761 108.145 8.81187 108.513 8.35734C108.88 7.90282 109.132 7.36348 109.246 6.78691C109.359 6.21033 109.331 5.61425 109.164 5.05124C108.997 4.48824 108.696 3.97561 108.288 3.55859C107.962 3.22117 107.572 2.95493 107.141 2.77626C106.711 2.5976 106.249 2.51029 105.783 2.51972Z" fill="#151D21"/>
<path d="M105.978 14.207C104.989 14.207 104.233 14.4254 103.675 14.8563C103.116 15.2871 102.866 15.9778 102.866 16.9517V40.2672H108.698V14.7736C108.526 14.7028 108.186 14.5906 107.674 14.4342C107.122 14.2757 106.551 14.1992 105.978 14.207Z" fill="#151D21"/>
<path d="M137.701 16.4086C136.534 15.4232 135.187 14.6819 133.737 14.2276C132.114 13.7128 130.422 13.4588 128.723 13.475C127.031 13.4571 125.348 13.7111 123.735 14.2276C122.293 14.686 120.954 15.427 119.794 16.4086C118.681 17.3597 117.788 18.5464 117.176 19.8853C116.529 21.3464 116.209 22.935 116.239 24.5366V40.2671H122.071V26.0418C122.071 23.6807 122.625 21.8892 123.735 20.6674C124.844 19.4455 126.506 18.8317 128.723 18.8258C130.904 18.8258 132.558 19.4396 133.684 20.6674C134.811 21.8951 135.374 23.6866 135.374 26.0418V40.2671H141.206V24.5366C141.237 22.9379 140.927 21.3513 140.298 19.8853C139.7 18.5435 138.813 17.3554 137.701 16.4086Z" fill="#151D21"/>
<path d="M162.641 34.397C162.068 34.772 161.449 35.0696 160.8 35.2824C159.914 35.5992 158.98 35.758 158.04 35.7516C157.446 35.7543 156.853 35.685 156.275 35.545C155.734 35.4166 155.227 35.1687 154.791 34.819C154.35 34.452 154.007 33.978 153.794 33.4407C153.532 32.737 153.41 31.9877 153.436 31.2361V19.6521H163.258C163.414 19.3062 163.551 18.9515 163.668 18.5897C163.842 18.0617 163.928 17.5083 163.924 16.9517C163.924 16.0663 163.694 15.3698 163.232 14.9035C162.769 14.4372 161.975 14.207 160.85 14.207H153.433V7.41891C153.261 7.34808 152.912 7.23593 152.383 7.0795C151.825 6.92109 151.249 6.84261 150.67 6.84635C149.869 6.80055 149.076 7.02922 148.419 7.49564C147.86 7.91178 147.599 8.59944 147.599 9.58223V32.4225C147.599 34.9803 148.366 37.0463 149.902 38.6203C151.438 40.1944 153.706 40.9814 156.708 40.9814C157.685 40.9848 158.66 40.8859 159.616 40.6862C160.434 40.5148 161.238 40.2809 162.022 39.9868C162.652 39.7495 163.26 39.4531 163.837 39.1014C164.331 38.7885 164.719 38.5288 165 38.3222L162.641 34.397Z" fill="#151D21"/>
<path d="M8.88421 65.7634L46.311 39.9175C46.311 39.9175 48 38.9507 48 37.425C48 35.3933 45.8641 34.7324 45.8641 34.7324L25.2743 26.6131C24.5396 26.3261 23.5285 27.1305 24.4752 28.1501L31.2918 34.9477C31.2918 34.9477 33.1853 36.8019 33.1853 38.0179C33.1853 39.2339 32.0227 40.3178 32.0227 40.3178L7.21793 64.2C6.33556 65.0497 7.52846 66.5905 8.88421 65.7634Z" fill="#2379F4"/>
<path d="M39.1158 0.238408L1.689 26.0806C1.689 26.0806 0 27.0474 0 28.573C0 30.6048 2.13586 31.2656 2.13586 31.2656L22.7257 39.3888C23.4604 39.672 24.4753 38.8676 23.5248 37.8518L16.7082 31.0315C16.7082 31.0315 14.8147 29.1811 14.8147 27.9613C14.8147 26.7415 15.9773 25.6614 15.9773 25.6614L40.7669 1.79808C41.6644 0.94838 40.4753 -0.592409 39.1158 0.238408Z" fill="#2379F4"/>
<path d="M74.4921 57.594C74.4921 58.6699 74.3005 59.6795 73.9174 60.6227C73.5342 61.5512 73.0036 62.3545 72.3256 63.0324C71.6477 63.7104 70.8518 64.2483 69.938 64.6463C69.0242 65.0442 68.0368 65.2432 66.9756 65.2432C65.8702 65.2432 64.8238 65.0368 63.8364 64.6242C62.8636 64.1968 62.0162 63.6293 61.294 62.9219C60.5866 62.1997 60.0191 61.3523 59.5917 60.3795C59.1791 59.4068 58.9727 58.3678 58.9727 57.2624C58.9727 56.157 59.1791 55.118 59.5917 54.1452C60.0044 53.1725 60.5645 52.3324 61.2719 51.625C61.9941 50.9028 62.8415 50.3354 63.8143 49.9227C64.8017 49.4953 65.8481 49.2816 66.9535 49.2816C68.1473 49.2816 69.2748 49.5101 70.3359 49.9669C71.3971 50.4091 72.3035 51.0281 73.0552 51.824L71.9056 52.9957C71.316 52.3177 70.5791 51.7945 69.6948 51.426C68.8105 51.0428 67.8968 50.8512 66.9535 50.8512C66.0692 50.8512 65.2439 51.0207 64.4775 51.3597C63.7111 51.684 63.0479 52.1335 62.4878 52.7083C61.9425 53.2683 61.5077 53.9463 61.1835 54.7421C60.8592 55.5233 60.6971 56.3634 60.6971 57.2624C60.6971 58.1614 60.8592 59.0089 61.1835 59.8048C61.5077 60.5859 61.9425 61.2638 62.4878 61.8386C63.0479 62.3987 63.7111 62.8482 64.4775 63.1872C65.2439 63.5114 66.0692 63.6736 66.9535 63.6736C67.7346 63.6736 68.4642 63.5409 69.1421 63.2756C69.8348 63.0103 70.4317 62.6492 70.9329 62.1924C71.4487 61.7207 71.8687 61.1607 72.193 60.5122C72.5172 59.8637 72.7088 59.1636 72.7678 58.412H67.2188V56.9087H74.4921V57.594ZM89.8145 58.4562C89.8145 60.5196 89.2323 62.1702 88.068 63.4083C86.9184 64.6315 85.3709 65.2432 83.4255 65.2432C81.4653 65.2432 79.9104 64.6315 78.7608 63.4083C77.6112 62.185 77.0364 60.5343 77.0364 58.4562V49.5248H78.7387V58.4562C78.7387 60.0332 79.1661 61.3007 80.0209 62.2587C80.8757 63.2019 82.0106 63.6736 83.4255 63.6736C84.8403 63.6736 85.9752 63.2019 86.83 62.2587C87.6848 61.3007 88.1122 60.0332 88.1122 58.4562V49.5248H89.8145V58.4562ZM93.1329 65V49.5248H94.8351V65H93.1329ZM104.502 62.524V55.3169H102.115V53.9242H104.502V51.1165L106.116 50.6965V53.9242H109.455V55.3169H106.116V62.1039C106.116 62.6935 106.249 63.1209 106.514 63.3862C106.78 63.6367 107.214 63.762 107.819 63.762C108.128 63.762 108.401 63.7399 108.637 63.6957C108.887 63.6514 109.152 63.5778 109.432 63.4746V64.9116C109.152 65.0147 108.836 65.0884 108.482 65.1326C108.143 65.1769 107.811 65.199 107.487 65.199C106.529 65.199 105.792 64.9705 105.276 64.5136C104.76 64.0567 104.502 63.3935 104.502 62.524ZM110.573 59.451C110.573 58.6552 110.721 57.9035 111.016 57.1961C111.31 56.4886 111.708 55.877 112.209 55.3612C112.725 54.8453 113.329 54.44 114.022 54.1452C114.715 53.8505 115.452 53.7031 116.233 53.7031C117.014 53.7031 117.744 53.8505 118.422 54.1452C119.114 54.44 119.711 54.8453 120.212 55.3612C120.728 55.877 121.133 56.4886 121.428 57.1961C121.723 57.9035 121.87 58.6552 121.87 59.451C121.87 60.2616 121.723 61.0207 121.428 61.7281C121.133 62.4355 120.728 63.0472 120.212 63.563C119.711 64.0789 119.114 64.4842 118.422 64.7789C117.744 65.0737 117.014 65.2211 116.233 65.2211C115.452 65.2211 114.715 65.0737 114.022 64.7789C113.329 64.4842 112.725 64.0789 112.209 63.563C111.708 63.0472 111.31 62.4355 111.016 61.7281C110.721 61.0207 110.573 60.2616 110.573 59.451ZM116.233 63.762C116.793 63.762 117.316 63.6514 117.803 63.4304C118.304 63.2093 118.731 62.9072 119.085 62.524C119.453 62.126 119.741 61.6691 119.947 61.1533C120.153 60.6227 120.256 60.0553 120.256 59.451C120.256 58.8468 120.153 58.2867 119.947 57.7709C119.741 57.2403 119.453 56.7834 119.085 56.4002C118.731 56.017 118.304 55.7149 117.803 55.4938C117.316 55.2727 116.793 55.1622 116.233 55.1622C115.673 55.1622 115.142 55.2727 114.641 55.4938C114.155 55.7149 113.727 56.017 113.359 56.4002C113.005 56.7834 112.718 57.2403 112.497 57.7709C112.29 58.2867 112.187 58.8468 112.187 59.451C112.187 60.0553 112.29 60.6227 112.497 61.1533C112.703 61.6691 112.983 62.126 113.337 62.524C113.705 62.9072 114.14 63.2093 114.641 63.4304C115.142 63.6514 115.673 63.762 116.233 63.762ZM123.878 59.451C123.878 58.6552 124.025 57.9035 124.32 57.1961C124.614 56.4886 125.012 55.877 125.514 55.3612C126.029 54.8453 126.634 54.44 127.326 54.1452C128.019 53.8505 128.756 53.7031 129.537 53.7031C130.318 53.7031 131.048 53.8505 131.726 54.1452C132.418 54.44 133.015 54.8453 133.516 55.3612C134.032 55.877 134.438 56.4886 134.732 57.1961C135.027 57.9035 135.174 58.6552 135.174 59.451C135.174 60.2616 135.027 61.0207 134.732 61.7281C134.438 62.4355 134.032 63.0472 133.516 63.563C133.015 64.0789 132.418 64.4842 131.726 64.7789C131.048 65.0737 130.318 65.2211 129.537 65.2211C128.756 65.2211 128.019 65.0737 127.326 64.7789C126.634 64.4842 126.029 64.0789 125.514 63.563C125.012 63.0472 124.614 62.4355 124.32 61.7281C124.025 61.0207 123.878 60.2616 123.878 59.451ZM129.537 63.762C130.097 63.762 130.62 63.6514 131.107 63.4304C131.608 63.2093 132.035 62.9072 132.389 62.524C132.757 62.126 133.045 61.6691 133.251 61.1533C133.457 60.6227 133.561 60.0553 133.561 59.451C133.561 58.8468 133.457 58.2867 133.251 57.7709C133.045 57.2403 132.757 56.7834 132.389 56.4002C132.035 56.017 131.608 55.7149 131.107 55.4938C130.62 55.2727 130.097 55.1622 129.537 55.1622C128.977 55.1622 128.446 55.2727 127.945 55.4938C127.459 55.7149 127.032 56.017 126.663 56.4002C126.309 56.7834 126.022 57.2403 125.801 57.7709C125.595 58.2867 125.491 58.8468 125.491 59.451C125.491 60.0553 125.595 60.6227 125.801 61.1533C126.007 61.6691 126.287 62.126 126.641 62.524C127.009 62.9072 127.444 63.2093 127.945 63.4304C128.446 63.6514 128.977 63.762 129.537 63.762ZM139.305 49.149V65H137.669V49.5248L139.305 49.149ZM142.316 65V49.5248L143.951 49.149V58.9205L149.744 53.9242H151.733L145.654 59.1857L152.021 65H149.788L143.951 59.6942V65H142.316ZM154.279 51.8019C153.984 51.8019 153.726 51.6913 153.505 51.4702C153.284 51.2492 153.173 50.9913 153.173 50.6965C153.173 50.387 153.284 50.1291 153.505 49.9227C153.726 49.7017 153.984 49.5911 154.279 49.5911C154.588 49.5911 154.846 49.7017 155.053 49.9227C155.274 50.1291 155.384 50.387 155.384 50.6965C155.384 50.9913 155.274 51.2492 155.053 51.4702C154.846 51.6913 154.588 51.8019 154.279 51.8019ZM155.097 53.9242V65H153.461V53.9242H155.097ZM159.478 62.524V55.3169H157.091V53.9242H159.478V51.1165L161.092 50.6965V53.9242H164.43V55.3169H161.092V62.1039C161.092 62.6935 161.225 63.1209 161.49 63.3862C161.755 63.6367 162.19 63.762 162.794 63.762C163.104 63.762 163.377 63.7399 163.612 63.6957C163.863 63.6514 164.128 63.5778 164.408 63.4746V64.9116C164.128 65.0147 163.811 65.0884 163.458 65.1326C163.119 65.1769 162.787 65.199 162.463 65.199C161.505 65.199 160.768 64.9705 160.252 64.5136C159.736 64.0567 159.478 63.3935 159.478 62.524Z" fill="#151D21"/>
</svg>
