<svg width="214" height="93" viewBox="0 0 214 93" fill="none" xmlns="http://www.w3.org/2000/svg">
<path d="M57.4868 3.875H10.5827C6.53517 3.875 3.25397 7.17956 3.25397 11.256V81.375C3.25397 85.4514 6.53517 88.756 10.5827 88.756H57.4868C61.5344 88.756 64.8156 85.4514 64.8156 81.375V11.256C64.8156 7.17956 61.5344 3.875 57.4868 3.875Z" fill="url(#paint0_radial_1014_7487)"/>
<path d="M19.6411 77.1089L55.8562 51.855C55.8562 51.855 57.4905 50.9102 57.4905 49.4193C57.4905 47.4338 55.4238 46.7879 55.4238 46.7879L35.5005 38.8497C34.7897 38.5693 33.8113 39.359 34.7274 40.3518L41.3232 47.0168C41.3232 47.0168 43.1554 48.8251 43.1554 50.0134C43.1554 51.2018 42.0341 52.2609 42.0341 52.2609L18.0288 75.581C17.175 76.4114 18.3219 77.9171 19.6411 77.1089Z" fill="#0025FF"/>
<path d="M48.8939 13.0752L12.6787 38.3291C12.6787 38.3291 11.0444 39.2739 11.0444 40.7648C11.0444 42.7503 13.1111 43.3961 13.1111 43.3961L33.0344 51.3343C33.7453 51.6111 34.7274 50.8251 33.8076 49.8323L27.208 43.1784C27.208 43.1784 25.3758 41.3701 25.3758 40.178C25.3758 38.986 26.5008 37.9305 26.5008 37.9305L50.5209 14.6104C51.36 13.769 50.202 12.2633 48.8939 13.0752Z" fill="#0025FF"/>
<path d="M78.0514 69.012H76.8788C76.7063 69.0286 76.5341 68.977 76.3987 68.868C76.3485 68.8116 76.31 68.7457 76.2855 68.6741C76.2609 68.6024 76.2508 68.5266 76.2558 68.451C76.2552 68.3256 76.275 68.2009 76.3144 68.082C76.3404 68.0046 76.3722 67.9293 76.4097 67.8568H80.4405C80.6131 67.8394 80.7856 67.8911 80.9206 68.0008C80.9712 68.0569 81.0099 68.1229 81.0344 68.1945C81.059 68.2662 81.0689 68.3422 81.0635 68.4178C81.0659 68.5433 81.046 68.6683 81.0049 68.7868C80.9815 68.8652 80.9495 68.9407 80.9096 69.012H79.2679V72.9239H78.0514V69.012Z" fill="black"/>
<path d="M82.0492 72.9129V68.3957C82.0405 68.3158 82.0521 68.2349 82.0829 68.1607C82.1136 68.0865 82.1626 68.0213 82.2251 67.9713C82.3631 67.8843 82.5242 67.8418 82.6868 67.8495C82.8109 67.8474 82.9345 67.8649 83.0532 67.9012L83.2621 67.9676V69.7022H85.2116V68.3957C85.2029 68.3158 85.2145 68.2349 85.2453 68.1607C85.276 68.0865 85.3249 68.0213 85.3875 67.9713C85.5254 67.8843 85.6865 67.8418 85.8492 67.8495C85.9732 67.8474 86.0969 67.8649 86.2156 67.9012L86.4245 67.9676V72.9129H85.2006V70.8573H83.2511V72.9018L82.0492 72.9129Z" fill="black"/>
<path d="M87.9818 68.5504C87.9818 68.0818 88.2237 67.8493 88.7147 67.8493H91.2211C91.3937 67.8326 91.5658 67.8842 91.7012 67.9932C91.7518 68.0494 91.7905 68.1153 91.8151 68.187C91.8396 68.2586 91.8495 68.3346 91.8441 68.4102C91.8447 68.5356 91.8249 68.6603 91.7855 68.7793C91.7588 68.8564 91.727 68.9316 91.6902 69.0044H89.2131V69.7941H91.1259C91.2984 69.7775 91.4705 69.8291 91.6059 69.9381C91.6565 69.9942 91.6952 70.0602 91.7198 70.1318C91.7443 70.2035 91.7542 70.2795 91.7488 70.3551C91.7494 70.4805 91.7296 70.6052 91.6902 70.7241C91.6635 70.8013 91.6317 70.8765 91.5949 70.9493H89.2131V71.7685H91.8074V72.92H87.9818V68.5504Z" fill="black"/>
<path d="M95.3619 68.5504C95.3619 68.0818 95.6037 67.8493 96.0948 67.8493H98.4327C98.6052 67.8326 98.7773 67.8842 98.9127 67.9932C98.9633 68.0494 99.002 68.1153 99.0266 68.187C99.0511 68.2586 99.061 68.3346 99.0556 68.4102C99.0562 68.5356 99.0364 68.6603 98.997 68.7793C98.9703 68.8564 98.9385 68.9316 98.9017 69.0044H96.5931V69.8606H98.2421C98.4146 69.8439 98.5868 69.8955 98.7222 70.0045C98.7727 70.0607 98.8115 70.1266 98.836 70.1983C98.8606 70.2699 98.8705 70.3459 98.8651 70.4215C98.8657 70.5469 98.8459 70.6716 98.8064 70.7906C98.7798 70.8677 98.7479 70.9429 98.7112 71.0157H96.5931V72.92H95.3692L95.3619 68.5504Z" fill="black"/>
<path d="M99.3781 72.9127C99.4807 72.6371 99.6028 72.3161 99.7445 71.9495C99.8911 71.5804 100.049 71.1929 100.217 70.7833C100.386 70.3736 100.562 69.9529 100.745 69.5248C100.928 69.0967 101.111 68.6834 101.284 68.2848C101.348 68.1048 101.467 67.9499 101.624 67.842C101.786 67.751 101.97 67.7075 102.156 67.7165C102.238 67.7152 102.321 67.7251 102.401 67.746C102.476 67.7616 102.548 67.7851 102.617 67.8161C102.671 67.8374 102.722 67.8634 102.771 67.8936L102.845 67.9379C102.951 68.1272 103.047 68.3218 103.134 68.521C103.255 68.7867 103.383 69.0857 103.526 69.4178C103.669 69.7499 103.816 70.0968 103.966 70.4622C104.116 70.8276 104.259 71.1708 104.387 71.4992L104.728 72.3702C104.827 72.6211 104.893 72.802 104.933 72.9127H103.592C103.538 72.77 103.48 72.6113 103.416 72.4366C103.354 72.2595 103.273 72.0676 103.182 71.8203H101.049C100.972 72.027 100.902 72.2152 100.84 72.3886C100.778 72.5621 100.716 72.7355 100.646 72.9127H99.3781ZM102.764 70.6984C102.716 70.5655 102.658 70.4142 102.595 70.2518L102.412 69.7721C102.354 69.6171 102.299 69.4732 102.247 69.344C102.196 69.2148 102.156 69.1152 102.126 69.0524C102.097 69.1189 102.057 69.2185 102.009 69.344L101.848 69.7647L101.665 70.2408L101.489 70.6984H102.764Z" fill="black"/>
<path d="M106.219 71.466C106.282 71.5093 106.349 71.5476 106.417 71.5805C106.543 71.641 106.673 71.6928 106.806 71.7355C106.984 71.7914 107.165 71.8382 107.348 71.8757C107.568 71.9182 107.791 71.9392 108.015 71.9384C108.172 71.9415 108.33 71.9279 108.484 71.8978C108.58 71.8784 108.672 71.8422 108.755 71.7908C108.813 71.756 108.856 71.7026 108.88 71.6395C108.9 71.584 108.91 71.5252 108.909 71.466C108.909 71.4097 108.896 71.3541 108.871 71.3036C108.847 71.253 108.811 71.2089 108.766 71.1745C108.606 71.0734 108.424 71.0114 108.235 70.9937L107.502 70.8608C107.304 70.8234 107.108 70.7741 106.916 70.7132C106.729 70.6509 106.553 70.5614 106.392 70.4475C106.24 70.3301 106.115 70.1817 106.025 70.012C105.923 69.8087 105.873 69.5829 105.879 69.3551C105.878 69.1361 105.921 68.9192 106.003 68.7166C106.085 68.5176 106.21 68.3397 106.37 68.1963C106.561 68.0377 106.781 67.9185 107.018 67.8457C107.316 67.7533 107.627 67.7096 107.938 67.7165C108.161 67.7132 108.384 67.7268 108.605 67.7571C108.771 67.7777 108.935 67.8111 109.096 67.8568C109.211 67.8856 109.322 67.9252 109.429 67.9749C109.495 68.0005 109.557 68.0326 109.616 68.0708C109.707 68.1233 109.788 68.1921 109.855 68.2738C109.93 68.3574 109.971 68.4671 109.968 68.5801C109.968 68.6621 109.953 68.7434 109.924 68.82C109.896 68.8936 109.861 68.9641 109.818 69.0303C109.78 69.0912 109.734 69.1469 109.682 69.1964C109.643 69.2347 109.601 69.2704 109.558 69.3034C109.492 69.2381 109.418 69.1823 109.338 69.1374C109.223 69.0665 109.1 69.0107 108.971 68.9713C108.819 68.9158 108.662 68.8739 108.502 68.8458C108.317 68.8092 108.127 68.7918 107.938 68.7941C107.785 68.7893 107.632 68.8055 107.484 68.8421C107.392 68.8634 107.306 68.9036 107.231 68.9602C107.179 69.0008 107.141 69.0561 107.121 69.1189C107.106 69.1718 107.097 69.2263 107.095 69.2813C107.096 69.3238 107.102 69.366 107.114 69.4068C107.133 69.4516 107.163 69.4909 107.202 69.5212C107.262 69.5646 107.329 69.5993 107.399 69.6245C107.513 69.6626 107.63 69.6934 107.748 69.7168L108.524 69.8718C108.775 69.9157 109.02 69.9837 109.257 70.0747C109.447 70.1446 109.624 70.2456 109.781 70.3737C109.922 70.4871 110.031 70.6343 110.1 70.8018C110.176 70.9915 110.212 71.1951 110.206 71.3996C110.216 71.6334 110.169 71.8661 110.069 72.0771C109.968 72.2882 109.818 72.4712 109.631 72.6101C109.151 72.9278 108.581 73.0805 108.008 73.0456C107.714 73.0464 107.421 73.0192 107.132 72.9644C106.895 72.9165 106.661 72.8536 106.432 72.7762C106.266 72.717 106.104 72.6492 105.945 72.5732C105.867 72.5349 105.792 72.4905 105.721 72.4403L106.219 71.466Z" fill="black"/>
<path d="M112.753 69.0117H111.58C111.408 69.0292 111.235 68.9774 111.1 68.8678C111.05 68.8114 111.012 68.7454 110.987 68.6738C110.963 68.6022 110.953 68.5263 110.958 68.4507C110.955 68.3252 110.975 68.2002 111.016 68.0817C111.039 68.0031 111.071 67.9275 111.111 67.8566H115.142C115.315 67.8399 115.487 67.8915 115.622 68.0005C115.673 68.0567 115.712 68.1226 115.736 68.1943C115.761 68.266 115.771 68.3419 115.765 68.4175C115.766 68.543 115.746 68.6676 115.707 68.7866C115.68 68.8637 115.648 68.9389 115.611 69.0117H113.962V72.9236H112.753V69.0117Z" fill="black"/>
<path d="M118.524 72.9127C118.627 72.6371 118.749 72.3161 118.891 71.9495C119.037 71.5804 119.195 71.1929 119.364 70.7833C119.532 70.3736 119.708 69.9529 119.891 69.5248C120.075 69.0967 120.258 68.6834 120.43 68.2848C120.497 68.1062 120.616 67.952 120.771 67.842C120.933 67.751 121.117 67.7075 121.302 67.7165C121.385 67.7149 121.467 67.7249 121.548 67.746C121.622 67.7616 121.694 67.7851 121.764 67.8161C121.818 67.8358 121.87 67.8618 121.918 67.8936L121.991 67.9379C122.099 68.1264 122.195 68.3211 122.28 68.521C122.403 68.7867 122.535 69.0857 122.676 69.4178C122.815 69.7499 122.962 70.0968 123.112 70.4622C123.263 70.8276 123.405 71.1708 123.534 71.4992C123.662 71.8277 123.779 72.1155 123.874 72.3702C123.97 72.6248 124.043 72.802 124.08 72.9127H122.757C122.706 72.77 122.647 72.6113 122.581 72.4366C122.519 72.2595 122.442 72.0676 122.35 71.8203H120.192C120.115 72.027 120.045 72.2152 119.983 72.3886C119.921 72.5621 119.858 72.7355 119.789 72.9127H118.524ZM121.91 70.6984C121.863 70.5655 121.808 70.4142 121.742 70.2518L121.559 69.7721C121.5 69.6171 121.445 69.4732 121.394 69.344C121.342 69.2148 121.302 69.1152 121.273 69.0524C121.243 69.1189 121.207 69.2185 121.156 69.344L120.994 69.7647C120.936 69.9197 120.877 70.0784 120.811 70.2408C120.745 70.4032 120.69 70.5545 120.639 70.6984H121.91Z" fill="black"/>
<path d="M125.08 68.4918C125.076 68.3833 125.095 68.2752 125.135 68.1744C125.169 68.096 125.223 68.0284 125.293 67.9788C125.356 67.9296 125.43 67.8955 125.509 67.8792C125.588 67.8583 125.669 67.8483 125.751 67.8496C125.892 67.8437 126.033 67.8676 126.165 67.9198C126.235 67.9474 126.301 67.9833 126.363 68.0268C126.385 68.0489 126.44 68.1227 126.524 68.2408C126.608 68.3589 126.714 68.5029 126.835 68.6763C126.956 68.8498 127.081 69.0454 127.22 69.2483L127.63 69.861C127.759 70.0602 127.883 70.23 127.997 70.4145C128.111 70.599 128.195 70.7208 128.257 70.8242V68.3958C128.248 68.3159 128.26 68.235 128.291 68.1608C128.322 68.0866 128.37 68.0214 128.433 67.9714C128.572 67.8839 128.735 67.8414 128.898 67.8496C129.022 67.8467 129.146 67.8642 129.265 67.9013L129.463 67.9677V72.913H128.312C128.268 72.8392 128.202 72.7284 128.107 72.5808C128.012 72.4332 127.909 72.2634 127.784 72.0789L127.396 71.4774C127.253 71.2633 127.117 71.053 126.986 70.8463C126.854 70.6396 126.722 70.444 126.597 70.2632C126.473 70.0824 126.374 69.9237 126.282 69.7982V72.913H125.076L125.08 68.4918Z" fill="black"/>
<path d="M131.002 68.5065C130.999 68.4111 131.014 68.316 131.046 68.226C131.07 68.1537 131.109 68.0872 131.159 68.0304C131.204 67.9796 131.259 67.9393 131.321 67.9123C131.379 67.8838 131.443 67.8651 131.507 67.857C131.641 67.8288 131.777 67.8103 131.914 67.8016C132.094 67.7832 132.354 67.7758 132.702 67.7758C133.12 67.7701 133.536 67.8273 133.937 67.9455C134.283 68.0448 134.605 68.2157 134.882 68.4474C135.143 68.6689 135.35 68.948 135.487 69.263C135.635 69.6128 135.707 69.9901 135.699 70.3702C135.706 70.7487 135.639 71.125 135.502 71.4773C135.372 71.7938 135.17 72.0746 134.912 72.2966C134.625 72.533 134.293 72.7076 133.937 72.8096C133.497 72.9347 133.042 72.9943 132.585 72.9867C132.031 72.9867 131.636 72.9867 131.394 72.9535L131.002 72.9129V68.5065ZM132.226 71.8279H132.42C132.518 71.8279 132.64 71.8279 132.786 71.8279C133.011 71.8298 133.236 71.8012 133.453 71.743C133.642 71.6908 133.817 71.6004 133.97 71.4773C134.116 71.3524 134.23 71.1943 134.303 71.016C134.385 70.8044 134.425 70.5788 134.421 70.3517C134.422 70.1485 134.39 69.9464 134.325 69.7539C134.264 69.5771 134.165 69.416 134.036 69.2815C133.897 69.1425 133.729 69.0366 133.545 68.9715C133.32 68.8933 133.083 68.8559 132.845 68.8608C132.654 68.8608 132.508 68.8608 132.405 68.8608C132.347 68.8555 132.288 68.8555 132.229 68.8608L132.226 71.8279Z" fill="black"/>
<path d="M139.188 68.5504C139.188 68.0818 139.43 67.8493 139.921 67.8493H142.427C142.6 67.8326 142.772 67.8842 142.907 67.9932C142.958 68.0494 142.997 68.1153 143.021 68.187C143.046 68.2586 143.056 68.3346 143.05 68.4102C143.051 68.5356 143.031 68.6603 142.992 68.7793C142.967 68.857 142.935 68.9324 142.896 69.0044H140.419V69.7941H142.332C142.504 69.7775 142.677 69.8291 142.812 69.9381C142.863 69.9942 142.901 70.0602 142.926 70.1318C142.95 70.2035 142.96 70.2795 142.955 70.3551C142.957 70.4806 142.937 70.6056 142.896 70.7241C142.871 70.8019 142.839 70.8772 142.801 70.9493H140.419V71.7685H143.014V72.92H139.188V68.5504Z" fill="black"/>
<path d="M143.919 72.9127C144.021 72.6371 144.143 72.3161 144.285 71.9495C144.432 71.5804 144.589 71.1929 144.758 70.7833C144.926 70.3736 145.102 69.9529 145.285 69.5248C145.469 69.0967 145.652 68.6834 145.824 68.2848C145.891 68.1062 146.01 67.952 146.165 67.842C146.327 67.751 146.511 67.7075 146.696 67.7165C146.779 67.7152 146.862 67.7251 146.942 67.746C147.016 67.7616 147.089 67.7851 147.158 67.8161C147.212 67.8358 147.264 67.8618 147.312 67.8936L147.385 67.9379C147.493 68.1264 147.59 68.3211 147.675 68.521C147.796 68.7867 147.927 69.0857 148.067 69.4178C148.206 69.7499 148.356 70.0968 148.506 70.4622C148.657 70.8276 148.8 71.1708 148.928 71.4992C149.056 71.8277 149.173 72.1155 149.269 72.3702C149.364 72.6248 149.437 72.802 149.474 72.9127H148.125C148.074 72.77 148.015 72.6113 147.949 72.4366C147.887 72.2595 147.81 72.0676 147.715 71.8203H145.582C145.505 72.027 145.436 72.2152 145.373 72.3886C145.311 72.5621 145.249 72.7355 145.179 72.9127H143.919ZM147.305 70.6984C147.257 70.5655 147.202 70.4142 147.136 70.2518L146.953 69.7721C146.894 69.6171 146.839 69.4732 146.788 69.344C146.737 69.2148 146.696 69.1152 146.667 69.0524C146.638 69.1189 146.601 69.2185 146.55 69.344L146.388 69.7647C146.33 69.9197 146.271 70.0784 146.205 70.2408L146.029 70.6984H147.305Z" fill="black"/>
<path d="M150.764 71.4661C150.827 71.5094 150.893 71.5476 150.962 71.5805C151.087 71.6417 151.217 71.6935 151.35 71.7355C151.528 71.7919 151.709 71.8388 151.892 71.8757C152.112 71.9185 152.335 71.9395 152.559 71.9385C152.717 71.9413 152.874 71.9277 153.028 71.8979C153.124 71.8778 153.216 71.8417 153.299 71.7909C153.355 71.7537 153.398 71.7011 153.424 71.6396C153.443 71.5836 153.453 71.5251 153.453 71.4661C153.453 71.4097 153.44 71.3542 153.416 71.3036C153.391 71.2531 153.355 71.2089 153.31 71.1746C153.149 71.074 152.968 71.0122 152.779 70.9937L152.046 70.8609C151.848 70.8243 151.652 70.775 151.46 70.7132C151.273 70.6518 151.096 70.5622 150.936 70.4475C150.784 70.3312 150.659 70.1825 150.57 70.0121C150.465 69.8094 150.415 69.5832 150.423 69.3552C150.421 69.136 150.463 68.9187 150.548 68.7167C150.627 68.5162 150.752 68.3377 150.914 68.1963C151.104 68.0365 151.325 67.9172 151.563 67.8457C151.86 67.753 152.171 67.7094 152.482 67.7166C152.705 67.7134 152.928 67.727 153.149 67.7572C153.315 67.7782 153.479 67.8115 153.64 67.8568C153.754 67.8869 153.866 67.9264 153.974 67.9749C154.038 68.0022 154.101 68.0342 154.161 68.0709C154.25 68.1253 154.331 68.1938 154.399 68.2738C154.473 68.3584 154.513 68.4674 154.512 68.5802C154.512 68.6621 154.497 68.7434 154.468 68.82C154.439 68.893 154.403 68.9634 154.362 69.0304C154.322 69.0895 154.276 69.1451 154.227 69.1965L154.102 69.3035C154.035 69.2399 153.961 69.1842 153.882 69.1374C153.767 69.0681 153.644 69.0123 153.516 68.9713C153.363 68.9164 153.206 68.8744 153.047 68.8459C152.861 68.8094 152.672 68.7921 152.482 68.7942C152.329 68.7892 152.177 68.8053 152.028 68.8422C151.936 68.8619 151.85 68.9023 151.775 68.9603C151.721 68.9988 151.683 69.0549 151.665 69.119C151.648 69.1714 151.64 69.2262 151.64 69.2813C151.638 69.3239 151.645 69.3664 151.658 69.4068C151.675 69.4532 151.705 69.4931 151.746 69.5212C151.806 69.5661 151.873 69.601 151.944 69.6246C152.058 69.6631 152.174 69.6939 152.292 69.7168L153.069 69.8718C153.319 69.9168 153.564 69.9848 153.802 70.0748C153.991 70.1463 154.167 70.2472 154.326 70.3737C154.464 70.4892 154.573 70.6359 154.644 70.8018C154.719 70.992 154.755 71.1952 154.751 71.3997C154.76 71.6334 154.712 71.8658 154.612 72.0768C154.512 72.2877 154.362 72.4708 154.175 72.6101C153.694 72.9266 153.125 73.0793 152.552 73.0456C152.258 73.0468 151.965 73.0196 151.676 72.9644C151.439 72.9175 151.205 72.8546 150.976 72.7762C150.81 72.7177 150.648 72.6499 150.489 72.5732C150.411 72.5359 150.336 72.4915 150.265 72.4404L150.764 71.4661Z" fill="black"/>
<path d="M157.308 71.0456C157.195 70.9053 157.074 70.7577 156.942 70.5953C156.81 70.4329 156.693 70.2743 156.575 70.1193L156.249 69.6875C156.147 69.5546 156.066 69.4439 156.004 69.3553C155.942 69.2668 155.901 69.2077 155.839 69.1265C155.778 69.0423 155.722 68.9548 155.67 68.8645C155.621 68.7781 155.578 68.688 155.542 68.5951C155.509 68.5182 155.492 68.4353 155.491 68.3515C155.487 68.2812 155.5 68.211 155.529 68.1467C155.557 68.0825 155.601 68.0262 155.656 67.9825C155.772 67.8992 155.912 67.8564 156.055 67.8607C156.173 67.8578 156.29 67.874 156.403 67.9087C156.465 67.9261 156.525 67.9496 156.583 67.9788L156.869 68.4143C156.986 68.5914 157.107 68.7833 157.235 68.9641C157.363 69.145 157.488 69.3332 157.601 69.514C157.715 69.6949 157.829 69.8388 157.917 69.9569C158.005 69.8388 158.096 69.7096 158.191 69.5878C158.287 69.466 158.382 69.3073 158.477 69.1597L158.756 68.7243C158.847 68.5803 158.928 68.4475 159.009 68.3257C159.038 68.2814 159.075 68.2297 159.115 68.1781C159.158 68.1208 159.21 68.0709 159.269 68.0304C159.335 67.9826 159.408 67.9453 159.485 67.9197C159.579 67.8881 159.679 67.8731 159.778 67.8754C159.862 67.8751 159.946 67.8863 160.027 67.9087C160.099 67.9288 160.169 67.9547 160.236 67.9862C160.289 68.0108 160.339 68.0404 160.386 68.0747L160.467 68.1412C160.427 68.2223 160.364 68.3368 160.284 68.477C160.203 68.6172 160.101 68.7722 159.987 68.9494L159.621 69.5066L159.225 70.086C159.093 70.2743 158.965 70.4551 158.84 70.6248C158.715 70.7946 158.606 70.9422 158.514 71.0714V72.9388H157.29L157.308 71.0456Z" fill="black"/>
<path d="M163.67 68.3957C163.661 68.3158 163.673 68.2349 163.703 68.1607C163.734 68.0865 163.783 68.0213 163.846 67.9713C163.984 67.8843 164.145 67.8418 164.307 67.8495C164.431 67.8477 164.555 67.8651 164.674 67.9012L164.883 67.9676V70.551C164.88 70.748 164.899 70.9447 164.938 71.1377C164.967 71.2922 165.029 71.4383 165.121 71.5658C165.208 71.6823 165.324 71.7728 165.458 71.8279C165.797 71.946 166.166 71.946 166.506 71.8279C166.639 71.7719 166.756 71.6815 166.843 71.5658C166.933 71.4375 166.995 71.2917 167.026 71.1377C167.065 70.9447 167.084 70.748 167.081 70.551V68.4031C167.073 68.3232 167.084 68.2423 167.115 68.1681C167.146 68.0939 167.195 68.0287 167.257 67.9787C167.395 67.8917 167.556 67.8492 167.719 67.8569C167.843 67.855 167.967 67.8725 168.085 67.9086L168.294 67.975V70.6764C168.331 71.3166 168.115 71.9454 167.693 72.4257C167.209 72.8309 166.6 73.0528 165.971 73.0528C165.342 73.0528 164.732 72.8309 164.249 72.4257C164.039 72.1883 163.878 71.9116 163.775 71.6114C163.672 71.3112 163.629 70.9935 163.648 70.6764L163.67 68.3957Z" fill="black"/>
<path d="M169.8 72.9129V68.3957C169.792 68.3158 169.803 68.2349 169.834 68.1607C169.865 68.0865 169.914 68.0213 169.976 67.9713C170.114 67.8843 170.275 67.8418 170.438 67.8495C170.562 67.8474 170.686 67.8649 170.804 67.9012L171.013 67.9676V72.9129H169.8Z" fill="black"/>
<path d="M176.052 69.0117H174.879C174.707 69.0284 174.534 68.9767 174.399 68.8678C174.349 68.8114 174.31 68.7454 174.286 68.6738C174.261 68.6022 174.251 68.5263 174.256 68.4507C174.254 68.3252 174.274 68.2002 174.315 68.0817C174.339 68.0037 174.371 67.9283 174.41 67.8566H178.441C178.613 67.8399 178.785 67.8915 178.921 68.0005C178.971 68.0567 179.01 68.1226 179.035 68.1943C179.059 68.266 179.069 68.3419 179.064 68.4175C179.066 68.5431 179.046 68.6681 179.005 68.7866C178.98 68.8643 178.948 68.9397 178.91 69.0117H177.268V72.9236H176.044L176.052 69.0117Z" fill="black"/>
<path d="M179.727 70.3809C179.724 70.0207 179.795 69.6638 179.936 69.3328C180.069 69.0148 180.265 68.7273 180.511 68.4877C180.76 68.2439 181.054 68.052 181.376 67.923C181.878 67.7151 182.428 67.6578 182.961 67.758C183.494 67.8582 183.987 68.1116 184.381 68.4877C184.759 68.8652 185.016 69.3485 185.119 69.8748C185.221 70.4012 185.165 70.9465 184.956 71.44C184.821 71.7567 184.625 72.0438 184.381 72.2852C183.86 72.786 183.166 73.0627 182.446 73.0565C182.079 73.0589 181.716 72.9887 181.376 72.8498C181.055 72.7181 180.762 72.5265 180.511 72.2852C180.261 72.0391 180.062 71.7445 179.927 71.4192C179.792 71.0938 179.724 70.7444 179.727 70.3919V70.3809ZM182.446 71.894C182.645 71.8949 182.841 71.8561 183.025 71.7796C183.196 71.7047 183.351 71.5955 183.479 71.4585C183.605 71.3171 183.706 71.1547 183.776 70.9787C183.918 70.5917 183.918 70.1664 183.776 69.7793C183.708 69.602 183.607 69.4392 183.479 69.2996C183.352 69.1625 183.197 69.0544 183.025 68.9822C182.654 68.8296 182.238 68.8296 181.867 68.9822C181.694 69.0534 181.539 69.1618 181.413 69.2996C181.282 69.4373 181.181 69.6006 181.116 69.7793C180.974 70.1664 180.974 70.5917 181.116 70.9787C181.184 71.1561 181.284 71.3189 181.413 71.4585C181.54 71.5963 181.695 71.7056 181.867 71.7796C182.05 71.8568 182.247 71.8958 182.446 71.894Z" fill="black"/>
<path d="M186.173 70.3809C186.17 70.0207 186.241 69.6638 186.382 69.3328C186.515 69.0148 186.71 68.7273 186.957 68.4877C187.205 68.2439 187.499 68.052 187.822 67.923C188.323 67.7151 188.874 67.6578 189.407 67.758C189.94 67.8582 190.433 68.1116 190.826 68.4877C191.205 68.8652 191.462 69.3485 191.564 69.8748C191.667 70.4012 191.61 70.9465 191.402 71.44C191.266 71.7567 191.071 72.0438 190.826 72.2852C190.306 72.786 189.612 73.0627 188.892 73.0565C188.525 73.0589 188.161 72.9887 187.822 72.8498C187.501 72.7181 187.207 72.5265 186.957 72.2852C186.706 72.0391 186.508 71.7445 186.373 71.4192C186.238 71.0938 186.17 70.7444 186.173 70.3919V70.3809ZM188.892 71.894C189.09 71.8949 189.287 71.8561 189.471 71.7796C189.642 71.7047 189.797 71.5955 189.925 71.4585C190.051 71.3171 190.151 71.1547 190.222 70.9787C190.363 70.5917 190.363 70.1664 190.222 69.7793C190.154 69.602 190.053 69.4392 189.925 69.2996C189.798 69.1625 189.643 69.0544 189.471 68.9822C189.099 68.8296 188.684 68.8296 188.313 68.9822C188.14 69.0534 187.985 69.1618 187.858 69.2996C187.728 69.4373 187.627 69.6006 187.561 69.7793C187.42 70.1664 187.42 70.5917 187.561 70.9787C187.629 71.1561 187.73 71.3189 187.858 71.4585C187.986 71.5963 188.141 71.7056 188.313 71.7796C188.496 71.8568 188.693 71.8958 188.892 71.894Z" fill="black"/>
<path d="M192.875 72.9129V68.3957C192.866 68.3158 192.878 68.2349 192.909 68.1607C192.939 68.0865 192.988 68.0213 193.051 67.9713C193.189 67.8843 193.35 67.8418 193.512 67.8495C193.636 67.8477 193.76 67.8651 193.879 67.9012L194.088 67.9676V71.7614H196.411V72.9129H192.875Z" fill="black"/>
<path d="M197.408 72.9126V68.3955C197.399 68.3155 197.411 68.2347 197.441 68.1605C197.472 68.0863 197.521 68.0211 197.584 67.9711C197.722 67.884 197.883 67.8416 198.045 67.8493C198.169 67.8472 198.293 67.8646 198.412 67.901L198.621 67.9674V69.8458C198.734 69.7167 198.859 69.5764 198.987 69.4288L199.408 68.9749L199.826 68.5394C199.962 68.4029 200.086 68.2848 200.193 68.1704C200.287 68.0848 200.39 68.0093 200.5 67.9452C200.634 67.8684 200.786 67.8313 200.94 67.8382C201.044 67.8357 201.148 67.8494 201.248 67.8788C201.331 67.9013 201.411 67.9335 201.486 67.9748C201.545 68.0063 201.601 68.0447 201.651 68.0892C201.686 68.1173 201.718 68.1495 201.746 68.1851L201.578 68.3549L201.266 68.6686L200.874 69.0708L200.456 69.4989C200.321 69.6392 200.193 69.7683 200.09 69.8938C199.987 70.0193 199.885 70.1152 199.815 70.1964C200.02 70.4179 200.215 70.6356 200.401 70.8496C200.588 71.0637 200.768 71.2814 200.94 71.4992C201.112 71.7169 201.285 71.942 201.453 72.1708C201.622 72.3996 201.794 72.6432 201.97 72.9089H200.467C200.339 72.7355 200.2 72.5399 200.042 72.348C199.885 72.1561 199.727 71.9494 199.562 71.7501C199.397 71.5508 199.233 71.3589 199.068 71.1781C198.903 70.9973 198.749 70.8349 198.613 70.6983V72.9126H197.408Z" fill="black"/>
<path d="M202.978 72.9129V68.3957C202.969 68.3158 202.98 68.2349 203.011 68.1607C203.042 68.0865 203.091 68.0213 203.153 67.9713C203.291 67.8843 203.453 67.8418 203.615 67.8495C203.739 67.8474 203.863 67.8649 203.982 67.9012L204.19 67.9676V72.9129H202.978Z" fill="black"/>
<path d="M206.986 69.0117H205.814C205.641 69.0284 205.469 68.9767 205.334 68.8678C205.284 68.8114 205.245 68.7454 205.22 68.6738C205.196 68.6022 205.186 68.5263 205.191 68.4507C205.188 68.3252 205.208 68.2002 205.249 68.0817C205.274 68.0037 205.306 67.9283 205.345 67.8566H209.376C209.548 67.8399 209.72 67.8915 209.856 68.0005C209.906 68.0567 209.945 68.1226 209.969 68.1943C209.994 68.266 210.004 68.3419 209.998 68.4175C210.001 68.5431 209.981 68.6681 209.94 68.7866C209.915 68.8643 209.883 68.9397 209.845 69.0117H208.21V72.9236H206.986V69.0117Z" fill="black"/>
<path d="M104.068 44.053C102.09 42.5571 99.317 41.573 95.7503 41.1006L89.1764 40.2592C87.4126 40.0402 86.0593 39.6392 85.1163 39.0561C84.6694 38.8013 84.3007 38.4275 84.0506 37.9758C83.8005 37.5241 83.6786 37.0118 83.6982 36.4949C83.6982 33.8525 86.19 32.5326 91.1735 32.535C94.0067 32.4954 96.8241 32.9679 99.4917 33.93C100.31 34.2196 101.098 34.5904 101.844 35.0372C102.243 35.2742 102.621 35.5458 102.973 35.8491C103.182 35.7534 103.377 35.6292 103.552 35.48C103.827 35.2668 104.073 35.0187 104.285 34.7419C104.533 34.4174 104.749 34.0688 104.93 33.7012C105.131 33.2765 105.23 32.81 105.219 32.3394C105.219 30.7378 103.984 29.4387 101.514 28.4423C99.0446 27.4459 95.5744 26.9538 91.1039 26.9661C88.8105 26.9191 86.5217 27.1924 84.3028 27.778C82.6536 28.2084 81.108 28.9704 79.759 30.0181C78.6613 30.889 77.7878 32.013 77.2122 33.2953C76.6733 34.5328 76.3986 35.8706 76.406 37.2219C76.3688 38.6426 76.6677 40.0518 77.2782 41.3331C77.85 42.4717 78.6767 43.4609 79.693 44.2228C80.8161 45.0455 82.0702 45.6695 83.4014 46.068C84.945 46.5426 86.5325 46.8579 88.1394 47.0091L93.1669 47.6069C95.4877 47.853 97.0988 48.2958 98.0003 48.9355C98.4417 49.2403 98.7979 49.6543 99.0347 50.1377C99.2715 50.6211 99.3809 51.1577 99.3524 51.696C99.3524 53.1254 98.644 54.1317 97.2271 54.7148C95.8102 55.2979 93.9841 55.5894 91.7488 55.5894C90.1528 55.599 88.5589 55.4693 86.9851 55.2019C85.6637 54.9712 84.3588 54.6531 83.0789 54.2498C82.1044 53.943 81.1466 53.5845 80.2097 53.1759C79.6485 52.9441 79.1089 52.6626 78.5974 52.3344L75.8271 57.3313C76.3529 57.7106 76.9137 58.0381 77.5017 58.3093C78.5975 58.8338 79.729 59.279 80.8876 59.6416C82.504 60.1492 84.1516 60.5499 85.8198 60.841C87.9047 61.2045 90.0178 61.3787 92.1336 61.3613C96.9486 61.3613 100.634 60.3871 103.189 58.4385C104.412 57.5544 105.401 56.382 106.07 55.0239C106.739 53.6658 107.067 52.1633 107.026 50.6479C107.026 47.7472 106.04 45.5489 104.068 44.053Z" fill="black"/>
<path d="M119.027 12.5995C117.781 12.5995 116.828 12.8836 116.124 13.4446C115.421 14.0056 115.095 14.8728 115.095 16.0279V60.4428H122.442V13.3154C122.226 13.2269 121.797 13.0866 121.152 12.8947C120.462 12.6918 119.745 12.5924 119.027 12.5995Z" fill="black"/>
<path d="M135.993 13.2489C135.408 13.243 134.829 13.3544 134.288 13.5766C133.747 13.7988 133.255 14.1274 132.842 14.5432C132.428 14.9589 132.101 15.4535 131.88 15.998C131.658 16.5425 131.546 17.1259 131.551 17.7144C131.534 18.3133 131.637 18.9096 131.852 19.468C132.068 20.0263 132.393 20.5354 132.808 20.9651C133.222 21.3949 133.718 21.7365 134.266 21.9697C134.814 22.203 135.403 22.3232 135.998 22.3232C136.593 22.3232 137.182 22.203 137.73 21.9697C138.278 21.7365 138.774 21.3949 139.189 20.9651C139.603 20.5354 139.928 20.0263 140.144 19.468C140.36 18.9096 140.462 18.3133 140.445 17.7144C140.45 17.125 140.338 16.5406 140.116 15.9954C139.893 15.4501 139.565 14.9551 139.151 14.5392C138.736 14.1233 138.243 13.7949 137.701 13.5734C137.159 13.3518 136.578 13.2415 135.993 13.2489Z" fill="black"/>
<path d="M136.249 27.856C135.003 27.856 134.036 28.1266 133.347 28.6679C132.658 29.2091 132.315 30.085 132.317 31.2955V60.4502H139.664V28.5719C139.448 28.4833 139.019 28.3431 138.374 28.1475C137.684 27.9459 136.968 27.8476 136.249 27.856Z" fill="black"/>
<path d="M176.206 30.631C174.736 29.3988 173.038 28.4719 171.211 27.9038C169.169 27.2529 167.039 26.9278 164.897 26.9406C162.766 26.9182 160.645 27.2358 158.613 27.8816C156.794 28.461 155.105 29.3952 153.644 30.631C152.243 31.8203 151.117 33.3042 150.346 34.9784C149.527 36.8035 149.121 38.7886 149.155 40.7909V60.4575H156.502V42.6583C156.502 39.7059 157.201 37.4658 158.598 35.9379C159.996 34.4101 162.095 33.6425 164.897 33.6351C167.646 33.6351 169.729 34.4027 171.149 35.9379C172.568 37.4732 173.278 39.7133 173.278 42.6583V60.4427H180.625V40.7761C180.658 38.777 180.262 36.7943 179.463 34.9636C178.712 33.2926 177.599 31.8122 176.206 30.631Z" fill="black"/>
<path d="M207.628 53.1097C206.905 53.5786 206.126 53.9508 205.308 54.2168C204.19 54.6122 203.012 54.8095 201.827 54.7999C201.078 54.8033 200.331 54.7166 199.603 54.5416C198.92 54.381 198.282 54.0697 197.734 53.6301C197.177 53.1734 196.744 52.5816 196.477 51.9103C196.147 51.0304 195.994 50.0934 196.026 49.1535V34.6905H208.401C208.598 34.2569 208.771 33.812 208.918 33.3583C209.137 32.6934 209.245 31.9961 209.236 31.2953C209.236 30.1882 208.947 29.3172 208.364 28.7341C207.782 28.151 206.785 27.8558 205.367 27.8558H196.045V19.3677C195.828 19.2791 195.389 19.1389 194.722 18.9433C194.019 18.7452 193.293 18.6471 192.563 18.6517C191.554 18.5945 190.555 18.8804 189.727 19.4636C189.038 20.0061 188.697 20.8808 188.697 22.0912V50.6555C188.697 53.8539 189.664 56.4373 191.596 58.4055C193.528 60.3738 196.387 61.3579 200.171 61.3579C201.401 61.3622 202.629 61.2385 203.835 60.9889C204.866 60.775 205.879 60.4814 206.865 60.1105C207.662 59.8161 208.429 59.4454 209.156 59.0034C209.776 58.6171 210.265 58.2936 210.621 58.0328L207.628 53.1097Z" fill="black"/>
<defs>
<radialGradient id="paint0_radial_1014_7487" cx="0" cy="0" r="1" gradientUnits="userSpaceOnUse" gradientTransform="translate(25.8302 24.1136) scale(86.2046 86.8185)">
<stop offset="0.15" stop-color="#FBFCFF"/>
<stop offset="0.53" stop-color="#F8F9FD"/>
<stop offset="0.82" stop-color="#EEF0F8"/>
<stop offset="1" stop-color="#E4E6F3"/>
</radialGradient>
</defs>
</svg>
