<svg xmlns="http://www.w3.org/2000/svg" viewBox="0 0 512 512"><!--!Font Awesome Free 6.5.2 by @fontawesome - https://fontawesome.com License - https://fontawesome.com/license/free Copyright 2024 Fonticons, Inc.--><path d="M256.5 8c66.3 .1 126.4 26.2 170.9 68.7l35.7-35.7C478.1 25.9 504 36.6 504 57.9V192c0 13.3-10.7 24-24 24H345.9c-21.4 0-32.1-25.9-17-41l41.8-41.8c-30.9-28.9-70.8-44.9-113.2-45.3-92.4-.8-170.3 74-169.5 169.4C88.8 348 162.2 424 256 424c41.1 0 80-14.7 110.6-41.6 4.7-4.2 11.9-3.9 16.4 .6l39.7 39.7c4.9 4.9 4.6 12.8-.5 17.4C378.2 479.8 319.9 504 256 504 119 504 8 393 8 256 8 119.2 119.6 7.8 256.5 8z"/></svg>
