<svg width="140" height="140" viewBox="0 0 140 140" fill="none" xmlns="http://www.w3.org/2000/svg">
<g clip-path="url(#clip0_4_344)">
<path d="M53.9168 80.7527L92.903 53.7319C92.903 53.7319 94.6624 52.7212 94.6624 51.1262C94.6624 49.0021 92.4375 48.3112 92.4375 48.3112L70.9898 39.8228C70.2245 39.5227 69.1712 40.3637 70.1574 41.4296L77.258 48.5362C77.258 48.5362 79.2304 50.4747 79.2304 51.746C79.2304 53.0173 78.0193 54.1504 78.0193 54.1504L52.1811 79.1182C51.2619 80.0065 52.5045 81.6173 53.9168 80.7527Z" fill="#2379F4"/>
<path d="M85.4079 12.2492L46.4217 39.2661C46.4217 39.2661 44.6624 40.2768 44.6624 41.8718C44.6624 43.9959 46.8872 44.6868 46.8872 44.6868L68.335 53.1792C69.1002 53.4753 70.1574 52.6343 69.1673 51.5723L62.0667 44.442C62.0667 44.442 60.0943 42.5075 60.0943 41.2322C60.0943 39.957 61.3054 38.8278 61.3054 38.8278L87.1279 13.8798C88.0628 12.9915 86.8241 11.3807 85.4079 12.2492Z" fill="#2379F4"/>
<path d="M40.2487 114.642C38.7615 113.517 36.6774 112.778 33.9967 112.422L29.0556 111.787C27.7299 111.623 26.7127 111.321 26.004 110.883C25.6681 110.691 25.391 110.411 25.203 110.071C25.015 109.732 24.9233 109.346 24.9381 108.958C24.9381 106.972 26.8109 105.98 30.5567 105.982C32.6862 105.952 34.8037 106.307 36.8087 107.03C37.4241 107.248 38.0164 107.527 38.5769 107.862C38.8766 108.04 39.1596 108.244 39.4225 108.473C39.5808 108.402 39.7282 108.308 39.8604 108.195C40.0663 108.034 40.2513 107.848 40.4112 107.64C40.5982 107.397 40.7606 107.135 40.896 106.858C41.0476 106.539 41.1222 106.188 41.1136 105.835C41.1136 104.631 40.1854 103.654 38.3291 102.906C36.4727 102.157 33.8645 101.787 30.5043 101.796C28.7806 101.761 27.0603 101.966 25.3925 102.406C24.153 102.73 22.9913 103.302 21.9773 104.09C21.1473 104.743 20.4859 105.588 20.0494 106.553C19.6443 107.483 19.4378 108.489 19.4434 109.504C19.4138 110.575 19.6385 111.637 20.0989 112.603C20.5287 113.459 21.1501 114.202 21.914 114.775C22.7581 115.393 23.7007 115.862 24.7012 116.162C25.8611 116.52 27.0544 116.757 28.2624 116.869L32.0412 117.31C33.7855 117.495 34.9965 117.828 35.674 118.309C36.0058 118.538 36.2735 118.849 36.4515 119.212C36.6294 119.575 36.7117 119.979 36.6903 120.383C36.6903 121.458 36.1578 122.214 35.0929 122.652C34.0279 123.091 32.6508 123.31 30.9615 123.31C29.7619 123.317 28.564 123.219 27.3811 123.019C26.3899 122.848 25.4109 122.612 24.4506 122.311C23.7181 122.081 22.9983 121.811 22.294 121.504C21.8717 121.331 21.466 121.119 21.0822 120.872L19 124.627C19.3953 124.911 19.8168 125.157 20.2587 125.36C21.0823 125.754 21.9327 126.088 22.8036 126.361C24.0176 126.742 25.255 127.043 26.508 127.262C28.0759 127.536 29.6651 127.666 31.2562 127.654C34.8716 127.654 37.6414 126.921 39.5657 125.457C40.485 124.792 41.2285 123.911 41.7312 122.89C42.2339 121.87 42.4805 120.74 42.4493 119.601C42.4677 117.419 41.7342 115.766 40.2487 114.642Z" fill="#151D21"/>
<path d="M51.4887 91.0003C50.5523 91.0003 49.8362 91.2139 49.3074 91.6355C48.7786 92.0571 48.5334 92.7089 48.5334 93.5771V126.963H54.0556V91.5384C53.8931 91.4746 53.5709 91.3664 53.0861 91.2222C52.5674 91.0697 52.0291 90.9949 51.4887 91.0003Z" fill="#151D21"/>
<path d="M64.249 91.4885C63.8084 91.4833 63.3713 91.5668 62.9633 91.7342C62.5553 91.9016 62.1847 92.1494 61.8731 92.4632C61.5616 92.7769 61.3155 93.1502 61.1493 93.5611C60.9831 93.972 60.9002 94.4122 60.9054 94.8559C60.9081 95.4085 61.0459 95.9519 61.3066 96.4382C61.5672 96.9245 61.9426 97.3388 62.3998 97.6444C62.857 97.95 63.3818 98.1376 63.928 98.1906C64.4742 98.2437 65.0249 98.1605 65.5317 97.9485C66.0384 97.7365 66.4855 97.4022 66.8336 96.975C67.1817 96.5478 67.4201 96.0409 67.5276 95.499C67.6352 94.9571 67.6087 94.3969 67.4505 93.8677C67.2923 93.3386 67.0072 92.8568 66.6203 92.4648C66.3122 92.1477 65.9428 91.8975 65.535 91.7296C65.1271 91.5617 64.6895 91.4796 64.249 91.4885Z" fill="#151D21"/>
<path d="M64.4335 102.473C63.497 102.473 62.7809 102.678 62.2521 103.083C61.7233 103.488 61.4865 104.137 61.4865 105.052V126.966H67.0087V103.005C66.8462 102.939 66.5239 102.833 66.0392 102.686C65.517 102.537 64.9761 102.465 64.4335 102.473Z" fill="#151D21"/>
<path d="M94.4736 104.542C93.3689 103.616 92.0931 102.919 90.7197 102.492C89.1832 102.008 87.5811 101.77 85.9714 101.785C84.3697 101.768 82.7755 102.007 81.2479 102.492C79.8828 102.923 78.6148 103.619 77.516 104.542C76.4628 105.436 75.6167 106.551 75.0372 107.81C74.4244 109.183 74.1215 110.676 74.1503 112.181V126.966H79.6725V113.596C79.6725 111.377 80.1976 109.693 81.2479 108.545C82.2982 107.396 83.8727 106.819 85.9714 106.814C88.037 106.814 89.6033 107.391 90.6701 108.545C91.7369 109.699 92.2703 111.382 92.2703 113.596V126.966H97.7925V112.181C97.822 110.679 97.5289 109.187 96.9331 107.81C96.3668 106.549 95.5263 105.432 94.4736 104.542Z" fill="#151D21"/>
<path d="M118.091 121.449C117.548 121.801 116.962 122.081 116.348 122.281C115.508 122.578 114.624 122.728 113.734 122.722C113.171 122.724 112.61 122.659 112.062 122.528C111.55 122.407 111.07 122.174 110.657 121.845C110.239 121.5 109.914 121.055 109.713 120.55C109.465 119.888 109.35 119.184 109.374 118.478V107.59H118.675C118.823 107.265 118.953 106.932 119.063 106.592C119.228 106.096 119.31 105.576 119.306 105.052C119.306 104.22 119.088 103.566 118.65 103.127C118.212 102.689 117.46 102.473 116.394 102.473H109.371V96.093C109.209 96.0264 108.878 95.921 108.377 95.774C107.849 95.6251 107.303 95.5514 106.755 95.5549C105.996 95.5118 105.245 95.7268 104.623 96.1651C104.094 96.5562 103.846 97.2025 103.846 98.1262V119.593C103.846 121.997 104.573 123.938 106.028 125.418C107.482 126.897 109.63 127.637 112.472 127.637C113.398 127.64 114.32 127.547 115.227 127.36C116.001 127.198 116.763 126.979 117.504 126.702C118.102 126.479 118.677 126.201 119.223 125.87C119.691 125.576 120.058 125.332 120.325 125.138L118.091 121.449Z" fill="#151D21"/>
</g>
<defs>
<clipPath id="clip0_4_344">
<rect width="101.325" height="115.654" fill="white" transform="translate(19 12)"/>
</clipPath>
</defs>
</svg>
