<?xml version='1.0' encoding='UTF-8'?>
<svg xmlns="http://www.w3.org/2000/svg" xmlns:xlink="http://www.w3.org/1999/xlink" width="552" height="690" viewBox="250 69 552 690" version="1.1" id="SVGRoot" xml:space="preserve">
  <defs id="defs2">
    <linearGradient id="linearGradient11">
      <stop style="stop-color:#ffffff;stop-opacity:0.49277884;" offset="0" id="stop10" />
      <stop style="stop-color:#ffffff;stop-opacity:1;" offset="1" id="stop11" />
    </linearGradient>
    <linearGradient id="linearGradient44">
      <stop style="stop-color:#2379f4;stop-opacity:1;" offset="0" id="stop44" />
      <stop style="stop-color:#2379f4;stop-opacity:0;" offset="1" id="stop45" />
    </linearGradient>
    <linearGradient id="linearGradient37">
      <stop style="stop-color:#2379f4;stop-opacity:1;" offset="0" id="stop37" />
      <stop style="stop-color:#2379f4;stop-opacity:0;" offset="1" id="stop38" />
    </linearGradient>
    <linearGradient id="linearGradient35">
      <stop style="stop-color:#2379f4;stop-opacity:1;" offset="0" id="stop35" />
      <stop style="stop-color:#2379f4;stop-opacity:0;" offset="1" id="stop36" />
    </linearGradient>
    <radialGradient xlink:href="#linearGradient44" id="radialGradient39" gradientUnits="userSpaceOnUse" gradientTransform="matrix(3.3516904,0,0,2.7730846,-3863.0685,-2486.8568)" cx="1078.2375" cy="519.46472" fx="1078.2375" fy="519.46472" r="429.92499" />
    <linearGradient xlink:href="#linearGradient35" id="linearGradient39" gradientUnits="userSpaceOnUse" gradientTransform="translate(-652.07638,-1248.8871)" x1="444.00867" y1="406.10669" x2="1618.7083" y2="406.10669" />
    <radialGradient xlink:href="#linearGradient11" id="radialGradient40" gradientUnits="userSpaceOnUse" gradientTransform="matrix(1,0,0,0.73283761,-652.07635,-678.8808)" cx="444.00867" cy="330.50589" fx="444.00867" fy="330.50589" r="657.10461" />
    <linearGradient xlink:href="#linearGradient37" id="linearGradient40" gradientUnits="userSpaceOnUse" gradientTransform="translate(-652.07635,-1248.8871)" x1="371.49533" y1="861.83008" x2="38.395794" y2="1054.1451" />
    <radialGradient xlink:href="#linearGradient44" id="radialGradient41" gradientUnits="userSpaceOnUse" gradientTransform="matrix(0.54581075,0.21644229,-0.14661821,0.36973269,-222.48853,-827.16876)" cx="269.31717" cy="894.73376" fx="269.31717" fy="894.73376" r="657.95142" />
    <radialGradient xlink:href="#linearGradient44" id="radialGradient42" gradientUnits="userSpaceOnUse" gradientTransform="matrix(0.54581075,0.21644229,-0.14661821,0.36973269,-415.54144,-903.72423)" cx="1399.0759" cy="894.73401" fx="1399.0759" fy="894.73401" r="657.95142" />
  </defs>
  <g id="g39" transform="translate(516.83959,1561.3059)">
    <path id="path20" style="opacity:0.55045;fill:#ffffff;fill-opacity:1;stroke:url(#radialGradient39);stroke-width:1.6;stroke-dasharray:none;stroke-opacity:1" d="m 386.39373,-1560.5059 -604.627,417.4765 c 0,0 -47.4043,27.1356 -47.4043,69.9551 0,57.0269 59.9512,75.57424 59.9512,75.57424 l 577.9043,227.99414 c 20.6007,7.94876 49.0885,-14.62796 22.4238,-43.13867 l -191.334,-191.42771 c 0,0 -53.1308,-51.9356 -53.1308,-86.1719 0,-34.2364 32.6152,-64.5527 32.6152,-64.5527 l 409.8203,-394.5 v -11.209 z m 49.3691,430.789 c -18.8742,-0.6836 -37.7129,19.7314 -14.4551,44.7715 l 171.3047,170.81838 V -1069.377 l -148.8789,-58.7071 c -2.5758,-1.0069 -5.2749,-1.535 -7.9707,-1.6328 z m 156.8496,425.32426 -232.5391,223.88682 h 232.5391 z" />
  </g>
</svg>
