<svg width="13" height="13" viewBox="0 0 13 13" fill="none" xmlns="http://www.w3.org/2000/svg">
<path d="M0 6.5C0 5.90104 0.078125 5.32552 0.234375 4.77344C0.390625 4.22135 0.609375 3.70573 0.890625 3.22656C1.17188 2.74219 1.51042 2.30208 1.90625 1.90625C2.30208 1.51042 2.73958 1.17188 3.21875 0.890625C3.70312 0.609375 4.22135 0.390625 4.77344 0.234375C5.32552 0.078125 5.90104 0 6.5 0C7.09896 0 7.67448 0.078125 8.22656 0.234375C8.77865 0.390625 9.29427 0.609375 9.77344 0.890625C10.2578 1.17188 10.6979 1.51042 11.0938 1.90625C11.4896 2.30208 11.8281 2.74219 12.1094 3.22656C12.3906 3.70573 12.6094 4.22135 12.7656 4.77344C12.9219 5.32552 13 5.90104 13 6.5C13 7.09896 12.9219 7.67448 12.7656 8.22656C12.6094 8.77865 12.3906 9.29688 12.1094 9.78125C11.8281 10.2604 11.4896 10.6979 11.0938 11.0938C10.6979 11.4896 10.2578 11.8281 9.77344 12.1094C9.29427 12.3906 8.77865 12.6094 8.22656 12.7656C7.67448 12.9219 7.09896 13 6.5 13C5.90104 13 5.32552 12.9219 4.77344 12.7656C4.22135 12.6094 3.70312 12.3906 3.21875 12.1094C2.73958 11.8281 2.30208 11.4896 1.90625 11.0938C1.51042 10.6979 1.17188 10.2604 0.890625 9.78125C0.609375 9.29688 0.390625 8.77865 0.234375 8.22656C0.078125 7.67448 0 7.09896 0 6.5ZM10.0156 2.27344C9.52083 1.85677 8.97135 1.54167 8.36719 1.32812C7.76823 1.10938 7.14583 1 6.5 1C5.99479 1 5.50781 1.0651 5.03906 1.19531C4.57031 1.32552 4.13281 1.51042 3.72656 1.75C3.32031 1.98958 2.94792 2.27865 2.60938 2.61719C2.27604 2.95052 1.98958 3.32031 1.75 3.72656C1.51042 4.13281 1.32552 4.57031 1.19531 5.03906C1.0651 5.50781 1 5.99479 1 6.5C1 7.14583 1.10677 7.77083 1.32031 8.375C1.53906 8.97396 1.85677 9.52083 2.27344 10.0156L10.0156 2.27344ZM12 6.5C12 5.85417 11.8906 5.23177 11.6719 4.63281C11.4583 4.02865 11.1432 3.47917 10.7266 2.98438L2.98438 10.7266C3.47917 11.1432 4.02604 11.4609 4.625 11.6797C5.22917 11.8932 5.85417 12 6.5 12C7.00521 12 7.49219 11.9349 7.96094 11.8047C8.42969 11.6745 8.86719 11.4896 9.27344 11.25C9.67969 11.0104 10.0495 10.724 10.3828 10.3906C10.7214 10.0521 11.0104 9.67969 11.25 9.27344C11.4896 8.86719 11.6745 8.42969 11.8047 7.96094C11.9349 7.49219 12 7.00521 12 6.5Z" fill="black" fill-opacity="0.8956"/>
</svg>
