<svg width="24" height="24" fill="none" viewBox="0 0 24 24" xmlns="http://www.w3.org/2000/svg"><path d="M2.22 2.22a.75.75 0 0 0-.073.976l.073.084 4.034 4.035a9.986 9.986 0 0 0-3.955 5.75.75.75 0 0 0 1.455.364 8.49 8.49 0 0 1 3.58-5.034l1.81 1.81A4 4 0 0 0 14.8 15.86l5.919 5.92a.75.75 0 0 0 1.133-.977l-.073-.084-6.113-6.114.001-.002-1.2-1.198-2.87-2.87h.002L8.719 7.658l.001-.002-1.133-1.13L3.28 2.22a.75.75 0 0 0-1.06 0Zm7.984 9.045 3.535 3.536a2.5 2.5 0 0 1-3.535-3.535ZM12 5.5c-1 0-1.97.148-2.889.425l1.237 1.236a8.503 8.503 0 0 1 9.899 6.272.75.75 0 0 0 1.455-.363A10.003 10.003 0 0 0 12 5.5Zm.195 3.51 3.801 3.8a4.003 4.003 0 0 0-3.801-3.8Z" fill="#212121"/></svg>