<svg width="6" height="8" viewBox="0 0 6 8" fill="none" xmlns="http://www.w3.org/2000/svg">
<path d="M0 4C0 3.75521 0.0572917 3.52604 0.171875 3.3125C0.286458 3.09635 0.44401 2.91927 0.644531 2.78125L4.42969 0.179687C4.51823 0.119792 4.60807 0.0755208 4.69922 0.046875C4.79036 0.015625 4.89062 0 5 0C5.13542 0 5.26432 0.0260417 5.38672 0.078125C5.50911 0.130208 5.61458 0.201823 5.70312 0.292969C5.79427 0.38151 5.86589 0.485677 5.91797 0.605469C5.97266 0.72526 6 0.854167 6 0.992187L6 7.00781C6 7.14583 5.97266 7.27474 5.91797 7.39453C5.86589 7.51432 5.79427 7.61979 5.70313 7.71094C5.61458 7.79948 5.50911 7.86979 5.38672 7.92187C5.26432 7.97396 5.13542 8 5 8C4.79427 8 4.60417 7.9401 4.42969 7.82031L0.644531 5.21875C0.44401 5.08073 0.286458 4.90495 0.171875 4.69141C0.0572917 4.47526 0 4.24479 0 4Z" fill="white" fill-opacity="0.5442" />
</svg>
