<svg width="16" height="17" viewBox="0 0 16 17" fill="none" xmlns="http://www.w3.org/2000/svg">
<g clip-path="url(#clip0_1527_4634)">
<path d="M4 4.02002V9.02002H12V4.02002H4ZM5 5.02002L8 6.52002L10.998 5.02002V6.02002L8 7.52002L5 6.02002V5.02002Z" fill="#232323"/>
<path d="M0 0.0200195H16V16.02H0V0.0200195Z" fill="#808080" fill-opacity="0.01"/>
<path fill-rule="evenodd" clip-rule="evenodd" d="M1.99998 1.02002C0.968978 1.08302 0.999978 2.02002 0.999978 2.02002V14.02C0.999978 14.02 0.968978 14.958 1.99998 15.02H14C15 15.02 15 14.02 15 14.02V2.02002C15 2.02002 15 1.02002 14 1.02002H7.99998H1.99998ZM2.99998 3.02002H13V10.02H9.99998C9.99998 11.128 9.10798 12.02 7.99998 12.02C6.89198 12.02 5.99998 11.128 5.99998 10.02H2.99998V3.02002Z" fill="#232323"/>
</g>
<defs>
<clipPath id="clip0_1527_4634">
<rect width="16" height="16" fill="white" transform="translate(0 0.0200195)"/>
</clipPath>
</defs>
</svg>