<svg width="16" height="24" viewBox="0 0 1536 1792" xmlns="http://www.w3.org/2000/svg">
    <path style="isolation:auto;mix-blend-mode:normal" d="M768 132A768 768 0 0 0 0 900a768 768 0 0 0 768 768 768 768 0 0 0 768-768 768 768 0 0 0-768-768zm-30.951 218.365c9.385-.112 17.497 1.602 22.98 7.086 15.953 15.953 0 36.096 0 54.145 0 18.043 11.934 31.834 0 54.138-11.933 22.305-54.145 36.109-81.218 54.162-27.073 18.054-55.739 60.932-81.22 54.168-25.48-6.763-18.058-36.102-27.087-54.156-9.03-18.054-27.088-33.974-27.088-54.156 0-20.182 18.057-36.097 27.086-54.15 9.029-18.049 6.986-41.729 27.086-54.15 20.1-12.418 54.148 0 81.22 0 17.768 0 40.324-6.872 58.24-7.087zm-246.522 7.248c2.12-.025 4.402.367 6.153 1.836 4.001 3.358-7.403 15.827-7.403 24.692 0 8.859 4.175 16.505 0 26.588-4.175 10.088-18.323 18.346-27.484 27.525-9.161 9.173-149.752 112.129-85.02 112.129 64.734 0 93.621-48.513 111.664-30.46 18.043 18.05 54.132 15.958 54.13 54.145 0 38.187-91.657 100.044-127.614 136-8.99 8.995 8.52 99.463-5.63 99.463-14.234 0-46.426-53.233-56.837-43.99-19.962 14.474-12.25 6.042-25.662 24.291-13.205 31.884-23.332 47.702-23.332 65.87 0 18.167-4.412 49.432 1.793 57.495 6.21 8.063 4.603 1.247 6.346 1.68 1.744.541 101.388 5.68 129.27 12.644 27.88 6.964 75.031 10.414 101.384 25.327 26.353 14.913 36.39 36.377 54.586 54.566 18.195 18.19 50.943 32.198 54.586 54.563 3.645 22.369-17.489 35.068-26.234 52.607-8.746 17.534-16.694 39.307-26.237 52.601-9.542 13.289-18.517 18.624-27.777 27.938-9.26 9.308-13.872 1.84-27.777 27.936-13.906 26.068-19.612 98.011-27.051 135.19-5.74 28.689-7.021 93.82-16.553 122.079a640 640 0 0 1-101.818-58.666c-20.7-32.649-34.79-70.782-44.115-117.447-7.447-37.218-10.23-103.808-27.08-135.34-16.851-31.532-36.012-36.108-54.016-54.156-18.005-18.054-50.39-31.63-54.016-54.157-3.628-22.526 18.06-35.998 27.088-54.003 9.03-18 37.742-50.82 33.07-79.725-4.673-28.906-60.32-28.62-87.488-55.793-13.543-13.545-37.34-24.66-60.04-36.35A640 640 0 0 1 408.91 370.967c31.885-5.307 75.117-12.496 75.713-12.602.719 0 3.178-.72 5.904-.752zm721.407 82.36a640 640 0 0 1 193.172 404.123c-24.094-.828-50.922 37.807-76.243 54.693-26.99 18-52.17 56.852-80.972 53.998-28.804-2.87-35.98-35.994-53.971-53.988-17.99-18-33.87-45.68-53.97-53.992-20.101-8.307-44.911-6.64-54.16 0-9.25 6.736-4.425 9.054-4.474 13.78-.046 4.712-3.916 3.845 4.034 13.3 7.945 9.433 34.026 9.567 53.718 26.982 19.693 17.415 36.106 54.141 54.159 81.211 18.053 27.07 46.828 57.004 54.16 81.209 7.332 24.21 0 36.108 0 54.162 0 18.054 8.992 16.07 0 54.16-8.992 38.095-58.58 117.167-80.8 161.613-10.766 21.536-21.836 60.135-34.474 94.217a640 640 0 0 1-106.531 59.574c-103.19-32.356-61.234-157.588-75.14-230.7-7.205-36.06-26.53-132.523-27.116-134.96-.585-2.436-52.516-38.236-81.994-57.892-29.477-19.657-71.164-25.176-81.074-54.07-9.91-28.895 18.097-54.28 27.146-81.42 9.05-27.14-17.079-51.976 27.149-81.428 44.227-29.447 198.263 69.816 232.334 17.258 34.07-52.564-69.304-85.953-67.82-125.727 1.483-39.768 45.957-61.136 51.714-80.814 5.757-19.679 18.326-17.268 0-27.074-18.325-9.807-54.149 36.112-81.224 54.166-27.076 18.059-54.944 68.236-81.227 54.167-26.284-14.062 0-54.15 0-81.226 0-27.075-14.05-54.964 0-81.227 14.05-26.257 54.058-36.047 81.086-54.068 27.029-18.027 36.015-36.86 81.084-54.074 43.045-16.446 119.453-17.976 181.434-25.953z" color="#000" overflow="visible"/>
</svg>

