<svg width="16" height="16" viewBox="0 0 16 16" fill="none" xmlns="http://www.w3.org/2000/svg">
<g clip-path="url(#clip0_409_3644)">
<path d="M7.00024 1.5L0.53125 6L7.00024 10.5V8H9.00024C9.19024 8 9.37625 8.01999 9.55925 8.05299C9.91925 7.64599 10.4232 7.353 10.9822 7.217L11.1122 6.785C11.2313 6.39332 11.4442 6.03663 11.7325 5.74594C12.0207 5.45525 12.3756 5.23935 12.7662 5.117C11.9212 4.404 10.8062 4 9.50024 4H7.00024V1.5ZM11.5002 9C11.4485 9.00139 11.3973 9.01048 11.3482 9.02699C11.5722 9.26999 11.7482 9.543 11.8692 9.84C11.9545 9.74739 12.0013 9.62585 12.0002 9.5C12.0002 9.212 11.7882 9 11.5002 9Z" fill="#232323"/>
<path d="M13.5 6.00003C12.821 6.00003 12.255 6.45403 12.07 7.07203C12.985 7.29103 13.71 8.01703 13.928 8.93203C14.2744 8.83089 14.5725 8.60798 14.7675 8.30438C14.9624 8.00078 15.0411 7.63695 14.989 7.27992C14.9369 6.92289 14.7574 6.59672 14.4838 6.36152C14.2102 6.12632 13.8608 5.99794 13.5 6.00003ZM11.5 8.00003C11.1022 8.00003 10.7207 8.15807 10.4393 8.43937C10.158 8.72068 10 9.1022 10 9.50003C10 9.89785 10.158 10.2794 10.4393 10.5607C10.7207 10.842 11.1022 11 11.5 11C11.8978 11 12.2794 10.842 12.5607 10.5607C12.842 10.2794 13 9.89785 13 9.50003C13 9.1022 12.842 8.72068 12.5607 8.43937C12.2794 8.15807 11.8978 8.00003 11.5 8.00003ZM13.936 10.033C13.8164 10.5182 13.5562 10.9572 13.188 11.295C13.674 11.473 14.066 11.713 14.346 12H16V11.5C16 11.5 15.972 10.206 13.936 10.033ZM11.5 12C9 12 9 13.5 9 13.5V14H14V13.5C14 13.5 14 12 11.5 12Z" fill="#232323"/>
</g>
<defs>
<clipPath id="clip0_409_3644">
<rect width="16" height="16" fill="white"/>
</clipPath>
</defs>
</svg>