<svg width="16" height="13" viewBox="0 0 16 13" fill="none" xmlns="http://www.w3.org/2000/svg">
<path d="M11 1.9502C10.6117 1.9502 10.2467 2.03949 9.91602 2.18847C9.97062 2.45052 10.0001 2.72155 10.0001 2.99901C10.0001 4.10112 9.54584 5.1032 8.81647 5.82909C9.27677 6.53278 10.0795 7.00292 11 7.00292C12.4327 7.00292 13.5938 5.87267 13.5938 4.47754C13.5938 3.08241 12.4327 1.9502 11 1.9502ZM11 8.00292C10.8039 8.00292 10.6283 8.01552 10.4473 8.02442C11.1448 8.42408 11.6764 8.90154 12.0508 9.40138C12.993 10.6587 13 12.0029 13 12.0029H16V11.0029C16 11.0029 16 8.00292 11 8.00292ZM7.09766 9.0537C6.00862 9.91889 6 11.0029 6 11.0029V12.0029H11C11 12.0029 11.007 11.3457 10.4492 10.6006C9.97211 9.96363 9.07898 9.2484 7.09766 9.0537Z" fill="#D4D4D4"/>
<path d="M6.00024 0C7.6571 0 9.00024 1.3432 9.00024 3C9.00024 4.6568 7.6571 6 6.00024 6C4.34338 6 3.00024 4.6568 3.00024 3C3.00024 1.3432 4.34338 0 6.00024 0ZM6.00024 8C12 7.997 12 12.0034 12 12.0034V13.0034H0V12.0034C0 12.0034 1.43051e-05 8.00336 6.00024 8Z" fill="#D4D4D4"/>
</svg>
