<svg width="11" height="8" viewBox="0 0 11 8" fill="none" xmlns="http://www.w3.org/2000/svg">
<path d="M0.00195312 3.99805C0.00195312 3.86133 0.0507812 3.74414 0.148438 3.64648C0.246094 3.54883 0.363281 3.5 0.5 3.5C0.636719 3.5 0.753906 3.54883 0.851562 3.64648L3.5 6.29492L9.14844 0.646484C9.24609 0.548828 9.36328 0.5 9.5 0.5C9.57031 0.5 9.63477 0.513672 9.69336 0.541016C9.75586 0.564453 9.80859 0.599609 9.85156 0.646484C9.89844 0.689453 9.93555 0.742187 9.96289 0.804688C9.99023 0.863281 10.0039 0.927734 10.0039 0.998047C10.0039 1.13477 9.95312 1.25391 9.85156 1.35547L3.85156 7.35547C3.75391 7.45312 3.63672 7.50195 3.5 7.50195C3.36328 7.50195 3.24609 7.45312 3.14844 7.35547L0.148438 4.35547C0.0507812 4.25781 0.00195312 4.13867 0.00195312 3.99805Z" fill="white"/>
</svg>
