<svg width="12" height="7" viewBox="0 0 12 7" fill="none" xmlns="http://www.w3.org/2000/svg">
<path d="M0 6.5C0 6.36458 0.0494792 6.2474 0.148438 6.14844L5.64844 0.648438C5.7474 0.549479 5.86458 0.5 6 0.5C6.13542 0.5 6.2526 0.549479 6.35156 0.648438L11.8516 6.14844C11.9505 6.2474 12 6.36458 12 6.5C12 6.63542 11.9505 6.7526 11.8516 6.85156C11.7526 6.95052 11.6354 7 11.5 7C11.3646 7 11.2474 6.95052 11.1484 6.85156L6 1.71094L0.851562 6.85156C0.752604 6.95052 0.635417 7 0.5 7C0.364583 7 0.247396 6.95052 0.148438 6.85156C0.0494792 6.7526 0 6.63542 0 6.5Z" fill="white" fill-opacity="0.786" />
</svg>
