<svg width="8" height="6" viewBox="0 0 8 6" fill="none" xmlns="http://www.w3.org/2000/svg">
<path d="M0 1C0 0.864583 0.0260417 0.735677 0.078125 0.613281C0.130208 0.490885 0.200521 0.385417 0.289062 0.296875C0.380208 0.205729 0.485677 0.134115 0.605469 0.0820312C0.72526 0.0273438 0.854167 0 0.992188 0H7.01172C7.14714 0 7.27474 0.0260417 7.39453 0.078125C7.51693 0.130208 7.6224 0.201823 7.71094 0.292969C7.79948 0.384115 7.86979 0.490885 7.92188 0.613281C7.97396 0.733073 8 0.860677 8 0.996094C8 1.10547 7.98438 1.20573 7.95312 1.29688C7.92448 1.38802 7.88021 1.47917 7.82031 1.57031L5.21875 5.35547C5.08073 5.55599 4.90365 5.71354 4.6875 5.82812C4.47396 5.94271 4.24479 6 4 6C3.75521 6 3.52474 5.94271 3.30859 5.82812C3.09505 5.71354 2.91927 5.55599 2.78125 5.35547L0.179688 1.57031C0.119792 1.48177 0.0742188 1.39193 0.0429688 1.30078C0.0143229 1.20964 0 1.10938 0 1Z" fill="white" fill-opacity="0.5442" />
</svg>
