<svg width="6" height="8" viewBox="0 0 6 8" fill="none" xmlns="http://www.w3.org/2000/svg">
<path d="M0 7.00781L0 0.992187C0 0.854167 0.0260417 0.72526 0.078125 0.605469C0.132812 0.485677 0.204427 0.38151 0.292969 0.292969C0.384115 0.201823 0.489583 0.130208 0.609375 0.078125C0.731771 0.0260417 0.861979 0 1 0C1.20573 0 1.39583 0.0598958 1.57031 0.179687L5.35547 2.78125C5.55859 2.92187 5.71615 3.09896 5.82813 3.3125C5.94271 3.52604 6 3.75521 6 4C6 4.24479 5.94271 4.47396 5.82813 4.6875C5.71615 4.90104 5.55859 5.07812 5.35547 5.21875L1.57031 7.82031C1.39583 7.9401 1.20573 8 1 8C0.861979 8 0.731771 7.97396 0.609375 7.92188C0.489583 7.86979 0.384115 7.79948 0.292969 7.71094C0.204427 7.61979 0.132813 7.51432 0.078125 7.39453C0.0260417 7.27474 0 7.14583 0 7.00781Z" fill="white" fill-opacity="0.5442" />
</svg>
