<svg width="34" height="46" viewBox="0 0 34 46" fill="none" xmlns="http://www.w3.org/2000/svg">
<g clip-path="url(#clip0_1436_50505)">
<path d="M6.82109 45.0841L32.2055 27.3802C32.2055 27.3802 33.3511 26.718 33.3511 25.6729C33.3511 24.2812 31.9024 23.8285 31.9024 23.8285L17.9375 18.2669C17.4392 18.0703 16.7535 18.6213 17.3956 19.3198L22.0189 23.976C22.0189 23.976 23.3031 25.2461 23.3031 26.079C23.3031 26.912 22.5146 27.6544 22.5146 27.6544L5.69095 44.0132C5.0925 44.5952 5.90157 45.6506 6.82109 45.0841Z" fill="#2379F4"/>
<path d="M27.3254 0.200857L1.94096 17.9022C1.94096 17.9022 0.79541 18.5644 0.79541 19.6095C0.79541 21.0012 2.24404 21.4539 2.24404 21.4539L16.2089 27.018C16.7072 27.212 17.3956 26.6611 16.7509 25.9652L12.1276 21.2935C12.1276 21.2935 10.8434 20.026 10.8434 19.1904C10.8434 18.3549 11.6319 17.6151 11.6319 17.6151L28.4452 1.2692C29.054 0.687172 28.2475 -0.368236 27.3254 0.200857Z" fill="#2379F4"/>
</g>
<defs>
<clipPath id="clip0_1436_50505">
<rect width="34" height="46" fill="white"/>
</clipPath>
</defs>
</svg>
