<svg width="36" height="24" viewBox="0 0 36 24" fill="none" xmlns="http://www.w3.org/2000/svg">
<path d="M3.37497 13.0493H4.79142C4.79142 13.0493 4.96345 12.3066 5.177 11.3902C5.38955 10.4743 7.07379 9.73112 8.93725 9.73112H27.4987C29.3628 9.73112 30.9778 10.4743 31.1063 11.3902L31.3384 13.0493H32.625C34.4885 13.0493 36 11.538 36 9.67449V3.37495C36 1.81895 34.9414 0.52241 33.509 0.13147C33.5901 0.450239 33.6375 0.781719 33.6375 1.1245V2.47443C33.6375 4.70793 31.821 6.52422 29.5876 6.52422H6.41224C4.17874 6.52422 2.36245 4.70793 2.36245 2.47443V1.1245C2.36245 0.781719 2.40948 0.450239 2.49069 0.13147C1.05828 0.522269 0 1.81895 0 3.37495V9.67449C0 11.5385 1.51108 13.0493 3.37497 13.0493Z" fill="#606675"/>
<path d="M6.41225 5.17502H29.5856C31.0754 5.17502 32.2855 3.96406 32.2855 2.47502V1.12523C32.2855 0.722139 32.1919 0.343485 32.0324 0H3.96548C3.80659 0.343485 3.71239 0.721997 3.71239 1.12523V2.47516C3.71239 3.96406 4.92391 5.17502 6.41225 5.17502ZM5.07291 1.19528H30.5533C30.7398 1.19528 30.8908 1.34654 30.8908 1.53283C30.8908 1.71912 30.74 1.87038 30.5533 1.87038H5.07291C4.88676 1.87038 4.73536 1.71912 4.73536 1.53283C4.73536 1.34654 4.88606 1.19528 5.07291 1.19528ZM5.07291 3.30477H30.5533C30.7398 3.30477 30.8908 3.45604 30.8908 3.64219C30.8908 3.82848 30.74 3.97974 30.5533 3.97974H5.07291C4.88676 3.97974 4.73536 3.82848 4.73536 3.64219C4.73536 3.4559 4.88606 3.30477 5.07291 3.30477Z" fill="#606675"/>
<path d="M30.0575 11.8121C29.9588 11.129 28.3675 10.5749 26.5027 10.5749H9.74174C7.87842 10.5749 6.26579 11.1288 6.14206 11.8121C6.01792 12.4957 5.91736 13.0493 5.91736 13.0493H30.2369L30.0575 11.8121Z" fill="#606675"/>
<path d="M8.17458 23.5721C8.30212 23.6828 8.45931 23.7369 8.61595 23.7369C8.80506 23.7369 8.99333 23.6577 9.12651 23.5043C9.23103 23.383 11.6656 20.5222 9.81956 18.1993C8.7956 16.91 9.5522 16.161 9.71702 16.0213C10.003 15.7882 10.0495 15.3674 9.81885 15.0775C9.58652 14.7861 9.16196 14.7379 8.87031 14.97C8.16314 15.5335 7.22972 17.109 8.76255 19.039C9.91178 20.4851 8.12317 22.5998 8.10566 22.6202C7.86273 22.9012 7.8931 23.3276 8.17458 23.5721Z" fill="#606675"/>
<path d="M14.0806 23.5721C14.2082 23.6828 14.3654 23.7369 14.522 23.7369C14.7113 23.7369 14.8994 23.6577 15.0326 23.5043C15.1371 23.383 17.5717 20.5222 15.7258 18.1993C14.7018 16.91 15.4584 16.161 15.6232 16.0213C15.9094 15.7882 15.9558 15.3674 15.725 15.0775C15.4927 14.7861 15.0683 14.7379 14.7765 14.97C14.0692 15.5335 13.1359 17.109 14.6687 19.039C15.818 20.4851 14.0294 22.5998 14.0119 22.6202C13.7688 22.9012 13.7992 23.3276 14.0806 23.5721Z" fill="#606675"/>
<path d="M19.9871 23.5721C20.1142 23.6828 20.2719 23.7369 20.4281 23.7369C20.6172 23.7369 20.8057 23.6577 20.9389 23.5043C21.043 23.383 23.478 20.5222 21.6317 18.1993C20.608 16.91 21.3646 16.161 21.5294 16.0213C21.8154 15.7882 21.8616 15.3674 21.631 15.0775C21.3988 14.7861 20.9745 14.7379 20.6824 14.97C19.9751 15.5335 19.0417 17.109 20.5749 19.039C21.7238 20.4851 19.9356 22.5998 19.9178 22.6202C19.6746 22.9012 19.7049 23.3276 19.9871 23.5721Z" fill="#606675"/>
<path d="M25.893 23.5721C26.0203 23.6828 26.1779 23.7369 26.3341 23.7369C26.5232 23.7369 26.7118 23.6577 26.8448 23.5043C26.9489 23.383 29.384 20.5222 27.5376 18.1993C26.5139 16.91 27.2706 16.161 27.4353 16.0213C27.7215 15.7882 27.7677 15.3674 27.5369 15.0775C27.3048 14.7861 26.8804 14.7379 26.5883 14.97C25.881 15.5335 24.9477 17.109 26.4809 19.039C27.6298 20.4851 25.8416 22.5998 25.8237 22.6202C25.5806 22.9012 25.611 23.3276 25.893 23.5721Z" fill="#606675"/>
</svg>
