<svg width="9" height="14" viewBox="0 0 9 14" fill="none" xmlns="http://www.w3.org/2000/svg">
<path d="M7.29167 0H1.45833C1.0717 0.000463125 0.701038 0.154257 0.427647 0.427647C0.154257 0.701038 0.000463125 1.0717 0 1.45833V12.5417C0.000463125 12.9283 0.154257 13.299 0.427647 13.5724C0.701038 13.8457 1.0717 13.9995 1.45833 14H7.29167C7.6783 13.9995 8.04896 13.8457 8.32235 13.5724C8.59574 13.299 8.74954 12.9283 8.75 12.5417V1.45833C8.74954 1.0717 8.59574 0.701038 8.32235 0.427647C8.04896 0.154257 7.6783 0.000463125 7.29167 0ZM1.45833 0.583333H7.29167C7.52373 0.583333 7.74629 0.67552 7.91039 0.839615C8.07448 1.00371 8.16667 1.22627 8.16667 1.45833V2.33333H0.583333V1.45833C0.583333 1.22627 0.675521 1.00371 0.839615 0.839615C1.00371 0.67552 1.22627 0.583333 1.45833 0.583333ZM8.16667 2.91667V11.0833H0.583333V2.91667H8.16667ZM7.29167 13.4167H1.45833C1.22627 13.4167 1.00371 13.3245 0.839615 13.1604C0.675521 12.9963 0.583333 12.7737 0.583333 12.5417V11.6667H8.16667V12.5417C8.16667 12.7737 8.07448 12.9963 7.91039 13.1604C7.74629 13.3245 7.52373 13.4167 7.29167 13.4167Z" fill="white"/>
<path d="M3.5 1.16668H5.25V1.75001H3.5V1.16668Z" fill="white"/>
<path d="M4.08331 12.25H4.66665V12.8333H4.08331V12.25Z" fill="white"/>
<path d="M3.34399 7.1353L3.75641 7.54772C3.92315 7.38878 4.14467 7.30011 4.37504 7.30011C4.6054 7.30011 4.82692 7.38878 4.99366 7.54772L5.40608 7.1353C5.1326 6.86191 4.76173 6.70832 4.37504 6.70832C3.98834 6.70832 3.61747 6.86191 3.34399 7.1353Z" fill="white"/>
<path d="M2.93122 6.72292C3.31452 6.34077 3.83371 6.12618 4.37497 6.12618C4.91623 6.12618 5.43541 6.34077 5.81872 6.72292L6.23113 6.3105C5.73847 5.81893 5.07093 5.54285 4.37497 5.54285C3.679 5.54285 3.01146 5.81893 2.5188 6.3105L2.93122 6.72292Z" fill="white"/>
<path d="M3.96252 8.0459L4.37494 8.45832L4.78736 8.0459C4.67797 7.93654 4.52962 7.87511 4.37494 7.87511C4.22026 7.87511 4.07192 7.93654 3.96252 8.0459Z" fill="white"/>
</svg>
