<svg width="29" height="36" viewBox="0 0 29 36" fill="none" xmlns="http://www.w3.org/2000/svg">
<path d="M27.4155 26.0689C27.0897 19.115 21.3568 13.6442 14.3953 13.6442C7.43371 13.6442 1.70082 19.115 1.37502 26.0689H27.4155ZM14.3953 14.8965C19.8878 14.928 24.6427 18.721 25.8941 24.069L24.6842 24.3448C23.5638 19.5599 19.3096 16.1664 14.3953 16.1379V14.8965Z" fill="#606675"/>
<path d="M15.6367 1.24138C15.6367 1.92693 15.0808 2.48276 14.3953 2.48276C13.7097 2.48276 13.1539 1.92693 13.1539 1.24138C13.1539 0.555832 13.7097 0 14.3953 0C15.0808 0 15.6367 0.555832 15.6367 1.24138Z" fill="#606675"/>
<path d="M13.7746 31.0345H15.016V36H13.7746V31.0345Z" fill="#606675"/>
<path d="M13.7746 28.5518H15.016V29.7931H13.7746V28.5518Z" fill="#606675"/>
<path d="M15.016 3.64355V12.4323C14.8111 12.4199 14.6001 12.4138 14.3953 12.4138C14.1904 12.4138 13.9795 12.4199 13.7746 12.4323V3.64355C14.1813 3.75114 14.6092 3.75114 15.016 3.64355Z" fill="#606675"/>
<path d="M24.4012 30.746L25.2792 29.8683L28.7902 33.3794L27.9125 34.2571L24.4012 30.746Z" fill="#606675"/>
<path d="M22.6461 28.9909L23.5238 28.1132L24.4015 28.9909L23.5238 29.8685L22.6461 28.9909Z" fill="#606675"/>
<path d="M0 33.3799L3.51108 29.8688L4.38908 30.7465L0.877694 34.2579L0 33.3799Z" fill="#606675"/>
<path d="M4.38907 28.9906L5.26676 28.1129L6.14476 28.9906L5.26676 29.8686L4.38907 28.9906Z" fill="#606675"/>
</svg>
