<svg width="12" height="12" viewBox="0 0 12 12" fill="none" xmlns="http://www.w3.org/2000/svg">
<path d="M10.9375 6.12501C10.8255 6.12501 10.7137 6.08235 10.6282 5.99682L7.68905 3.05792C7.5182 2.88707 7.5182 2.61013 7.68905 2.43929C7.85989 2.26845 8.13682 2.26845 8.30767 2.43929L11.2468 5.3782C11.4176 5.54904 11.4176 5.82598 11.2468 5.99682C11.1613 6.08213 11.0495 6.12501 10.9375 6.12501Z" fill="white"/>
<path d="M7.99836 9.06391C7.88636 9.06391 7.77458 9.02126 7.68905 8.93572C7.5182 8.76488 7.5182 8.48794 7.68905 8.3171L10.6282 5.37819C10.799 5.20735 11.0759 5.20735 11.2468 5.37819C11.4176 5.54904 11.4176 5.82598 11.2468 5.99682L8.30789 8.93572C8.22236 9.02104 8.11036 9.06391 7.99836 9.06391Z" fill="white"/>
<path d="M10.9375 6.125H2.625C2.3835 6.125 2.1875 5.929 2.1875 5.6875C2.1875 5.446 2.3835 5.25 2.625 5.25H10.9375C11.179 5.25 11.375 5.446 11.375 5.6875C11.375 5.929 11.179 6.125 10.9375 6.125Z" fill="white"/>
<path d="M0.875 11.375C0.392437 11.375 0 10.9826 0 10.5C0 10.2585 0.196 10.0625 0.4375 10.0625C0.679 10.0625 0.875 10.2585 0.875 10.5V10.5007C1.1165 10.5007 1.3125 10.6962 1.3125 10.9379C1.3125 11.1797 1.1165 11.375 0.875 11.375Z" fill="white"/>
<path d="M3.9375 11.375H0.875C0.6335 11.375 0.4375 11.179 0.4375 10.9375C0.4375 10.696 0.6335 10.5 0.875 10.5H3.9375C4.179 10.5 4.375 10.696 4.375 10.9375C4.375 11.179 4.179 11.375 3.9375 11.375Z" fill="white"/>
<path d="M0.4375 10.9375C0.196 10.9375 0 10.7415 0 10.5V0.875C0 0.6335 0.196 0.4375 0.4375 0.4375C0.679 0.4375 0.875 0.6335 0.875 0.875V10.5C0.875 10.7415 0.679 10.9375 0.4375 10.9375Z" fill="white"/>
<path d="M0.437281 1.3125C0.195563 1.3125 0 1.1165 0 0.875C0 0.392437 0.392437 0 0.875 0C1.1165 0 1.3125 0.196 1.3125 0.4375C1.3125 0.679 1.1165 0.875 0.875 0.875H0.874344C0.874344 1.1165 0.679 1.3125 0.437281 1.3125Z" fill="white"/>
<path d="M3.9375 0.875H0.875C0.6335 0.875 0.4375 0.679 0.4375 0.4375C0.4375 0.196 0.6335 0 0.875 0H3.9375C4.179 0 4.375 0.196 4.375 0.4375C4.375 0.679 4.179 0.875 3.9375 0.875Z" fill="white"/>
</svg>
