<svg width="40" height="40" viewBox="0 0 40 40" fill="none" xmlns="http://www.w3.org/2000/svg">
<path d="M24.527 13.9631C24.3271 13.9631 24.1269 13.8867 23.9743 13.7338C20.4828 10.2351 14.8007 10.2351 11.3092 13.7338C11.004 14.0396 10.5093 14.0396 10.2042 13.7338C9.89899 13.4283 9.89899 12.9327 10.2042 12.6269C14.3051 8.5176 20.9781 8.5176 25.0793 12.6269C25.3845 12.9324 25.3845 13.428 25.0793 13.7338C24.9268 13.8867 24.7269 13.9631 24.527 13.9631Z" fill="white"/>
<path d="M27.2 11.2848C26.9989 11.2848 26.7981 11.2078 26.6452 11.0534L26.6358 11.0439C26.3294 10.7393 26.3272 10.2437 26.6312 9.93668C26.9352 9.62999 27.4298 9.62785 27.7359 9.9324L27.7545 9.95075C28.0585 10.2577 28.0564 10.7534 27.75 11.058C27.5977 11.2093 27.3987 11.2848 27.2 11.2848Z" fill="white"/>
<path d="M8.0835 11.2848C7.88361 11.2848 7.68372 11.2084 7.53113 11.0555C7.22595 10.75 7.22595 10.2544 7.53113 9.94859C9.84741 7.62778 12.7887 6.20808 16.037 5.84237C19.1894 5.48768 22.4072 6.20105 25.0979 7.85069C25.4657 8.07635 25.5816 8.55824 25.3564 8.92701C25.1312 9.29577 24.6502 9.41166 24.2822 9.186C19.249 6.09984 12.8149 6.86824 8.63586 11.0555C8.48358 11.2084 8.28339 11.2848 8.0835 11.2848Z" fill="white"/>
<path d="M17.6416 30.5736C14.9481 30.5736 12.2546 29.5465 10.2042 27.4917C9.89899 27.1863 9.89899 26.6906 10.2042 26.3848C10.5093 26.0791 11.004 26.0791 11.3092 26.3848C14.8007 29.8835 20.4828 29.8835 23.9743 26.3848C24.2795 26.0791 24.7742 26.0791 25.0793 26.3848C25.3845 26.6906 25.3845 27.1863 25.0793 27.4917C23.0289 29.5465 20.3351 30.5736 17.6416 30.5736Z" fill="white"/>
<path d="M17.651 34.3658C14.8577 34.3658 12.1035 33.5469 9.77257 32.0049C9.41277 31.7667 9.31358 31.2809 9.55132 30.9204C9.78905 30.5596 10.2737 30.4605 10.6338 30.6984C15.6527 34.0194 22.3873 33.3314 26.6475 29.0631C26.9524 28.7573 27.4471 28.7573 27.7523 29.0631C28.0575 29.3689 28.0575 29.8645 27.7523 30.17C25.4088 32.518 22.3049 33.9851 19.0114 34.301C18.5583 34.3441 18.1039 34.3658 17.651 34.3658Z" fill="white"/>
<path d="M8.11067 30.4265C7.91231 30.4265 7.71394 30.3513 7.56166 30.2006L7.5287 30.1679C7.22505 29.8609 7.22719 29.3652 7.53359 29.0607C7.83998 28.7564 8.33437 28.7586 8.63832 29.0656L8.65938 29.0867C8.96639 29.3903 8.96974 29.8859 8.6664 30.1939C8.51381 30.3486 8.31209 30.4265 8.11067 30.4265Z" fill="white"/>
<path d="M17.6306 22.9525C16.0385 22.9525 14.743 21.6545 14.743 20.0593C14.743 18.4641 16.0385 17.1664 17.6306 17.1664C19.2227 17.1664 20.5179 18.4641 20.5179 20.0593C20.5179 21.6545 19.2227 22.9525 17.6306 22.9525ZM17.6306 18.732C16.9 18.732 16.3055 19.3273 16.3055 20.0593C16.3055 20.7913 16.9 21.387 17.6306 21.387C18.3612 21.387 18.9554 20.7913 18.9554 20.0593C18.9554 19.3273 18.3612 18.732 17.6306 18.732Z" fill="white"/>
<path d="M2.88757 27.7211C1.29517 27.7211 0 26.4234 0 24.8281V15.2908C0 13.6956 1.29517 12.3976 2.88757 12.3976C4.47968 12.3976 5.77484 13.6956 5.77484 15.2908V24.8281C5.77484 26.4234 4.47968 27.7211 2.88757 27.7211ZM2.88757 13.9631C2.15698 13.9631 1.5625 14.5588 1.5625 15.2908V24.8281C1.5625 25.5602 2.15698 26.1555 2.88757 26.1555C3.61786 26.1555 4.21234 25.5602 4.21234 24.8281V15.2908C4.21234 14.5588 3.61786 13.9631 2.88757 13.9631Z" fill="white"/>
<path d="M34.0851 27.7211C32.6865 27.7211 31.5485 26.5812 31.5485 25.1798V17.5364H30.7062C29.3079 17.5364 28.1699 16.3962 28.1699 14.9951C28.1699 13.5938 29.3079 12.4538 30.7062 12.4538H37.4637C38.8623 12.4538 40 13.5938 40 14.9951C40 16.3962 38.8623 17.5364 37.4637 17.5364H36.6214V25.1798C36.6214 26.5812 35.4834 27.7211 34.0851 27.7211ZM30.7062 14.0194C30.1694 14.0194 29.7324 14.457 29.7324 14.9951C29.7324 15.5333 30.1694 15.9708 30.7062 15.9708H32.3297C32.7612 15.9708 33.111 16.3213 33.111 16.7536V25.1798C33.111 25.718 33.548 26.1555 34.0851 26.1555C34.6219 26.1555 35.0589 25.718 35.0589 25.1798V16.7536C35.0589 16.3213 35.4086 15.9708 35.8401 15.9708H37.4637C38.0008 15.9708 38.4375 15.533 38.4375 14.9951C38.4375 14.457 38.0008 14.0194 37.4637 14.0194H30.7062Z" fill="white"/>
<path d="M17.6306 26.7509C13.9481 26.7509 10.9521 23.7491 10.9521 20.0593C10.9521 16.3699 13.9481 13.3678 17.6306 13.3678C21.3132 13.3678 24.3091 16.3699 24.3091 20.0593C24.3091 23.7491 21.3132 26.7509 17.6306 26.7509ZM17.6306 14.9333C14.8096 14.9333 12.5146 17.2328 12.5146 20.0593C12.5146 22.8859 14.8096 25.1853 17.6306 25.1853C20.4514 25.1853 22.7466 22.8859 22.7466 20.0593C22.7466 17.2328 20.4514 14.9333 17.6306 14.9333Z" fill="white"/>
</svg>
