<svg width="14" height="14" viewBox="0 0 14 14" fill="none" xmlns="http://www.w3.org/2000/svg">
<path d="M13.8357 6.38821L6.95603 0L0.076565 6.38821C-0.0203424 6.4784 -0.0260993 6.63024 0.0640917 6.72739C0.153803 6.8243 0.30612 6.82981 0.403028 6.73986L1.19916 6.00058V14H5.03707H8.87499H12.7129V6.00034L13.509 6.73962C13.5551 6.78256 13.6139 6.80367 13.6724 6.80367C13.7369 6.80367 13.801 6.778 13.848 6.72715C13.9384 6.63024 13.9326 6.4784 13.8357 6.38821ZM5.51681 13.5203V9.68234C5.51681 8.88861 6.1623 8.24312 6.95603 8.24312C7.74976 8.24312 8.39525 8.88861 8.39525 9.68234V13.5203H5.51681ZM12.2332 13.5203H8.87499V9.68234C8.87499 8.62428 8.0141 7.76339 6.95603 7.76339C5.89796 7.76339 5.03707 8.62428 5.03707 9.68234V13.5203H1.6789V5.5549L6.95603 0.654605L12.2332 5.5549V13.5203Z" fill="white"/>
</svg>
