<svg width="14" height="9" viewBox="0 0 14 9" fill="none" xmlns="http://www.w3.org/2000/svg">
<path d="M13.7945 8.32877H12.4657V0.205488C12.4657 0.0920117 12.3738 0 12.2603 0H10.0685C9.95498 0 9.863 0.0920117 9.863 0.205488V8.32877H8.30137V2.61644C8.30137 2.50296 8.20939 2.41095 8.09588 2.41095H5.90412C5.79061 2.41095 5.69863 2.50296 5.69863 2.61644V8.32877H4.137V3.71232C4.137 3.59885 4.04502 3.50684 3.93151 3.50684H1.73975C1.62624 3.50684 1.53426 3.59885 1.53426 3.71232V8.32874H0.205488C0.0919844 8.32874 0 8.42075 0 8.53423C0 8.64771 0.0919844 8.73972 0.205488 8.73972H13.7945C13.908 8.73972 14 8.64771 14 8.53423C14 8.42075 13.908 8.32877 13.7945 8.32877ZM3.72602 8.32877H1.94521V3.91781H3.72602V8.32877ZM7.89042 8.32877H6.10961V2.82193H7.89042V8.32877ZM12.0548 8.32877H10.274V0.410977H12.0548V8.32877Z" fill="white"/>
</svg>
