<svg width="14" height="11" viewBox="0 0 14 11" fill="none" xmlns="http://www.w3.org/2000/svg">
<path d="M13.7265 4.16632C13.4614 3.80529 13.0524 3.59761 12.6051 3.59761H12.2664V2.68702C12.2664 1.92022 11.6434 1.29718 10.8734 1.29718H6.80929C6.57606 1.29718 6.3524 1.20453 6.18626 1.04158L5.54725 0.405769C5.28526 0.143777 4.937 0 4.56638 0H1.39051C0.623706 0 0.000674612 0.623032 0.000674612 1.39304V9.49884C-0.00891049 9.80875 0.0837455 10.1155 0.272253 10.3711C0.540635 10.7353 0.952795 10.9462 1.40649 10.9462H11.1801C11.7903 10.9462 12.3239 10.5532 12.5092 9.96851L13.9374 5.4028C14.0684 4.97786 13.9917 4.52736 13.7265 4.16632ZM0.508685 1.39304C0.508685 0.90739 0.904869 0.511205 1.38732 0.511205H4.56638C4.79962 0.511205 5.02007 0.603861 5.18941 0.766808L5.82842 1.40262C6.09041 1.66461 6.43867 1.80839 6.80929 1.80839H10.8766C11.3622 1.80839 11.7584 2.20457 11.7584 2.68702V3.59761H2.8123C2.20205 3.59761 1.66848 3.9906 1.48317 4.57209L0.50549 7.69045V1.39304H0.508685ZM13.4454 5.25264L12.0172 9.81834C11.9022 10.189 11.5635 10.435 11.1769 10.435H1.40329C1.11574 10.435 0.853749 10.3008 0.681217 10.0707C0.51188 9.83751 0.460759 9.54676 0.547025 9.27199L1.96882 4.72546C2.08384 4.35483 2.42251 4.10881 2.80911 4.10881H12.6019C12.8862 4.10881 13.145 4.23981 13.3112 4.46666C13.4837 4.6967 13.5316 4.98106 13.4454 5.25264Z" fill="white"/>
</svg>
