<svg width="212" height="97" viewBox="0 0 212 97" fill="none" xmlns="http://www.w3.org/2000/svg">
<rect width="212" height="97" rx="48.5" fill="white"/>
<path d="M44.116 54.8572L65.6681 39.826C65.6681 39.826 66.6407 39.2638 66.6407 38.3765C66.6407 37.1949 65.4108 36.8106 65.4108 36.8106L53.5542 32.0886C53.1311 31.9217 52.5489 32.3895 53.094 32.9825L57.0193 36.9358C57.0193 36.9358 58.1097 38.0141 58.1097 38.7213C58.1097 39.4285 57.4402 40.0588 57.4402 40.0588L43.1565 53.948C42.6484 54.4421 43.3353 55.3382 44.116 54.8572Z" fill="#2379F4"/>
<path d="M61.5247 16.75L39.9726 31.779C39.9726 31.779 39 32.3412 39 33.2285C39 34.4101 40.2299 34.7944 40.2299 34.7944L52.0865 39.5186C52.5096 39.6833 53.094 39.2155 52.5467 38.6247L48.6214 34.6583C48.6214 34.6583 47.531 33.5821 47.531 32.8727C47.531 32.1633 48.2005 31.5352 48.2005 31.5352L62.4755 17.657C62.9924 17.1629 62.3076 16.2668 61.5247 16.75Z" fill="#2379F4"/>
<path d="M95.8159 40.165C94.4289 39.1164 92.4854 38.4266 89.9854 38.0955L85.3776 37.5032C84.1413 37.3497 83.1926 37.0686 82.5317 36.6599C82.2184 36.4812 81.96 36.2193 81.7847 35.9026C81.6094 35.586 81.5239 35.2269 81.5377 34.8646C81.5377 33.0125 83.2842 32.0873 86.7774 32.089C88.7633 32.0612 90.7381 32.3924 92.6079 33.0668C93.1817 33.2698 93.7341 33.5297 94.2569 33.8429C94.5363 34.0081 94.8002 34.1986 95.0454 34.412C95.193 34.3457 95.3305 34.2586 95.4538 34.1533C95.6458 34.0031 95.8183 33.8293 95.9675 33.6359C96.1418 33.4085 96.2932 33.1641 96.4195 32.9064C96.5609 32.6088 96.6305 32.2818 96.6224 31.9519C96.6224 30.8293 95.7569 29.9187 94.0257 29.2203C92.2945 28.5219 89.8622 28.1769 86.7286 28.1856C85.1211 28.1527 83.5168 28.3442 81.9615 28.7547C80.8055 29.0563 79.7221 29.5904 78.7765 30.3248C78.0025 30.9337 77.3857 31.7217 76.9786 32.6219C76.6008 33.4893 76.4083 34.4271 76.4135 35.3742C76.3859 36.3727 76.5955 37.3633 77.0248 38.2637C77.4257 39.0617 78.0051 39.7551 78.7175 40.2891C79.5047 40.8658 80.3837 41.3032 81.3168 41.5825C82.3984 41.9165 83.5113 42.1375 84.6378 42.2421L88.1618 42.6534C89.7885 42.8259 90.9178 43.1363 91.5497 43.5847C91.8591 43.7983 92.1087 44.0885 92.2747 44.4274C92.4407 44.7662 92.5174 45.1423 92.4974 45.5196C92.4974 46.5215 92.0009 47.2269 91.0077 47.6356C90.0146 48.0443 88.7303 48.2487 87.155 48.2487C86.0363 48.2553 84.9191 48.1644 83.8159 47.977C82.8916 47.8179 81.9786 47.5976 81.0831 47.3174C80.4 47.1023 79.7287 46.8511 79.0719 46.5647C78.6781 46.4034 78.2997 46.2059 77.9418 45.9749L76 49.4774C76.3686 49.7423 76.7617 49.971 77.1738 50.1603C77.9419 50.5279 78.735 50.84 79.5471 51.0941C80.6793 51.4497 81.8332 51.7305 83.0017 51.9348C84.4639 52.1895 85.9459 52.3116 87.4298 52.2996C90.8014 52.2996 93.3844 51.6166 95.1789 50.2508C96.0362 49.6313 96.7296 48.8096 97.1985 47.8576C97.6673 46.9056 97.8972 45.8524 97.8682 44.7901C97.8853 42.7552 97.2012 41.2135 95.8159 40.165Z" fill="#151D21"/>
<path d="M106.298 18.1178C105.425 18.1178 104.757 18.317 104.264 18.7102C103.771 19.1034 103.542 19.7113 103.542 20.5209V51.6554H108.692V18.6196C108.54 18.5601 108.24 18.4593 107.788 18.3247C107.304 18.1825 106.802 18.1128 106.298 18.1178Z" fill="#151D21"/>
<path d="M118.198 18.5731C117.787 18.5682 117.379 18.6461 116.999 18.8022C116.618 18.9583 116.273 19.1895 115.982 19.4821C115.692 19.7746 115.462 20.1228 115.307 20.506C115.152 20.8892 115.075 21.2997 115.08 21.7134C115.082 22.2288 115.211 22.7356 115.454 23.1891C115.697 23.6426 116.047 24.0289 116.473 24.3139C116.9 24.5989 117.389 24.7739 117.899 24.8233C118.408 24.8728 118.921 24.7953 119.394 24.5975C119.867 24.3998 120.284 24.088 120.608 23.6897C120.933 23.2913 121.155 22.8186 121.255 22.3132C121.356 21.8078 121.331 21.2854 121.183 20.7919C121.036 20.2985 120.77 19.8491 120.409 19.4836C120.122 19.1879 119.777 18.9545 119.397 18.7979C119.017 18.6413 118.609 18.5648 118.198 18.5731V18.5731Z" fill="#151D21"/>
<path d="M118.37 28.8168C117.497 28.8168 116.829 29.0082 116.336 29.3858C115.843 29.7635 115.622 30.3688 115.622 31.2225V51.658H120.771V29.3134C120.62 29.2513 120.319 29.153 119.867 29.0159C119.38 28.877 118.876 28.8099 118.37 28.8168Z" fill="#151D21"/>
<path d="M146.384 30.7465C145.354 29.8828 144.164 29.2331 142.884 28.8348C141.451 28.3836 139.957 28.161 138.456 28.1752C136.962 28.1595 135.475 28.3822 134.051 28.8348C132.777 29.2366 131.595 29.8861 130.57 30.7465C129.588 31.5801 128.799 32.6202 128.259 33.7937C127.687 35.0744 127.405 36.4667 127.432 37.8705V51.658H132.581V39.1897C132.581 37.1203 133.071 35.5501 134.051 34.4792C135.03 33.4083 136.498 32.8702 138.456 32.865C140.382 32.865 141.842 33.4031 142.837 34.4792C143.832 35.5553 144.33 37.1255 144.33 39.1897V51.658H149.479V37.8705C149.507 36.4693 149.234 35.0786 148.678 33.7937C148.15 32.6177 147.366 31.5763 146.384 30.7465V30.7465Z" fill="#151D21"/>
<path d="M168.409 46.5129C167.903 46.8416 167.357 47.1025 166.783 47.289C166.001 47.5667 165.176 47.7058 164.346 47.7003C163.821 47.7026 163.298 47.6418 162.787 47.5192C162.309 47.4066 161.862 47.1893 161.477 46.8828C161.087 46.5611 160.784 46.1457 160.596 45.6748C160.365 45.058 160.258 44.4013 160.28 43.7425V33.5894H168.954C169.092 33.2861 169.213 32.9752 169.316 32.6581C169.469 32.1954 169.546 31.7103 169.542 31.2224C169.542 30.4464 169.339 29.8359 168.931 29.4272C168.522 29.0185 167.821 28.8167 166.827 28.8167H160.277V22.8671C160.126 22.8051 159.818 22.7068 159.35 22.5697C158.858 22.4308 158.349 22.362 157.837 22.3653C157.13 22.3252 156.43 22.5256 155.849 22.9344C155.356 23.2991 155.125 23.9019 155.125 24.7633V44.7824C155.125 47.0242 155.803 48.835 157.159 50.2146C158.515 51.5942 160.519 52.284 163.17 52.284C164.032 52.287 164.893 52.2004 165.738 52.0254C166.46 51.8751 167.17 51.6701 167.862 51.4123C168.419 51.2043 168.956 50.9445 169.465 50.6363C169.902 50.3621 170.244 50.1344 170.492 49.9533L168.409 46.5129Z" fill="#151D21"/>
<path d="M40.472 78L41.6458 73.9195H39.559V72.8388H41.9439L42.7265 70.1185H40.4906V69.0379H43.0246L44.1984 64.9574H45.4654L44.2916 69.0379H47.9808L49.1546 64.9574H50.4216L49.2478 69.0379H51.3346V70.1185H48.9497L48.1671 72.8388H50.403V73.9195H47.869L46.6951 78H45.4282L46.602 73.9195H42.9128L41.739 78H40.472ZM43.2109 72.8388H46.9001L47.6827 70.1185H43.9935L43.2109 72.8388ZM59.7822 77.0684L54.6769 66.6157V78H53.3354V64.9574H55.3477L59.8008 74.2176L64.2353 64.9574H66.2476V78H64.8874V66.597L59.7822 77.0684ZM71.6121 78.1677C70.5935 78.1677 69.7613 77.9068 69.1154 77.3851C68.4819 76.8634 68.1651 76.1865 68.1651 75.3542C68.1651 74.4847 68.5005 73.7953 69.1713 73.286C69.842 72.7643 70.7488 72.5035 71.8916 72.5035C72.3884 72.5035 72.8667 72.5594 73.3263 72.6712C73.7983 72.7829 74.233 72.9382 74.6305 73.137V71.9072C74.6305 71.1619 74.4194 70.603 73.997 70.2303C73.5747 69.8453 72.9598 69.6527 72.1524 69.6527C71.6928 69.6527 71.227 69.721 70.755 69.8577C70.2954 69.9819 69.7861 70.1868 69.2272 70.4725L68.7055 69.4105C69.3762 69.0875 69.9973 68.8515 70.5687 68.7025C71.1401 68.5534 71.7115 68.4789 72.2829 68.4789C73.4629 68.4789 74.3697 68.7584 75.0032 69.3173C75.6491 69.8763 75.9721 70.6775 75.9721 71.7209V78H74.6305V77.087C74.2082 77.4472 73.7424 77.7205 73.2331 77.9068C72.7362 78.0807 72.1959 78.1677 71.6121 78.1677ZM69.488 75.3169C69.488 75.8387 69.7054 76.2672 70.1401 76.6026C70.5873 76.9255 71.1587 77.087 71.8543 77.087C72.4133 77.087 72.9226 77.0001 73.3822 76.8262C73.8418 76.6523 74.2579 76.379 74.6305 76.0063V74.2549C74.2455 73.9941 73.8293 73.8077 73.3822 73.6959C72.9474 73.5717 72.463 73.5096 71.9288 73.5096C71.1836 73.5096 70.5873 73.6773 70.1401 74.0127C69.7054 74.3356 69.488 74.7704 69.488 75.3169ZM85.5607 78V77.0125C85.1632 77.3851 84.7036 77.6708 84.1819 77.8696C83.6726 78.0559 83.1261 78.1491 82.5423 78.1491C81.8839 78.1491 81.2691 78.0248 80.6977 77.7764C80.1263 77.528 79.6294 77.1926 79.2071 76.7703C78.7848 76.3355 78.4494 75.82 78.2009 75.2238C77.9649 74.6275 77.8469 73.9941 77.8469 73.3233C77.8469 72.6525 77.9649 72.0252 78.2009 71.4414C78.4494 70.8452 78.7848 70.3359 79.2071 69.9136C79.6294 69.4788 80.1263 69.1372 80.6977 68.8888C81.2815 68.6404 81.9026 68.5161 82.5609 68.5161C83.095 68.5161 83.6167 68.6093 84.126 68.7956C84.6477 68.9695 85.1198 69.2304 85.5421 69.5782V64.9574L86.9209 64.6406V78H85.5607ZM79.2071 73.3047C79.2071 73.8139 79.294 74.2922 79.4679 74.7393C79.6543 75.1865 79.9027 75.5716 80.2132 75.8945C80.5238 76.2175 80.8902 76.4721 81.3125 76.6585C81.7349 76.8448 82.1883 76.938 82.6727 76.938C83.2565 76.938 83.7969 76.8262 84.2937 76.6026C84.803 76.3666 85.2191 76.0436 85.5421 75.6337V71.0129C85.2191 70.6154 84.803 70.3049 84.2937 70.0813C83.7844 69.8453 83.2441 69.7272 82.6727 69.7272C81.7038 69.7272 80.884 70.0688 80.2132 70.752C79.5425 71.4352 79.2071 72.2861 79.2071 73.3047ZM97.1285 77.0125C96.6068 77.3976 96.0602 77.6895 95.4888 77.8882C94.9299 78.0745 94.315 78.1677 93.6442 78.1677C92.9735 78.1677 92.34 78.0435 91.7437 77.795C91.1599 77.5466 90.6506 77.205 90.2159 76.7703C89.7936 76.3355 89.4582 75.8262 89.2097 75.2424C88.9613 74.6462 88.8371 74.0065 88.8371 73.3233C88.8371 72.6525 88.9551 72.0252 89.1911 71.4414C89.4395 70.8576 89.7687 70.3483 90.1786 69.9136C90.5885 69.4788 91.073 69.1372 91.6319 68.8888C92.2033 68.6404 92.8058 68.5161 93.4393 68.5161C94.0604 68.5161 94.638 68.6404 95.1721 68.8888C95.7186 69.1372 96.1844 69.4788 96.5695 69.9136C96.967 70.3483 97.2775 70.8576 97.5011 71.4414C97.7371 72.0252 97.8551 72.6525 97.8551 73.3233V73.7518H90.1973C90.2966 74.671 90.6755 75.435 91.3338 76.0436C91.9922 76.6523 92.7809 76.9566 93.7001 76.9566C94.1846 76.9566 94.6566 76.8821 95.1162 76.733C95.5758 76.5839 95.9609 76.3728 96.2714 76.0995L97.1285 77.0125ZM93.402 69.7272C92.5946 69.7272 91.8928 70.0005 91.2966 70.5471C90.7128 71.0936 90.3587 71.7954 90.2345 72.6525H96.4763C96.3521 71.8327 95.9981 71.1433 95.4143 70.5843C94.8429 70.0129 94.1722 69.7272 93.402 69.7272ZM103.528 78H102.074L99.261 64.9574H100.714L102.932 75.7269L106.155 64.9574H107.552L110.776 75.6896L113.012 64.9574H114.409L111.596 78H110.142L106.844 66.951L103.528 78ZM116.903 66.8765C116.654 66.8765 116.437 66.7833 116.251 66.597C116.064 66.4107 115.971 66.1933 115.971 65.9449C115.971 65.684 116.064 65.4667 116.251 65.2928C116.437 65.1064 116.654 65.0133 116.903 65.0133C117.164 65.0133 117.381 65.1064 117.555 65.2928C117.741 65.4667 117.834 65.684 117.834 65.9449C117.834 66.1933 117.741 66.4107 117.555 66.597C117.381 66.7833 117.164 66.8765 116.903 66.8765ZM117.592 68.6652V78H116.213V68.6652H117.592ZM121.099 75.9132V69.839H119.086V68.6652H121.099V66.2989L122.459 65.9449V68.6652H125.272V69.839H122.459V75.5592C122.459 76.056 122.571 76.4163 122.794 76.6398C123.018 76.851 123.384 76.9566 123.894 76.9566C124.154 76.9566 124.384 76.938 124.583 76.9007C124.794 76.8634 125.018 76.8013 125.254 76.7144V77.9255C125.018 78.0124 124.751 78.0745 124.452 78.1118C124.167 78.1491 123.887 78.1677 123.614 78.1677C122.807 78.1677 122.186 77.9752 121.751 77.5901C121.316 77.205 121.099 76.6461 121.099 75.9132ZM126.749 78V64.9574L128.127 64.6406V69.7645C128.488 69.3422 128.916 69.0254 129.413 68.8143C129.91 68.5907 130.463 68.4789 131.071 68.4789C132.127 68.4789 132.99 68.8143 133.661 69.485C134.332 70.1558 134.667 71.0253 134.667 72.0936V78H133.307V72.373C133.307 71.5532 133.071 70.9011 132.599 70.4166C132.127 69.9322 131.494 69.69 130.699 69.69C130.14 69.69 129.637 69.8142 129.189 70.0626C128.755 70.3111 128.401 70.6651 128.127 71.1247V78H126.749ZM136.006 75.7641L136.956 74.7766C137.627 75.4846 138.341 76.025 139.099 76.3976C139.869 76.7578 140.676 76.938 141.521 76.938C142.539 76.938 143.378 76.6957 144.036 76.2113C144.695 75.7269 145.024 75.112 145.024 74.3667C145.024 73.6959 144.788 73.1804 144.316 72.8202C143.856 72.46 143.092 72.1929 142.024 72.019L140.142 71.7209C138.887 71.5222 137.962 71.1557 137.366 70.6216C136.77 70.0751 136.471 69.3422 136.471 68.423C136.471 67.3423 136.894 66.4666 137.738 65.7958C138.583 65.1251 139.689 64.7897 141.055 64.7897C141.962 64.7897 142.862 64.9387 143.757 65.2369C144.651 65.535 145.465 65.9635 146.198 66.5225L145.378 67.6404C144.67 67.1063 143.949 66.7026 143.216 66.4293C142.484 66.1561 141.744 66.0194 140.999 66.0194C140.068 66.0194 139.31 66.2368 138.726 66.6715C138.155 67.0939 137.869 67.6404 137.869 68.3112C137.869 68.9198 138.074 69.3857 138.484 69.7086C138.894 70.0316 139.571 70.2676 140.515 70.4166L142.378 70.7148C143.794 70.9508 144.825 71.3545 145.471 71.9259C146.129 72.4973 146.458 73.286 146.458 74.2922C146.458 74.8636 146.334 75.3915 146.086 75.8759C145.85 76.3479 145.508 76.7578 145.061 77.1056C144.626 77.441 144.098 77.7081 143.477 77.9068C142.869 78.0932 142.198 78.1863 141.465 78.1863C140.434 78.1863 139.44 77.9814 138.484 77.5715C137.54 77.1491 136.714 76.5467 136.006 75.7641ZM149.525 64.6406V78H148.147V64.9574L149.525 64.6406ZM152.566 66.8765C152.318 66.8765 152.1 66.7833 151.914 66.597C151.728 66.4107 151.635 66.1933 151.635 65.9449C151.635 65.684 151.728 65.4667 151.914 65.2928C152.1 65.1064 152.318 65.0133 152.566 65.0133C152.827 65.0133 153.044 65.1064 153.218 65.2928C153.405 65.4667 153.498 65.684 153.498 65.9449C153.498 66.1933 153.405 66.4107 153.218 66.597C153.044 66.7833 152.827 66.8765 152.566 66.8765ZM153.256 68.6652V78H151.877V68.6652H153.256ZM155.607 78V68.6652H156.986V69.7645C157.346 69.3422 157.774 69.0254 158.271 68.8143C158.768 68.5907 159.321 68.4789 159.93 68.4789C160.985 68.4789 161.849 68.8143 162.519 69.485C163.19 70.1558 163.526 71.0253 163.526 72.0936V78H162.165V72.373C162.165 71.5532 161.929 70.9011 161.457 70.4166C160.985 69.9322 160.352 69.69 159.557 69.69C158.998 69.69 158.495 69.8142 158.048 70.0626C157.613 70.3111 157.259 70.6651 156.986 71.1247V78H155.607ZM166.624 75.9132V69.839H164.612V68.6652H166.624V66.2989L167.984 65.9449V68.6652H170.798V69.839H167.984V75.5592C167.984 76.056 168.096 76.4163 168.32 76.6398C168.543 76.851 168.91 76.9566 169.419 76.9566C169.68 76.9566 169.91 76.938 170.108 76.9007C170.32 76.8634 170.543 76.8013 170.779 76.7144V77.9255C170.543 78.0124 170.276 78.0745 169.978 78.1118C169.692 78.1491 169.413 78.1677 169.139 78.1677C168.332 78.1677 167.711 77.9752 167.276 77.5901C166.842 77.205 166.624 76.6461 166.624 75.9132Z" fill="#151D21"/>
</svg>
