<svg width="102" height="116" viewBox="0 0 102 116" fill="none" xmlns="http://www.w3.org/2000/svg">
<g clip-path="url(#clip0_1_321)">
<path d="M34.9168 68.7527L73.903 41.7319C73.903 41.7319 75.6624 40.7212 75.6624 39.1262C75.6624 37.0021 73.4375 36.3112 73.4375 36.3112L51.9898 27.8228C51.2245 27.5227 50.1712 28.3637 51.1574 29.4296L58.258 36.5362C58.258 36.5362 60.2304 38.4747 60.2304 39.746C60.2304 41.0173 59.0193 42.1504 59.0193 42.1504L33.1811 67.1182C32.2619 68.0065 33.5045 69.6173 34.9168 68.7527Z" fill="#2379F4"/>
<path d="M66.4079 0.249245L27.4217 27.2661C27.4217 27.2661 25.6624 28.2768 25.6624 29.8718C25.6624 31.9959 27.8872 32.6868 27.8872 32.6868L49.335 41.1792C50.1002 41.4753 51.1574 40.6343 50.1673 39.5723L43.0667 32.442C43.0667 32.442 41.0943 30.5075 41.0943 29.2322C41.0943 27.957 42.3054 26.8278 42.3054 26.8278L68.1279 1.87981C69.0628 0.991488 67.8241 -0.619336 66.4079 0.249245Z" fill="#2379F4"/>
<path d="M21.2487 102.642C19.7615 101.517 17.6774 100.778 14.9967 100.422L10.0556 99.7873C8.72993 99.6227 7.71271 99.3213 7.00396 98.883C6.66807 98.6915 6.39096 98.4106 6.20297 98.071C6.01498 97.7315 5.92334 97.3465 5.93808 96.958C5.93808 94.9719 7.81094 93.9798 11.5567 93.9817C13.6862 93.9519 15.8037 94.307 17.8087 95.0302C18.4241 95.2478 19.0164 95.5266 19.5769 95.8623C19.8766 96.0395 20.1596 96.2438 20.4225 96.4726C20.5808 96.4015 20.7282 96.3081 20.8604 96.1952C21.0663 96.0341 21.2513 95.8478 21.4112 95.6404C21.5982 95.3965 21.7606 95.1345 21.896 94.8582C22.0476 94.5391 22.1222 94.1884 22.1136 93.8347C22.1136 92.6308 21.1854 91.6544 19.3291 90.9055C17.4727 90.1566 14.8645 89.7867 11.5043 89.796C9.78059 89.7607 8.06031 89.9661 6.39252 90.4062C5.153 90.7297 3.99128 91.3024 2.97731 92.0899C2.14728 92.7429 1.48592 93.5878 1.04936 94.5531C0.644284 95.4832 0.437843 96.4888 0.443428 97.5044C0.413782 98.5751 0.638522 99.6373 1.09893 100.603C1.52875 101.459 2.15009 102.202 2.91396 102.775C3.7581 103.393 4.70067 103.862 5.70122 104.162C6.86107 104.52 8.05441 104.757 9.26241 104.869L13.0412 105.31C14.7855 105.495 15.9965 105.828 16.674 106.309C17.0058 106.538 17.2735 106.849 17.4515 107.212C17.6294 107.575 17.7117 107.979 17.6903 108.383C17.6903 109.458 17.1578 110.214 16.0929 110.652C15.0279 111.091 13.6508 111.31 11.9615 111.31C10.7619 111.317 9.56397 111.219 8.38106 111.019C7.38985 110.848 6.4109 110.612 5.45058 110.311C4.71812 110.081 3.99827 109.811 3.29404 109.504C2.87169 109.331 2.46603 109.119 2.08219 108.872L0 112.627C0.395304 112.911 0.8168 113.157 1.25868 113.36C2.08228 113.754 2.93273 114.088 3.80357 114.361C5.0176 114.742 6.25503 115.043 7.50798 115.262C9.07594 115.536 10.6651 115.666 12.2562 115.654C15.8716 115.654 18.6414 114.921 20.5657 113.457C21.485 112.792 22.2285 111.911 22.7312 110.89C23.2339 109.87 23.4805 108.74 23.4493 107.601C23.4677 105.419 22.7342 103.766 21.2487 102.642Z" fill="white"/>
<path d="M32.4887 79.0003C31.5523 79.0003 30.8362 79.2139 30.3074 79.6355C29.7786 80.0571 29.5334 80.7089 29.5334 81.5771V114.963H35.0556V79.5384C34.8931 79.4746 34.5709 79.3664 34.0861 79.2222C33.5674 79.0697 33.0291 78.9949 32.4887 79.0003Z" fill="white"/>
<path d="M45.249 79.4885C44.8084 79.4833 44.3713 79.5668 43.9633 79.7342C43.5553 79.9016 43.1847 80.1494 42.8731 80.4632C42.5616 80.7769 42.3155 81.1502 42.1493 81.5611C41.9831 81.972 41.9002 82.4122 41.9054 82.8559C41.9081 83.4085 42.0459 83.9519 42.3066 84.4382C42.5672 84.9245 42.9426 85.3388 43.3998 85.6444C43.857 85.95 44.3818 86.1376 44.928 86.1906C45.4742 86.2437 46.0249 86.1605 46.5317 85.9485C47.0384 85.7365 47.4855 85.4022 47.8336 84.975C48.1817 84.5478 48.4201 84.0409 48.5276 83.499C48.6352 82.9571 48.6087 82.3969 48.4505 81.8677C48.2923 81.3386 48.0072 80.8568 47.6203 80.4648C47.3122 80.1477 46.9428 79.8975 46.535 79.7296C46.1271 79.5617 45.6895 79.4796 45.249 79.4885Z" fill="white"/>
<path d="M45.4335 90.4728C44.497 90.4728 43.7809 90.6781 43.2521 91.083C42.7233 91.488 42.4865 92.1371 42.4865 93.0525V114.966H48.0087V91.0054C47.8462 90.9388 47.5239 90.8334 47.0392 90.6864C46.517 90.5374 45.9761 90.4655 45.4335 90.4728Z" fill="white"/>
<path d="M75.4736 92.5421C74.3689 91.6159 73.0931 90.9192 71.7197 90.4922C70.1833 90.0083 68.5811 89.7696 66.9714 89.7849C65.3697 89.7681 63.7755 90.0068 62.2479 90.4922C60.8828 90.923 59.6148 91.6195 58.516 92.5421C57.4627 93.4359 56.6167 94.5512 56.0372 95.8096C55.4244 97.1829 55.1215 98.6759 55.1503 100.181V114.966H60.6725V101.596C60.6725 99.3768 61.1976 97.693 62.2479 96.5447C63.2982 95.3963 64.8727 94.8194 66.9714 94.8138C69.037 94.8138 70.6033 95.3908 71.6701 96.5447C72.7369 97.6986 73.2703 99.3823 73.2703 101.596V114.966H78.7925V100.181C78.822 98.6787 78.5289 97.1875 77.9331 95.8096C77.3668 94.5486 76.5263 93.4318 75.4736 92.5421Z" fill="white"/>
<path d="M99.091 109.449C98.5482 109.801 97.9621 110.081 97.3476 110.281C96.5081 110.578 95.6238 110.728 94.7338 110.722C94.1709 110.724 93.6096 110.659 93.062 110.528C92.5497 110.407 92.0701 110.174 91.6574 109.845C91.2394 109.5 90.9145 109.055 90.7127 108.55C90.465 107.888 90.3498 107.184 90.3739 106.478V95.5905H99.6749C99.8231 95.2653 99.9527 94.9319 100.063 94.5919C100.228 94.0957 100.31 93.5756 100.306 93.0524C100.306 92.2203 100.088 91.5657 99.6501 91.1274C99.2122 90.6891 98.4603 90.4728 97.3944 90.4728H90.3712V84.093C90.2087 84.0264 89.8782 83.921 89.3769 83.774C88.849 83.6251 88.3029 83.5514 87.7547 83.5549C86.9962 83.5118 86.2455 83.7268 85.6229 84.1651C85.0941 84.5562 84.8462 85.2025 84.8462 86.1262V107.593C84.8462 109.997 85.5733 111.938 87.0276 113.418C88.4818 114.897 90.6301 115.637 93.4724 115.637C94.3975 115.64 95.3205 115.547 96.2266 115.36C97.0012 115.198 97.7626 114.979 98.5044 114.702C99.1017 114.479 99.677 114.201 100.223 113.87C100.691 113.576 101.058 113.332 101.325 113.138L99.091 109.449Z" fill="white"/>
</g>
<defs>
<clipPath id="clip0_1_321">
<rect width="101.325" height="115.654" fill="white"/>
</clipPath>
</defs>
</svg>
