<svg width="17" height="17" viewBox="0 0 17 17" fill="none" xmlns="http://www.w3.org/2000/svg">
<g clip-path="url(#clip0_1527_4642)">
<path d="M0.0350342 0.0300293H16.035V16.03H0.0350342V0.0300293Z" fill="#808080" fill-opacity="0.01"/>
<path d="M3.03503 1.03003C1.92703 1.03003 1.03503 1.92203 1.03503 3.03003V13.03C1.03503 14.138 1.92703 15.03 3.03503 15.03H13.035C14.143 15.03 15.035 14.138 15.035 13.03V3.03003C15.035 1.92203 14.143 1.03003 13.035 1.03003H3.03503ZM3.03503 5.03003H13.035V13.03H3.03503V5.03003Z" fill="#232323"/>
<path d="M6.03503 4.53003C6.03503 4.25389 5.81118 4.03003 5.53503 4.03003C5.25889 4.03003 5.03503 4.25389 5.03503 4.53003V13.28C5.03503 13.5562 5.25889 13.78 5.53503 13.78C5.81118 13.78 6.03503 13.5562 6.03503 13.28V4.53003Z" fill="#232323"/>
<path d="M9.03503 5.03003C9.03503 4.75389 8.81118 4.53003 8.53503 4.53003C8.25889 4.53003 8.03503 4.75389 8.03503 5.03003V13.28C8.03503 13.5562 8.25889 13.78 8.53503 13.78C8.81118 13.78 9.03503 13.5562 9.03503 13.28V5.03003Z" fill="#232323"/>
<path d="M12.035 5.03003C12.035 4.75389 11.8112 4.53003 11.535 4.53003C11.2589 4.53003 11.035 4.75389 11.035 5.03003V14.03C11.035 14.3062 11.2589 14.53 11.535 14.53C11.8112 14.53 12.035 14.3062 12.035 14.03V5.03003Z" fill="#232323"/>
<path d="M13.535 7.03003H2.53503C2.25889 7.03003 2.03503 7.25389 2.03503 7.53003C2.03503 7.80617 2.25889 8.03003 2.53503 8.03003H13.535C13.8112 8.03003 14.035 7.80617 14.035 7.53003C14.035 7.25389 13.8112 7.03003 13.535 7.03003Z" fill="#232323"/>
<path d="M13.785 10.03H2.53503C2.25889 10.03 2.03503 10.2539 2.03503 10.53C2.03503 10.8062 2.25889 11.03 2.53503 11.03H13.785C14.0612 11.03 14.285 10.8062 14.285 10.53C14.285 10.2539 14.0612 10.03 13.785 10.03Z" fill="#232323"/>
<path opacity="0.5" d="M9.03503 8.03003H11.035V10.03H9.03503V8.03003Z" fill="#232323"/>
</g>
<defs>
<clipPath id="clip0_1527_4642">
<rect width="16" height="16" fill="white" transform="translate(0.0350342 0.0300293)"/>
</clipPath>
</defs>
</svg>
