<svg width="16" height="16" viewBox="0 0 16 16" fill="none" xmlns="http://www.w3.org/2000/svg">
<path d="M5 2.00305L0 8.00305L5 14.0031H16V2.00305H5ZM7 5.00305H8C8.277 5.00305 8.526 5.11505 8.707 5.29605L10 6.58905L11.293 5.29605C11.3856 5.20288 11.4958 5.129 11.6171 5.0787C11.7385 5.02841 11.8686 5.0027 12 5.00305H13V6.00305C13.0002 6.1344 12.9744 6.26448 12.9241 6.38582C12.8738 6.50715 12.8 6.61735 12.707 6.71005L11.414 8.00305L12.707 9.29605C12.887 9.47605 13 9.72605 13 10.0031V11.0031H12C11.8687 11.0032 11.7386 10.9775 11.6172 10.9272C11.4959 10.8769 11.3857 10.8031 11.293 10.7101L10 9.41705L8.707 10.7101C8.6143 10.8031 8.50409 10.8769 8.38275 10.9272C8.26141 10.9775 8.13134 11.0032 8 11.0031H7V10.0031C7 9.72605 7.112 9.47605 7.293 9.29605L8.586 8.00305L7.293 6.71005C7.19996 6.61735 7.12618 6.50715 7.0759 6.38582C7.02561 6.26448 6.99981 6.1344 7 6.00305V5.00305Z" fill="#232323"/>
</svg>
