<svg width="16" height="16" viewBox="0 0 16 16" fill="none" xmlns="http://www.w3.org/2000/svg">
<g clip-path="url(#clip0_514_3608)">
<path d="M2 2.00299C2 2.00299 0 2.00299 0 4.00299V12.003C0 14.003 2 14.003 2 14.003H13C13 14.003 15 14.003 15 12.003V4.00299C15 2.00299 13 2.00299 13 2.00299H2ZM2.25 4.00299H3.75C3.8163 4.00299 3.8799 4.02932 3.92679 4.0762C3.97367 4.12309 4 4.18669 4 4.25299V5.75299C4 5.81929 3.97367 5.88288 3.92679 5.92976C3.8799 5.97665 3.8163 6.00299 3.75 6.00299H2.25C2.1837 6.00299 2.1201 5.97665 2.07321 5.92976C2.02633 5.88288 2 5.81929 2 5.75299V4.25299C2 4.18669 2.02633 4.12309 2.07321 4.0762C2.1201 4.02932 2.1837 4.00299 2.25 4.00299ZM5.25 4.00299H6.75C6.8163 4.00299 6.8799 4.02932 6.92679 4.0762C6.97367 4.12309 7 4.18669 7 4.25299V5.75299C7 5.81929 6.97367 5.88288 6.92679 5.92976C6.8799 5.97665 6.8163 6.00299 6.75 6.00299H5.25C5.1837 6.00299 5.1201 5.97665 5.07321 5.92976C5.02633 5.88288 5 5.81929 5 5.75299V4.25299C5 4.18669 5.02633 4.12309 5.07321 4.0762C5.1201 4.02932 5.1837 4.00299 5.25 4.00299ZM8.25 4.00299H9.75C9.8163 4.00299 9.8799 4.02932 9.92679 4.0762C9.97367 4.12309 10 4.18669 10 4.25299V5.75299C10 5.81929 9.97367 5.88288 9.92679 5.92976C9.8799 5.97665 9.8163 6.00299 9.75 6.00299H8.25C8.1837 6.00299 8.1201 5.97665 8.07321 5.92976C8.02633 5.88288 8 5.81929 8 5.75299V4.25299C8 4.18669 8.02633 4.12309 8.07321 4.0762C8.1201 4.02932 8.1837 4.00299 8.25 4.00299ZM11.25 4.00299H12.75C12.8163 4.00299 12.8799 4.02932 12.9268 4.0762C12.9737 4.12309 13 4.18669 13 4.25299V5.75299C13 5.81929 12.9737 5.88288 12.9268 5.92976C12.8799 5.97665 12.8163 6.00299 12.75 6.00299H11.25C11.1837 6.00299 11.1201 5.97665 11.0732 5.92976C11.0263 5.88288 11 5.81929 11 5.75299V4.25299C11 4.18669 11.0263 4.12309 11.0732 4.0762C11.1201 4.02932 11.1837 4.00299 11.25 4.00299ZM2.25 7.00299H3.75C3.8163 7.00299 3.8799 7.02932 3.92679 7.0762C3.97367 7.12309 4 7.18669 4 7.25299V8.75299C4 8.81929 3.97367 8.88288 3.92679 8.92976C3.8799 8.97665 3.8163 9.00299 3.75 9.00299H2.25C2.1837 9.00299 2.1201 8.97665 2.07321 8.92976C2.02633 8.88288 2 8.81929 2 8.75299V7.25299C2 7.18669 2.02633 7.12309 2.07321 7.0762C2.1201 7.02932 2.1837 7.00299 2.25 7.00299ZM5.25 7.00299H6.75C6.8163 7.00299 6.8799 7.02932 6.92679 7.0762C6.97367 7.12309 7 7.18669 7 7.25299V8.75299C7 8.81929 6.97367 8.88288 6.92679 8.92976C6.8799 8.97665 6.8163 9.00299 6.75 9.00299H5.25C5.1837 9.00299 5.1201 8.97665 5.07321 8.92976C5.02633 8.88288 5 8.81929 5 8.75299V7.25299C5 7.18669 5.02633 7.12309 5.07321 7.0762C5.1201 7.02932 5.1837 7.00299 5.25 7.00299ZM8.25 7.00299H9.75C9.8163 7.00299 9.8799 7.02932 9.92679 7.0762C9.97367 7.12309 10 7.18669 10 7.25299V8.75299C10 8.81929 9.97367 8.88288 9.92679 8.92976C9.8799 8.97665 9.8163 9.00299 9.75 9.00299H8.25C8.1837 9.00299 8.1201 8.97665 8.07321 8.92976C8.02633 8.88288 8 8.81929 8 8.75299V7.25299C8 7.18669 8.02633 7.12309 8.07321 7.0762C8.1201 7.02932 8.1837 7.00299 8.25 7.00299ZM11.25 7.00299H12.75C12.8163 7.00299 12.8799 7.02932 12.9268 7.0762C12.9737 7.12309 13 7.18669 13 7.25299V8.75299C13 8.81929 12.9737 8.88288 12.9268 8.92976C12.8799 8.97665 12.8163 9.00299 12.75 9.00299H11.25C11.1837 9.00299 11.1201 8.97665 11.0732 8.92976C11.0263 8.88288 11 8.81929 11 8.75299V7.25299C11 7.18669 11.0263 7.12309 11.0732 7.0762C11.1201 7.02932 11.1837 7.00299 11.25 7.00299ZM4.25 10.003H10.75C10.8163 10.003 10.8799 10.0293 10.9268 10.0762C10.9737 10.1231 11 10.1867 11 10.253V11.753C11 11.8193 10.9737 11.8829 10.9268 11.9298C10.8799 11.9766 10.8163 12.003 10.75 12.003H4.25C4.1837 12.003 4.1201 11.9766 4.07321 11.9298C4.02633 11.8829 4 11.8193 4 11.753V10.253C4 10.1867 4.02633 10.1231 4.07321 10.0762C4.1201 10.0293 4.1837 10.003 4.25 10.003Z" fill="#232323"/>
<path d="M0 0.00299072H16V16.003H0V0.00299072Z" fill="#808080" fill-opacity="0.01"/>
</g>
<defs>
<clipPath id="clip0_514_3608">
<rect width="16" height="16" fill="white"/>
</clipPath>
</defs>
</svg>
