<svg xmlns="http://www.w3.org/2000/svg"
     width="16" height="16" viewBox="0 0 16 16">
  <g>
    <path d="M1.531,0.468 0.469,1.531 14.469,15.531 15.531,14.469 13.15,12.088
             A8,8 0 0 0 15.738,9.99 8,8 0 0 0 8,4 8,8 0 0 0 4.107,5.045 Z
             M8,6 a4,4 0 0 1 4,4 4,4 0 0 1 -0.699,2.238 l -1.471,-1.471
             A2,2 0 0 0 10,10 a2,2 0 0 0 -2,-2 2,2 0 0 0 -0.768,0.17
             L5.761,6.699 A4,4 0 0 1 8,6 Z
             M1.854,6.916 A8,8 0 0 0 0.262,10.01 8,8 0 0 0 8,16
             A8,8 0 0 0 10.512,15.574 L8.842,13.904
             A4,4 0 0 1 8,14 a4,4 0 0 1 -4,-4
             4,4 0 0 1 0.096,-0.842 Z"
          fill="#2e3436"/>
  </g>
</svg>
