<svg width="61" height="81" viewBox="0 0 61 81" fill="none" xmlns="http://www.w3.org/2000/svg">
<path fill-rule="evenodd" clip-rule="evenodd" d="M48.9421 19.0163V64.6845L48.9429 64.6844C48.9429 66.6219 47.4207 68.1442 45.4832 68.0058H3.55089C1.61352 68.0058 0.0911865 66.4835 0.0911865 64.5461V3.65456C0.0911865 1.71719 1.61343 0.194855 3.55089 0.194855H29.2909H29.9829C30.0625 0.274436 30.0963 0.308254 30.137 0.322625C30.167 0.333245 30.2009 0.333245 30.2597 0.333245C30.3289 0.333245 30.3981 0.367842 30.4673 0.402439C30.5365 0.437037 30.6056 0.471634 30.6748 0.471634C30.744 0.471634 30.7786 0.506232 30.8132 0.54083C30.8478 0.575427 30.8824 0.610024 30.9516 0.610024C31.0208 0.610024 31.0554 0.644622 31.09 0.679219C31.1246 0.713816 31.1592 0.748414 31.2284 0.748414L31.5052 1.02519C31.6436 1.02519 31.782 1.16358 31.782 1.16358L47.9733 16.3869C48.0425 16.4561 48.0771 16.5253 48.1117 16.5945C48.1463 16.6637 48.1809 16.7329 48.2501 16.8021L48.3885 16.9405C48.4414 17.0462 48.474 17.1317 48.5019 17.2047L48.5019 17.2048C48.5471 17.323 48.5798 17.4085 48.6653 17.494V17.6324C48.8037 18.0475 48.9421 18.6011 48.9421 19.0163ZM36.7639 15.5557L32.7506 11.8192V15.5557H36.7639ZM7.01051 61.224V7.25159H25.8315V19.0145C25.8315 20.952 27.3539 22.4742 29.2912 22.4742H42.0231V61.2233L7.01051 61.224ZM19.8807 73.1258C17.9434 73.1258 16.421 74.6481 16.421 76.5855L16.4212 76.5854C16.4212 78.5227 18.0819 80.0451 19.8809 80.0451H57.5229C59.4603 80.0451 60.9826 78.5228 60.9826 76.5854V37.9744C60.9826 36.037 59.4603 34.5147 57.5229 34.5147C55.5856 34.5147 54.0632 36.0369 54.0632 37.9744V73.1258H19.8807Z" fill="#00102B"/>
</svg>
