<svg width="15" height="15" viewBox="0 0 15 15" fill="none" xmlns="http://www.w3.org/2000/svg">
<path fill-rule="evenodd" clip-rule="evenodd" d="M0.616652 0.616652C1.47164 -0.205551 2.85251 -0.205551 3.70688 0.616652L7.48763 4.43023L11.3012 0.616652C12.1234 -0.205551 13.5036 -0.205551 14.3588 0.616652C15.2137 1.47164 15.2137 2.85251 14.3588 3.70688L10.578 7.48763L14.3588 11.3012C15.2137 12.1234 15.2137 13.5036 14.3588 14.3588C13.5038 15.2139 12.1229 15.2137 11.3012 14.3588L7.48763 10.578L3.70688 14.3588C2.85189 15.2137 1.47103 15.2137 0.616652 14.3588C-0.205551 13.5038 -0.205551 12.1229 0.616652 11.3012L4.43023 7.48763L0.616652 3.70688C-0.205551 2.85189 -0.205551 1.47103 0.616652 0.616652Z" fill="white"/>
</svg>
