<svg xmlns="http://www.w3.org/2000/svg" width="30" height="30" fill="none"><path d="M2.003 14.979c-.079 3.893 1.331 7.66 3.921 10.475s6.15 4.45 9.899 4.546c2.472-.03 4.89-.749 7.003-2.084a14.08 14.08 0 0 0 4.998-5.505 1.55 1.55 0 0 0-.051-1.528 1.43 1.43 0 0 0-1.316-.686l-.158.013c-.19.015-.38.029-.578.029-2.983-.096-5.807-1.413-7.857-3.667s-3.153-5.256-3.075-8.355c0-2.095.504-4.158 1.468-5.998a1.55 1.55 0 0 0-.051-1.527A1.43 1.43 0 0 0 14.89.003C11.321.355 8.01 2.093 5.621 4.87s-3.681 6.386-3.618 10.109zM12.609 3.503c-.467 1.524-.705 3.114-.705 4.715-.057 3.559 1.12 7.019 3.316 9.751s5.264 4.554 8.645 5.132c-2.009 2.449-4.943 3.871-8.041 3.899-2.983-.094-5.807-1.413-7.856-3.666s-3.155-5.257-3.076-8.355c-.034-2.511.693-4.971 2.078-7.029s3.357-3.615 5.639-4.447z" fill="#bdc0d1"/></svg>
