<svg width="24" height="27" viewBox="0 0 24 27" fill="none" xmlns="http://www.w3.org/2000/svg">
<path d="M0.00287444 13.4812C-0.0696142 16.985 1.23143 20.3752 3.62219 22.9088C6.01311 25.4435 9.2988 26.9138 12.7597 27C15.0419 26.9734 17.274 26.3255 19.2238 25.1246C21.1735 23.9225 22.7669 22.2116 23.8369 20.1704C24.0706 19.7377 24.0518 19.21 23.7894 18.7949C23.5256 18.3798 23.0607 18.1432 22.5745 18.1774L22.4283 18.1888C22.2533 18.2027 22.0771 18.2153 21.8946 18.2153C19.1413 18.1293 16.5341 16.9436 14.6419 14.9149C12.7509 12.8877 11.7311 10.1846 11.8036 7.39569C11.8036 5.51019 12.2685 3.65372 13.1584 1.99736C13.3908 1.56459 13.3733 1.03817 13.1109 0.623091C12.8484 0.208013 12.3835 -0.029865 11.8986 0.0030161C8.60399 0.319374 5.54811 1.88346 3.34235 4.38284C1.13768 6.8808 -0.0558723 10.1304 0.00267916 13.4813L0.00287444 13.4812ZM9.79281 3.15264C9.36161 4.52438 9.14164 5.95556 9.14164 7.39575C9.08915 10.5986 10.1753 13.7128 12.2024 16.1716C14.2296 18.6316 17.0619 20.2702 20.1824 20.7905C18.3277 22.9949 15.6192 24.2743 12.7598 24.2995C10.0064 24.2148 7.3993 23.0278 5.50838 21.0004C3.61614 18.9732 2.59629 16.2691 2.66879 13.4812C2.63755 11.2211 3.3087 9.00774 4.58726 7.15538C5.86458 5.30151 7.68557 3.90194 9.79291 3.15296L9.79281 3.15264Z" fill="#BDC0D1"/>
</svg>
