<svg width="82" height="82" viewBox="0 0 82 82" fill="none" xmlns="http://www.w3.org/2000/svg">
<path fill-rule="evenodd" clip-rule="evenodd" d="M26.4746 0.91531C20.4699 0.91531 15.5196 5.86131 15.5196 11.8684V15.5172H11.8702C5.86201 15.5172 0.915161 20.4667 0.915161 26.4704V55.6775C0.915161 61.6813 5.86543 66.6307 11.8702 66.6307H15.5162V70.2829C15.5162 76.2866 20.4802 81.25 26.4852 81.25H55.6773C61.682 81.25 66.6525 76.2869 66.6525 70.2829V66.6341H70.295C76.2997 66.6341 81.25 61.6847 81.25 55.681V26.4703C81.25 20.4666 76.3031 15.5171 70.295 15.5171H66.6455V11.8684C66.6455 5.86122 61.6953 0.915222 55.6905 0.915222L26.4746 0.91531ZM26.4748 8.21623H55.6869C57.7718 8.21623 59.3397 9.78051 59.3397 11.8684V15.5172H22.8253V11.8684C22.8253 9.78051 24.3899 8.21623 26.4748 8.21623ZM70.2982 22.8216H11.8703L11.8708 22.8215C9.78255 22.8215 8.218 24.3858 8.218 26.4703V55.681C8.218 57.7655 9.78255 59.3298 11.8708 59.3298H15.5133V55.6741C15.5133 49.6673 20.4776 44.735 26.4824 44.735H55.6771C61.6814 44.735 66.6522 49.6704 66.6522 55.6741V59.3332H70.2982C72.3865 59.3332 73.9511 57.7655 73.9511 55.681V26.4738C73.9511 24.3858 72.3831 22.8216 70.2982 22.8216ZM19.1725 30.1225C17.1561 30.1225 15.5197 31.7586 15.5197 33.7747C15.5197 35.7908 17.1561 37.4269 19.1725 37.4269C21.1889 37.4269 22.8253 35.7908 22.8253 33.7747C22.8253 31.7586 21.1889 30.1225 19.1725 30.1225ZM55.6762 52.0357H26.4815L26.4841 52.0322C24.3958 52.0322 22.8176 53.5862 22.8176 55.6707V70.283C22.8176 72.371 24.3958 73.9489 26.4807 73.9489H55.6728C57.7611 73.9489 59.3393 72.3675 59.3393 70.283V55.6742C59.3393 53.5863 57.7611 52.0357 55.6762 52.0357Z" fill="black"/>
</svg>
