<svg width="32" height="32" viewBox="0 0 32 32" fill="none" xmlns="http://www.w3.org/2000/svg">
<path d="M7.99999 24H5.33332C4.62608 24 3.9478 23.719 3.4477 23.219C2.94761 22.7189 2.66666 22.0406 2.66666 21.3333V14.6667C2.66666 13.9594 2.94761 13.2811 3.4477 12.781C3.9478 12.281 4.62608 12 5.33332 12H26.6667C27.3739 12 28.0522 12.281 28.5523 12.781C29.0524 13.2811 29.3333 13.9594 29.3333 14.6667V21.3333C29.3333 22.0406 29.0524 22.7189 28.5523 23.219C28.0522 23.719 27.3739 24 26.6667 24H24" stroke="white" stroke-width="2.66667" stroke-linecap="round" stroke-linejoin="round"/>
<path d="M8 12V3.99999C8 3.64637 8.14048 3.30723 8.39052 3.05718C8.64057 2.80713 8.97971 2.66666 9.33333 2.66666H22.6667C23.0203 2.66666 23.3594 2.80713 23.6095 3.05718C23.8595 3.30723 24 3.64637 24 3.99999V12" stroke="white" stroke-width="2.66667" stroke-linecap="round" stroke-linejoin="round"/>
<path d="M22.6667 18.6667H9.33333C8.59695 18.6667 8 19.2636 8 20V28C8 28.7364 8.59695 29.3333 9.33333 29.3333H22.6667C23.403 29.3333 24 28.7364 24 28V20C24 19.2636 23.403 18.6667 22.6667 18.6667Z" stroke="white" stroke-width="2.66667" stroke-linecap="round" stroke-linejoin="round"/>
</svg>
