<svg width="96" height="103" viewBox="0 0 96 103" fill="none" xmlns="http://www.w3.org/2000/svg">
<path d="M62.9123 6.27167L55.5156 15.1874L53.8164 13.7776C52.6296 12.9698 50.8463 13.2245 49.9372 14.3321C36.6688 30.3727 23.3937 46.4215 10.1278 62.4592C6.14832 67.1256 5.03761 77.6899 17.6817 88.2187C30.3032 98.6505 40.45 95.4849 44.3232 90.8284L84.2024 42.7593C85.1728 41.5896 84.9913 39.6411 83.8216 38.6706L82.3318 37.4347L89.7285 28.519C90.6989 27.3493 90.5175 25.4008 89.3478 24.4303L67.0008 5.89077C65.7262 5.00526 63.6861 5.38589 62.9121 6.27151L62.9123 6.27167ZM65.5278 12.2143L83.4053 27.0459L77.8627 33.7268C72.1732 29.0263 66.2491 24.1114 59.9852 18.8951L65.5278 12.2143ZM52.5526 20.2747C61.8907 28.0612 69.6535 34.4964 77.8792 41.2862L39.8731 87.0975C38.878 88.2911 36.4375 90.1373 32.2764 89.4803C31.4798 84.5013 29.5592 80.4273 26.283 77.7093C23.0153 74.9983 18.6721 73.8562 13.6501 73.9883C12.2405 70.0384 13.5765 67.3445 14.5586 66.214C27.2182 50.9071 39.8878 35.5883 52.5529 20.2747L52.5526 20.2747ZM64.6052 31.5167C60.0757 33.5064 55.9735 34.9813 51.4428 36.9606L54.3293 39.3553L36.6784 60.6311L34.6837 56.972L43.5283 46.311C44.4308 46.1706 45.2871 45.7069 45.9147 44.9504C47.281 43.3035 47.0539 40.8651 45.4071 39.4988C43.7602 38.1325 41.3218 38.3596 39.9555 40.0065C39.3351 40.7543 39.0588 41.6795 39.0782 42.5798L29.3833 54.2658C28.3476 55.5141 27.9598 56.8283 28.7685 58.2753L32.6608 65.4737L29.3584 69.4543C28.47 69.6015 27.6311 70.0206 27.0106 70.7684C25.6443 72.4153 25.8714 74.8537 27.5183 76.22C29.1652 77.5863 31.6035 77.3592 32.9698 75.7123C33.5974 74.9558 33.8758 74.0519 33.8471 73.139C35.7716 70.8252 37.6903 68.5066 39.6021 66.2021L47.6629 68.8023C49.0115 69.2433 50.1869 68.6022 51.2225 67.3539L59.4491 57.4378L60.9389 58.6738L67.1188 51.2248L59.6698 45.0449L53.4899 52.4939L54.9797 53.7299L47.5831 62.6456L43.6185 61.3609L58.7975 43.0647L61.684 45.4593C62.7713 40.6433 63.4642 36.3204 64.604 31.5181L64.6052 31.5167ZM22.5748 82.1787C23.8812 83.2626 24.9243 84.7764 25.6714 86.8306C24.3394 86.0203 22.9252 85.019 21.3893 83.7497C19.8064 82.4365 18.5402 81.1797 17.4736 79.9902C19.6091 80.3471 21.277 81.102 22.5747 82.1786L22.5748 82.1787Z" fill="black"/>
</svg>
