<svg width="32" height="32" viewBox="0 0 32 32" fill="none" xmlns="http://www.w3.org/2000/svg">
<path d="M13.3333 10.6667C14.0697 10.6667 14.6667 10.0697 14.6667 9.33333C14.6667 8.59695 14.0697 8 13.3333 8C12.597 8 12 8.59695 12 9.33333C12 10.0697 12.597 10.6667 13.3333 10.6667Z" stroke="white" stroke-width="2.66667" stroke-linecap="round" stroke-linejoin="round"/>
<path d="M5.33333 28C6.06971 28 6.66667 27.403 6.66667 26.6666C6.66667 25.9303 6.06971 25.3333 5.33333 25.3333C4.59695 25.3333 4 25.9303 4 26.6666C4 27.403 4.59695 28 5.33333 28Z" stroke="white" stroke-width="2.66667" stroke-linecap="round" stroke-linejoin="round"/>
<path d="M6.26666 25.7334L25.3333 6.66669" stroke="white" stroke-width="2.66667" stroke-linecap="round" stroke-linejoin="round"/>
<path d="M28 4L24 5.33333L26.6667 8L28 4Z" stroke="white" stroke-width="2.66667" stroke-linecap="round" stroke-linejoin="round"/>
<path d="M12.3467 10.24L6.66669 16L9.33335 22.6667" stroke="white" stroke-width="2.66667" stroke-linecap="round" stroke-linejoin="round"/>
<path d="M13.3333 18.6667L20 21.3334L24.6666 16.6667" stroke="white" stroke-width="2.66667" stroke-linecap="round" stroke-linejoin="round"/>
<path d="M24 16L25.3333 14.6667L26.6667 16L25.3333 17.3334L24 16Z" stroke="white" stroke-width="2.66667" stroke-linecap="round" stroke-linejoin="round"/>
</svg>
