<svg xmlns="http://www.w3.org/2000/svg" width="30" height="30" fill="#bdc0d1"><path d="M24.671 13.576L15.853.467A1.03 1.03 0 0 0 14.991 0a1.03 1.03 0 0 0-.862.467L5.326 13.576a.95.95 0 0 0-.059.102 11.25 11.25 0 0 0 .316 10.94C7.573 27.958 11.147 30 14.999 30s7.426-2.042 9.418-5.381a11.25 11.25 0 0 0 .315-10.94.97.97 0 0 0-.062-.102zm-3.357 11.686c-2.028 2.051-4.904 2.993-7.734 2.531s-5.269-2.268-6.559-4.859a9.14 9.14 0 0 1 .048-8.227l7.929-11.79 7.929 11.79a9.1 9.1 0 0 1 .908 5.546c-.29 1.9-1.174 3.654-2.521 5.009zm-8.55-2.443a4.18 4.18 0 0 1-1.953-2.532 4.24 4.24 0 0 1 .395-3.187 1.06 1.06 0 0 0-.382-1.434 1.03 1.03 0 0 0-1.417.387 6.34 6.34 0 0 0-.584 4.777 6.27 6.27 0 0 0 2.927 3.792c.497.289 1.132.116 1.418-.387a1.06 1.06 0 0 0-.384-1.434z"/></svg>
