<svg xmlns="http://www.w3.org/2000/svg" width="30" height="30" fill="#bdc0d1" fill-rule="evenodd"><path d="M5.178 6.25H1.25a1.25 1.25 0 1 1 0-2.5h3.928c.366-1.44 1.356-2.641 2.7-3.275a4.97 4.97 0 0 1 4.243 0 4.98 4.98 0 0 1 2.7 3.275H28.75a1.25 1.25 0 0 1 0 2.5H14.822c-.366 1.44-1.356 2.641-2.7 3.275a4.97 4.97 0 0 1-4.243 0 4.98 4.98 0 0 1-2.7-3.275zm7.131-2.207A2.5 2.5 0 0 0 10 2.5h0a2.5 2.5 0 1 0 2.31 1.543zm2.869 12.207H1.25A1.25 1.25 0 0 1 0 15.001a1.25 1.25 0 0 1 1.25-1.25h13.928c.366-1.44 1.356-2.642 2.7-3.275s2.9-.634 4.243 0a4.98 4.98 0 0 1 2.7 3.275h3.928a1.25 1.25 0 0 1 0 2.5h-3.928c-.366 1.44-1.356 2.641-2.7 3.275s-2.9.633-4.243 0-2.334-1.835-2.7-3.275zm7.131-2.207A2.5 2.5 0 0 0 20 12.501h0a2.5 2.5 0 1 0 2.31 1.542zM5.178 26.251H1.25a1.25 1.25 0 1 1 0-2.5h3.928c.366-1.44 1.356-2.642 2.7-3.275s2.9-.634 4.243 0a4.98 4.98 0 0 1 2.7 3.275H28.75a1.25 1.25 0 1 1 0 2.5H14.822c-.366 1.44-1.356 2.641-2.7 3.275a4.97 4.97 0 0 1-4.243 0 4.98 4.98 0 0 1-2.7-3.275zm7.131-2.207A2.5 2.5 0 0 0 10 22.501h0a2.5 2.5 0 1 0 2.31 1.543z"/></svg>
