<svg width="25" height="34" viewBox="0 0 25 34" fill="none" xmlns="http://www.w3.org/2000/svg">
<mask id="path-1-inside-1" fill="white">
<path d="M23.4894 15.2423L13.4696 0.524844C13.2523 0.197379 12.8835 0 12.4903 0C12.0955 0 11.7282 0.197398 11.511 0.524844L1.50649 15.2423C1.482 15.279 1.45905 15.3172 1.43916 15.357C-0.600596 19.2315 -0.464431 23.8909 1.79876 27.6398C4.06039 31.3888 8.12172 33.6811 12.4993 33.6811C16.8789 33.6811 20.9384 31.3888 23.2015 27.6398C25.4646 23.8908 25.6008 19.2313 23.5595 15.357C23.5381 15.3172 23.5152 15.279 23.4892 15.2423H23.4894ZM19.6746 28.3622C17.3701 30.6651 14.1014 31.7225 10.8864 31.2038C7.66993 30.6866 4.89878 28.6575 3.43291 25.7485C1.9685 22.8396 1.9884 19.4044 3.488 16.5122L12.4979 3.27594L21.5077 16.5122C22.5069 18.4234 22.8696 20.6054 22.5391 22.7388C22.2085 24.8704 21.2047 26.8414 19.6745 28.3621L19.6746 28.3622Z"/>
</mask>
<path d="M23.4894 15.2423L13.4696 0.524844C13.2523 0.197379 12.8835 0 12.4903 0C12.0955 0 11.7282 0.197398 11.511 0.524844L1.50649 15.2423C1.482 15.279 1.45905 15.3172 1.43916 15.357C-0.600596 19.2315 -0.464431 23.8909 1.79876 27.6398C4.06039 31.3888 8.12172 33.6811 12.4993 33.6811C16.8789 33.6811 20.9384 31.3888 23.2015 27.6398C25.4646 23.8908 25.6008 19.2313 23.5595 15.357C23.5381 15.3172 23.5152 15.279 23.4892 15.2423H23.4894ZM19.6746 28.3622C17.3701 30.6651 14.1014 31.7225 10.8864 31.2038C7.66993 30.6866 4.89878 28.6575 3.43291 25.7485C1.9685 22.8396 1.9884 19.4044 3.488 16.5122L12.4979 3.27594L21.5077 16.5122C22.5069 18.4234 22.8696 20.6054 22.5391 22.7388C22.2085 24.8704 21.2047 26.8414 19.6745 28.3621L19.6746 28.3622Z" fill="#BDC0D1"/>
<path d="M23.4894 15.2423V33.2422H57.5195L38.3684 5.11244L23.4894 15.2423ZM13.4696 0.524844L-1.52881 10.4771L-1.46966 10.5662L-1.40946 10.6547L13.4696 0.524844ZM11.511 0.524844L26.3972 10.6441L26.4536 10.5612L26.509 10.4776L11.511 0.524844ZM1.50649 15.2423L-13.3798 5.123L-13.4254 5.19012L-13.4704 5.25765L1.50649 15.2423ZM1.43916 15.357L17.3667 23.7422L17.4542 23.5761L17.5382 23.4081L1.43916 15.357ZM1.79876 27.6398L17.2114 18.3419L17.2084 18.337L1.79876 27.6398ZM23.2015 27.6398L7.7916 18.3373L7.79135 18.3378L23.2015 27.6398ZM23.5595 15.357L39.4843 6.96643L39.4465 6.8946L39.408 6.82312L23.5595 15.357ZM23.4892 15.2423V-2.75775H-11.3201L8.80099 25.647L23.4892 15.2423ZM19.6746 28.3622L32.3983 41.0943L44.1174 29.3829L33.4155 16.7352L19.6746 28.3622ZM10.8864 31.2038L13.7536 13.4336L13.7441 13.4321L10.8864 31.2038ZM3.43291 25.7485L-12.6447 33.8423L-12.6416 33.8485L3.43291 25.7485ZM3.488 16.5122L-11.3919 6.38356L-11.9968 7.27228L-12.4917 8.22668L3.488 16.5122ZM12.4979 3.27594L27.3777 -6.8527L12.4979 -28.7125L-2.38201 -6.8527L12.4979 3.27594ZM21.5077 16.5122L37.4591 8.17244L36.9753 7.24691L36.3876 6.38356L21.5077 16.5122ZM22.5391 22.7388L40.3265 25.4969L40.3268 25.4948L22.5391 22.7388ZM19.6745 28.3621L6.98637 15.5946L-4.79833 27.3059L5.93356 39.9891L19.6745 28.3621ZM38.3684 5.11244L28.3487 -9.60497L-1.40946 10.6547L8.61028 25.3721L38.3684 5.11244ZM28.468 -9.4274C24.9057 -14.796 18.8978 -18 12.4903 -18V18C6.86932 18 1.59897 15.1908 -1.52881 10.4771L28.468 -9.4274ZM12.4903 -18C6.06779 -18 0.0677259 -14.7848 -3.48712 -9.42794L26.509 10.4776C23.3888 15.1796 18.1232 18 12.4903 18V-18ZM-3.37531 -9.59441L-13.3798 5.123L16.3927 25.3615L26.3972 10.6441L-3.37531 -9.59441ZM-13.4704 5.25765C-13.8077 5.76359 -14.2338 6.45394 -14.6599 7.3059L17.5382 23.4081C17.1519 24.1805 16.7717 24.7944 16.4834 25.2269L-13.4704 5.25765ZM-14.4884 6.97179C-19.4654 16.4255 -19.1333 27.795 -13.6109 36.9426L17.2084 18.337C18.2044 19.9868 18.2643 22.0374 17.3667 23.7422L-14.4884 6.97179ZM-13.6139 36.9377C-8.0934 46.0887 1.81592 51.6811 12.4993 51.6811V15.6811C14.4275 15.6811 16.2142 16.6889 17.2114 18.3419L-13.6139 36.9377ZM12.4993 51.6811C23.1868 51.6811 33.0911 46.0873 38.6116 36.9418L7.79135 18.3378C8.78574 16.6904 10.571 15.6811 12.4993 15.6811V51.6811ZM38.6113 36.9423C44.1333 27.7949 44.4669 16.423 39.4843 6.96643L7.63478 23.7476C6.73483 22.0396 6.79593 19.9867 7.7916 18.3373L38.6113 36.9423ZM39.408 6.82312C39.1276 6.30241 38.7243 5.60978 38.1773 4.83755L8.80099 25.647C8.30599 24.9482 7.94866 24.3321 7.71112 23.8909L39.408 6.82312ZM23.4892 33.2422H23.4894V-2.75775H23.4892V33.2422ZM6.95085 15.63C8.72929 13.8528 11.2584 13.031 13.7536 13.4336L8.01919 48.9739C16.9444 50.414 26.0108 47.4775 32.3983 41.0943L6.95085 15.63ZM13.7441 13.4321C16.2335 13.8323 18.3761 15.4034 19.5074 17.6485L-12.6416 33.8485C-8.57854 41.9116 -0.89359 47.5408 8.02875 48.9755L13.7441 13.4321ZM19.5105 17.6547C20.6426 19.9035 20.6276 22.5606 19.4677 24.7977L-12.4917 8.22668C-16.6509 16.2482 -16.7056 25.7756 -12.6447 33.8423L19.5105 17.6547ZM18.3679 26.6409L27.3777 13.4046L-2.38201 -6.8527L-11.3919 6.38356L18.3679 26.6409ZM-2.38201 13.4046L6.62784 26.6409L36.3876 6.38356L27.3777 -6.8527L-2.38201 13.4046ZM5.55628 24.852C4.77726 23.362 4.49203 21.6562 4.75131 19.9828L40.3268 25.4948C41.2472 19.5547 40.2366 13.4849 37.4591 8.17244L5.55628 24.852ZM4.75164 19.9807C5.00933 18.3188 5.79147 16.782 6.98637 15.5946L32.3627 41.1297C36.618 36.9008 39.4077 31.422 40.3265 25.4969L4.75164 19.9807ZM5.93356 39.9891L5.9336 39.9891L33.4155 16.7352L33.4155 16.7352L5.93356 39.9891Z" fill="#BDC0D1" mask="url(#path-1-inside-1)"/>
<path d="M9.98226 25.6004L9.9662 25.6283L9.7574 25.9917C9.75713 25.9918 9.75687 25.9919 9.7566 25.992C9.75357 25.993 9.75053 25.9941 9.74749 25.9952C9.74414 25.9963 9.74079 25.9975 9.73743 25.9987C9.42258 26.1081 9.10106 26.1974 8.77498 26.266C8.77496 26.266 8.77495 26.266 8.77493 26.266C8.26922 26.3724 7.75254 26.4291 7.23278 26.4339C6.72095 25.9103 6.29272 25.3091 5.96497 24.6517C5.96494 24.6516 5.96492 24.6516 5.96489 24.6515C5.76636 24.2533 5.60471 23.8344 5.48368 23.3997L7.51571 22.8394L7.91604 23.295C8.31206 24.2719 9.02764 25.0919 9.95316 25.617C9.95522 25.6182 9.95728 25.6193 9.95934 25.6205L9.98094 25.6015L9.98226 25.6004ZM9.98226 25.6004L10.1828 25.8286C10.2029 25.8202 10.223 25.8117 10.2431 25.8032C10.1679 25.7255 10.0807 25.6569 9.98226 25.6004ZM7.51566 22.8393L5.48349 23.3989C5.48245 23.3952 5.48142 23.3915 5.48038 23.3878C5.35075 22.92 5.27072 22.444 5.23939 21.967C5.20364 21.4227 5.2313 20.8772 5.32101 20.3415L5.83633 20.928L7.50463 22.8267L7.50557 22.8278L7.51566 22.8393Z" fill="#BDC0D1" stroke="#BDC0D1" stroke-width="18"/>
</svg>
