<svg fill="none" height="20" viewBox="0 0 20 20" width="20" xmlns="http://www.w3.org/2000/svg"><g stroke="#fff" stroke-linecap="round" stroke-linejoin="round" stroke-width="1.66667"><path d="m12.5 17.5v-6.6667c0-.221-.0878-.4329-.2441-.5892s-.3682-.2441-.5892-.2441h-3.33337c-.22101 0-.43297.0878-.58925.2441s-.24408.3682-.24408.5892v6.6667"/><path d="m2.5 8.33335c-.00006-.24245.05278-.48198.15482-.70191.10205-.21992.25084-.41493.43601-.57143l5.83334-4.99916c.30082-.25425.68196-.39374 1.07583-.39374.3939 0 .775.13949 1.0758.39374l5.8334 4.99916c.1851.1565.3339.35151.436.57143.102.21993.1549.45946.1548.70191v7.49995c0 .4421-.1756.866-.4882 1.1786-.3125.3125-.7364.4881-1.1785.4881h-11.66663c-.44203 0-.86595-.1756-1.17851-.4881-.31257-.3126-.48816-.7365-.48816-1.1786z"/></g></svg>