<svg fill="none" height="20" viewBox="0 0 20 20" width="20" xmlns="http://www.w3.org/2000/svg"><g stroke="#90a1b9" stroke-linecap="round" stroke-linejoin="round" stroke-width="1.66667"><path d="m10.1833 1.66666h-.36663c-.44203 0-.86595.17559-1.17851.48815s-.48816.73649-.48816 1.17851v.15c-.0003.29227-.07745.57933-.22372.83237-.14626.25304-.3565.46316-.60961.6093l-.35833.20833c-.25337.14628-.54078.22329-.83334.22329s-.57997-.07701-.83333-.22329l-.125-.06666c-.38245-.22062-.8368-.28047-1.26333-.16641-.42653.11405-.79038.39269-1.01167.77474l-.18334.31667c-.22061.38244-.28046.8368-.16641 1.26333.11406.42653.39269.79037.77475 1.01167l.125.08333c.25189.14543.46135.35424.60754.60569s.22404.53679.22579.82764v.42498c.00117.2937-.07529.5825-.22163.8371s-.35736.4661-.6117.6129l-.125.075c-.38206.2213-.66069.5852-.77475 1.0117-.11405.4265-.0542.8809.16641 1.2633l.18334.3167c.22129.382.58514.6607 1.01167.7747.42653.1141.88088.0542 1.26333-.1664l.125-.0666c.25336-.1463.54077-.2233.83333-.2233s.57997.077.83334.2233l.35833.2083c.25311.1461.46335.3563.60961.6093.14627.253.22342.5401.22372.8324v.15c0 .442.1756.8659.48816 1.1785.31256.3125.73648.4881 1.17851.4881h.36663c.4421 0 .866-.1756 1.1785-.4881.3126-.3126.4882-.7365.4882-1.1785v-.15c.0003-.2923.0775-.5794.2237-.8324.1463-.253.3565-.4632.6096-.6093l.3584-.2083c.2533-.1463.5407-.2233.8333-.2233s.58.077.8333.2233l.125.0666c.3825.2206.8368.2805 1.2634.1664.4265-.114.7903-.3927 1.0116-.7747l.1834-.325c.2206-.3825.2804-.8368.1664-1.2633-.1141-.4266-.3927-.7904-.7748-1.0117l-.125-.0667c-.2543-.1468-.4653-.3583-.6117-.6129-.1463-.2546-.2228-.5434-.2216-.8371v-.41664c-.0012-.29369.0753-.58246.2216-.83709.1464-.25463.3574-.46607.6117-.61291l.125-.075c.3821-.2213.6607-.58514.7748-1.01167.114-.42653.0542-.88089-.1664-1.26333l-.1834-.31667c-.2213-.38205-.5851-.66069-1.0116-.77474-.4266-.11406-.8809-.05421-1.2634.16641l-.125.06666c-.2533.14628-.5407.22329-.8333.22329s-.58-.07701-.8333-.22329l-.3584-.20833c-.2531-.14614-.4633-.35626-.6096-.6093-.1462-.25304-.2234-.5401-.2237-.83237v-.15c0-.44202-.1756-.86595-.4882-1.17851-.3125-.31256-.7364-.48815-1.1785-.48815z"/><path d="m10 12.5c1.3807 0 2.5-1.1193 2.5-2.5 0-1.38071-1.1193-2.5-2.5-2.5-1.38071 0-2.5 1.11929-2.5 2.5 0 1.3807 1.11929 2.5 2.5 2.5z"/></g></svg>