<svg width="30" height="30" viewBox="0 0 30 30" fill="none" xmlns="http://www.w3.org/2000/svg">
<path d="M1.39464 29.0871H27.7412C28.5232 29.0871 29.1118 28.5011 29.1118 27.7165V14.5432C29.1118 14.1509 28.9818 13.8248 28.7194 13.5649L15.5462 0.391686C15.0239 -0.130562 14.1756 -0.130562 13.5897 0.391686L0.416403 13.5649C0.0240814 13.9573 -0.105845 14.5432 0.0903162 15.0655C0.286477 15.5877 0.808751 15.9138 1.3284 15.9138H18.611C19.3931 15.9138 19.9816 15.3279 19.9816 14.5432C19.9816 13.7611 19.3957 13.1726 18.611 13.1726H4.65579L14.5682 3.32608L26.3738 15.1317V26.3485H2.76319V20.8713C2.76319 20.6751 2.69695 20.5452 2.69695 20.4152C2.50079 19.893 1.97852 19.5032 1.3926 19.5032C0.610516 19.5032 0.0219945 20.0892 0.0219945 20.8738V27.7217C0.0245425 28.4987 0.613027 29.0872 1.39515 29.0872L1.39464 29.0871Z" fill="#122F7B"/>
</svg>
