<svg width="25" height="34" viewBox="0 0 25 34" fill="none" xmlns="http://www.w3.org/2000/svg">
  <path d="M23.4894 15.2423L13.4696 0.524844C13.2523 0.197379 12.8835 0 12.4903 0C12.0955 0 11.7282 0.197398 11.511 0.524844L1.50649 15.2423C1.482 15.279 1.45905 15.3172 1.43916 15.357C-0.600596 19.2315 -0.464431 23.8909 1.79876 27.6398C4.06039 31.3888 8.12172 33.6811 12.4993 33.6811C16.8789 33.6811 20.9384 31.3888 23.2015 27.6398C25.4646 23.8908 25.6008 19.2313 23.5595 15.357C23.5381 15.3172 23.5152 15.279 23.4892 15.2423H23.4894ZM19.6746 28.3622C17.3701 30.6651 14.1014 31.7225 10.8864 31.2038C7.66993 30.6866 4.89878 28.6575 3.43291 25.7485C1.9685 22.8396 1.9884 19.4044 3.488 16.5122L12.4979 3.27594L21.5077 16.5122C22.5069 18.4234 22.8696 20.6054 22.5391 22.7388C22.2085 24.8704 21.2047 26.8414 19.6745 28.3621L19.6746 28.3622Z" fill="#BDC0D1"/>
<g transform="translate(5.224,17.432)">
 <path d="M4.7351 8.18756C3.64714 7.57243 2.84836 6.55024 2.51628 5.34445C2.18423 4.14018 2.34643 2.85326 2.96462 1.76683C3.28902 1.20218 3.09469 0.481472 2.53003 0.157039C1.96538 -0.167394 1.24468 0.0269727 0.920247 0.591628C-0.0055357 2.21975 -0.244258 4.14935 0.256141 5.95484C0.754974 7.75897 1.95313 9.29068 3.58282 10.2118C4.14746 10.5362 4.86974 10.3419 5.19413 9.77722C5.51853 9.21257 5.32267 8.49186 4.75801 8.16743L4.7351 8.18756Z" fill="#BDC0D1" />
</g>

</svg>
