<svg width="71" height="72" viewBox="0 0 71 72" fill="none" xmlns="http://www.w3.org/2000/svg">
<path d="M9.17278 14.1732C9.17278 11.6669 11.2384 9.60129 13.7446 9.60129H22.7413C23.5538 9.60129 24.2163 8.93869 24.2163 8.1263L24.2192 2.44819C24.2192 1.63577 23.5566 0.973206 22.7442 0.973206H13.7446C6.44457 0.973206 0.544922 6.87315 0.544922 14.1729V23.1695C0.544922 23.982 1.20752 24.6445 2.01991 24.6445H7.69802C8.51044 24.6445 9.173 23.9819 9.173 23.1695L9.17278 14.1732Z" fill="#00102B"/>
<path d="M57.4072 0.973511H48.4076C47.5952 0.973511 46.9326 1.6361 46.9326 2.4485V8.12661C46.9326 8.93903 47.5952 9.60159 48.4076 9.60159H57.4043C59.9106 9.60159 61.9762 11.6672 61.9762 14.1735V23.1701C61.9762 23.9826 62.6387 24.6451 63.4511 24.6451H69.1292C69.9417 24.6451 70.6042 23.9825 70.6042 23.1701L70.6071 14.1735C70.6071 6.87346 64.7072 0.973806 57.4075 0.973806L57.4072 0.973511Z" fill="#00102B"/>
<path d="M61.9789 57.8357C61.9789 60.342 59.9133 62.4076 57.407 62.4076H48.4074C47.5949 62.4076 46.9324 63.0702 46.9324 63.8826V69.5607C46.9324 70.3731 47.595 71.0357 48.4074 71.0357H57.404C64.704 71.0357 70.6037 65.1357 70.6037 57.836L70.6066 48.8364C70.6066 48.024 69.944 47.3614 69.1316 47.3614H63.4535C62.6411 47.3614 61.9785 48.024 61.9785 48.8364L61.9789 57.8357Z" fill="#00102B"/>
<path d="M9.17288 57.8358V48.8361C9.17288 48.0237 8.51029 47.3611 7.6979 47.3611H2.01979C1.20736 47.3611 0.5448 48.0237 0.5448 48.8361V57.8328C0.5448 65.1328 6.44475 71.0325 13.7445 71.0325H22.7411C23.5536 71.0325 24.2161 70.3699 24.2161 69.5575V63.8794C24.2161 63.067 23.5535 62.4044 22.7411 62.4044L13.7445 62.4073C11.1632 62.4073 9.17259 60.4166 9.17259 57.8354L9.17288 57.8358Z" fill="#00102B"/>
<path d="M2.01991 40.2827H69.1318C69.9442 40.2827 70.6068 39.6201 70.6068 38.8077V33.1296C70.6068 32.3172 69.9442 31.6546 69.1318 31.6546H2.01991C1.20749 31.6546 0.544922 32.3172 0.544922 33.1296V38.8077C0.544922 39.6172 1.20752 40.2827 2.01991 40.2827Z" fill="#00102B"/>
</svg>
