<svg width="215" height="93" viewBox="0 0 215 93" fill="none" xmlns="http://www.w3.org/2000/svg">
<path d="M10.2898 89.0771H57.4131C61.4796 89.0771 64.7761 85.7726 64.7761 81.6962L64.7761 11.5771C64.7761 7.50076 61.4796 4.1962 57.4131 4.1962H10.2898C6.22334 4.1962 2.9268 7.50076 2.9268 11.5771L2.9268 81.6962C2.9268 85.7726 6.22334 89.0771 10.2898 89.0771Z" fill="url(#paint0_radial_1014_7422)"/>
<path d="M18.113 77.1532L53.5033 52.5894C53.5033 52.5894 55.1011 51.6705 55.1011 50.2201C55.1011 48.29 53.08 47.6626 53.08 47.6626L33.6085 39.9384C32.9164 39.669 31.9592 40.433 32.8538 41.4146L39.3038 47.8951C39.3038 47.8951 41.1077 49.6555 41.1077 50.8143C41.1077 51.9731 40.0033 53.0027 40.0033 53.0027L16.5373 75.6549C15.7016 76.4778 16.8282 77.943 18.113 77.1532Z" fill="#0025FF"/>
<path d="M46.6999 14.8654L11.3059 39.4329C11.3059 39.4329 9.70813 40.3518 9.70813 41.8022C9.70813 43.7323 11.7293 44.3597 11.7293 44.3597L31.2008 52.0839C31.8966 52.3533 32.8538 51.5893 31.9371 50.6077L25.5055 44.1383C25.5055 44.1383 23.7015 42.3816 23.7015 41.2228C23.7015 40.064 24.806 39.0343 24.806 39.0343L48.283 16.3527C49.1113 15.5444 47.9848 14.0793 46.6999 14.8654Z" fill="#0025FF"/>
<path d="M79.1524 69.322H77.9744C77.801 69.3387 77.6281 69.2871 77.4921 69.1781C77.3916 69.0633 77.34 68.9136 77.3485 68.7611C77.3479 68.6357 77.3678 68.511 77.4074 68.392C77.4342 68.3149 77.4662 68.2397 77.5031 68.1669H81.5528C81.7262 68.1494 81.8994 68.2012 82.0351 68.3108C82.0862 68.3668 82.1254 68.4326 82.1501 68.5044C82.1748 68.5761 82.1845 68.6522 82.1786 68.7278C82.1811 68.8534 82.1611 68.9784 82.1197 69.0969C82.0953 69.1743 82.0645 69.2496 82.0277 69.322H80.3747V73.2339H79.1524V69.322Z" fill="white"/>
<path d="M83.2021 73.2342V68.717C83.193 68.6374 83.204 68.5567 83.2343 68.4826C83.2645 68.4084 83.313 68.343 83.3751 68.2926C83.5137 68.2056 83.6756 68.1631 83.839 68.1708C83.9635 68.1704 84.0875 68.1878 84.2071 68.2225L84.4207 68.2889V70.0234H86.3755V68.717C86.3668 68.6371 86.3785 68.5562 86.4094 68.482C86.4403 68.4078 86.4894 68.3426 86.5522 68.2926C86.6913 68.2066 86.8528 68.1642 87.0161 68.1708C87.1407 68.1702 87.2647 68.1876 87.3843 68.2225L87.5978 68.2889V73.2342H86.3645V71.1896H84.417V73.2342H83.2021Z" fill="white"/>
<path d="M89.144 68.8717C89.144 68.403 89.387 68.1705 89.8803 68.1705H92.4059C92.5792 68.1539 92.7521 68.2055 92.8881 68.3145C92.9386 68.3709 92.9773 68.4368 93.0019 68.5085C93.0266 68.5801 93.0367 68.6559 93.0317 68.7315C93.0323 68.8569 93.0124 68.9816 92.9728 69.1005C92.946 69.1777 92.914 69.2529 92.8771 69.3257H90.3884V70.1191H92.3101C92.4835 70.1025 92.6564 70.1541 92.7924 70.263C92.8429 70.3195 92.8816 70.3854 92.9062 70.457C92.9309 70.5286 92.941 70.6045 92.936 70.6801C92.9366 70.8055 92.9167 70.9302 92.8771 71.0491C92.852 71.1269 92.8199 71.2022 92.7814 71.2742H90.3884V72.0935H92.9949V73.2449H89.144V68.8717Z" fill="white"/>
<path d="M96.5586 68.8717C96.5586 68.403 96.8016 68.1705 97.2949 68.1705H99.6437C99.817 68.1539 99.99 68.2055 100.126 68.3145C100.176 68.3709 100.215 68.4368 100.24 68.5085C100.264 68.5801 100.275 68.6559 100.27 68.7315C100.27 68.8569 100.25 68.9816 100.211 69.1005C100.184 69.1777 100.152 69.2529 100.115 69.3257H97.7956V70.1819H99.4523C99.6256 70.1652 99.7985 70.2168 99.9345 70.3258C99.985 70.3822 100.024 70.4481 100.048 70.5198C100.073 70.5914 100.083 70.6672 100.078 70.7428C100.079 70.8682 100.059 70.9929 100.019 71.1119C99.9924 71.189 99.9604 71.2642 99.9235 71.337H97.7956V73.2413H96.566L96.5586 68.8717Z" fill="white"/>
<path d="M100.594 73.234C100.697 72.9584 100.819 72.6373 100.962 72.2707C101.109 71.9017 101.267 71.5142 101.437 71.1046C101.606 70.6949 101.783 70.2742 101.967 69.8461C102.151 69.418 102.335 69.0047 102.508 68.6061C102.575 68.4273 102.694 68.2729 102.85 68.1633C103.013 68.0723 103.198 68.0288 103.384 68.0378C103.467 68.0383 103.55 68.0482 103.631 68.0673C103.705 68.0846 103.778 68.108 103.848 68.1374C103.902 68.158 103.954 68.1839 104.003 68.2149L104.076 68.2592C104.183 68.4485 104.28 68.6431 104.367 68.8423C104.489 69.108 104.617 69.4069 104.761 69.7391C104.905 70.0712 105.052 70.4181 105.203 70.7835C105.354 71.1488 105.497 71.4921 105.626 71.8205C105.755 72.149 105.869 72.4368 105.969 72.6915C106.068 72.9461 106.134 73.1269 106.175 73.234H104.82C104.763 73.0913 104.705 72.9326 104.643 72.7579C104.581 72.5844 104.503 72.3888 104.408 72.1416H102.272C102.195 72.3482 102.125 72.5365 102.062 72.7099C102 72.8834 101.937 73.0568 101.867 73.234H100.594ZM103.995 71.0197C103.947 70.8868 103.888 70.7392 103.826 70.5731L103.642 70.0934C103.583 69.9384 103.528 69.7944 103.476 69.6653C103.425 69.5361 103.384 69.4365 103.355 69.3737C103.325 69.4438 103.285 69.5398 103.237 69.6653L103.075 70.086L102.891 70.5621L102.714 71.0197H103.995Z" fill="white"/>
<path d="M107.471 71.7872C107.533 71.8319 107.6 71.8702 107.669 71.9016C107.796 71.9627 107.926 72.0145 108.06 72.0566C108.238 72.1147 108.42 72.1616 108.605 72.1968C108.825 72.2396 109.05 72.2606 109.275 72.2596C109.433 72.2624 109.591 72.2488 109.746 72.219C109.842 72.2006 109.935 72.1643 110.018 72.1119C110.074 72.0748 110.117 72.0222 110.143 71.9606C110.162 71.9048 110.172 71.8462 110.173 71.7872C110.173 71.7308 110.16 71.6752 110.135 71.6247C110.11 71.5742 110.074 71.53 110.029 71.4956C109.868 71.3951 109.685 71.3332 109.495 71.3148L108.759 71.1819C108.559 71.1471 108.363 71.0978 108.17 71.0343C107.981 70.9759 107.803 70.8861 107.644 70.7686C107.47 70.6434 107.331 70.4763 107.239 70.2828C107.147 70.0892 107.105 69.8755 107.117 69.6615C107.115 69.4423 107.158 69.2251 107.242 69.023C107.322 68.8225 107.448 68.6441 107.611 68.5027C107.802 68.3428 108.024 68.2235 108.262 68.1521C108.562 68.0611 108.873 68.0176 109.186 68.0229C109.41 68.0216 109.634 68.0351 109.856 68.0635C110.023 68.0845 110.188 68.1178 110.35 68.1631C110.464 68.1949 110.576 68.2343 110.685 68.2812C110.749 68.31 110.811 68.342 110.872 68.3772C110.962 68.4328 111.042 68.5012 111.112 68.5802C111.186 68.6647 111.227 68.7738 111.226 68.8865C111.226 68.9685 111.211 69.0499 111.182 69.1263C111.154 69.2001 111.118 69.2706 111.075 69.3367C111.034 69.3958 110.989 69.4514 110.939 69.5028C110.887 69.5508 110.847 69.584 110.813 69.6098C110.744 69.5485 110.671 69.493 110.593 69.4437C110.477 69.3744 110.353 69.3186 110.224 69.2777C110.071 69.2244 109.913 69.1825 109.753 69.1522C109.566 69.1175 109.376 69.1002 109.186 69.1005C109.033 69.0955 108.879 69.1116 108.73 69.1485C108.638 69.1698 108.551 69.21 108.476 69.2666C108.422 69.3057 108.383 69.3616 108.365 69.4253C108.349 69.4778 108.34 69.5325 108.339 69.5877C108.338 69.6302 108.345 69.6727 108.358 69.7131C108.374 69.76 108.405 69.8002 108.446 69.8275C108.507 69.8724 108.574 69.9073 108.645 69.9309C108.765 69.9722 108.888 70.003 109.013 70.0231L109.794 70.1781C110.044 70.2249 110.291 70.2928 110.53 70.3811C110.72 70.4527 110.898 70.5535 111.056 70.68C111.194 70.7963 111.304 70.9427 111.377 71.1081C111.452 71.2983 111.488 71.5016 111.483 71.706C111.493 71.9397 111.445 72.1721 111.344 72.3831C111.244 72.5941 111.093 72.7772 110.905 72.9165C110.423 73.2346 109.851 73.3874 109.275 73.3519C108.979 73.355 108.684 73.3278 108.395 73.2708C108.156 73.2238 107.921 73.1609 107.692 73.0825C107.524 73.0256 107.361 72.9578 107.202 72.8796C107.122 72.8454 107.046 72.8007 106.977 72.7467L107.471 71.7872Z" fill="white"/>
<path d="M114.031 69.3222H112.853C112.68 69.3397 112.506 69.288 112.371 69.1783C112.32 69.1219 112.282 69.056 112.257 68.9843C112.232 68.9127 112.222 68.8369 112.227 68.7613C112.225 68.6357 112.245 68.5108 112.286 68.3922C112.309 68.3139 112.342 68.2384 112.382 68.1671H116.431C116.605 68.1505 116.778 68.2021 116.914 68.3111C116.964 68.3675 117.003 68.4334 117.027 68.505C117.052 68.5766 117.062 68.6525 117.057 68.7281C117.058 68.8535 117.038 68.9782 116.998 69.0971C116.971 69.1742 116.94 69.2495 116.903 69.3222H115.253V73.2342H114.024L114.031 69.3222Z" fill="white"/>
<path d="M119.833 73.2341C119.936 72.9585 120.059 72.6375 120.201 72.2709C120.348 71.9018 120.507 71.5143 120.676 71.1047C120.845 70.6951 121.022 70.2743 121.206 69.8462C121.39 69.4182 121.574 69.0048 121.747 68.6062C121.814 68.4274 121.934 68.2731 122.09 68.1634C122.252 68.0719 122.437 68.0283 122.624 68.0379C122.707 68.0386 122.789 68.0485 122.87 68.0674C122.944 68.0853 123.017 68.1087 123.088 68.1376C123.141 68.1589 123.193 68.1848 123.242 68.2151L123.316 68.2594C123.423 68.4486 123.52 68.6433 123.607 68.8424C123.724 69.1082 123.857 69.4071 124.001 69.7392L124.442 70.7836C124.593 71.1527 124.733 71.4922 124.866 71.8207L125.208 72.6916L125.414 73.2341H124.067C124.013 73.0914 123.954 72.9327 123.89 72.758C123.824 72.5846 123.747 72.389 123.654 72.1417H121.512C121.431 72.3484 121.361 72.5366 121.302 72.7101C121.243 72.8835 121.173 73.057 121.107 73.2341H119.833ZM123.235 71.0198L123.065 70.5733C122.999 70.4072 122.94 70.2485 122.881 70.0935C122.822 69.9385 122.767 69.7946 122.716 69.6654C122.664 69.5363 122.624 69.4366 122.594 69.3739C122.565 69.444 122.524 69.5399 122.476 69.6654C122.429 69.7909 122.373 69.9311 122.314 70.0861L122.13 70.5622C122.064 70.7246 122.005 70.8759 121.954 71.0198H123.235Z" fill="white"/>
<path d="M126.416 68.813C126.412 68.7041 126.432 68.5957 126.474 68.4956C126.507 68.4173 126.56 68.3496 126.629 68.3C126.694 68.2515 126.768 68.2175 126.846 68.2003C126.927 68.1812 127.01 68.1713 127.093 68.1708C127.234 68.1648 127.374 68.1887 127.505 68.2409C127.575 68.2693 127.642 68.3052 127.704 68.348C127.726 68.3738 127.781 68.4439 127.87 68.562L128.179 68.9975C128.297 69.1709 128.429 69.3665 128.569 69.5695L128.978 70.1821L129.346 70.7357L129.611 71.1453V68.717C129.602 68.6371 129.614 68.5562 129.645 68.482C129.676 68.4078 129.725 68.3426 129.788 68.2926C129.926 68.2056 130.088 68.1631 130.252 68.1708C130.376 68.1703 130.5 68.1877 130.62 68.2225L130.819 68.2889V73.2342H129.663L129.456 72.902L129.133 72.4001L128.739 71.7986C128.599 71.5845 128.459 71.3742 128.326 71.1675L127.958 70.5844L127.642 70.1194V73.2342H126.427L126.416 68.813Z" fill="white"/>
<path d="M132.365 68.8278C132.363 68.7324 132.378 68.6374 132.409 68.5473C132.434 68.4754 132.473 68.409 132.523 68.3517C132.568 68.3009 132.623 68.2606 132.685 68.2336C132.746 68.2084 132.809 68.1899 132.873 68.1783C132.966 68.1586 133.102 68.1401 133.282 68.1229C133.462 68.1044 133.723 68.0971 134.073 68.0971C134.493 68.0914 134.911 68.1486 135.314 68.2668C135.661 68.3676 135.984 68.5384 136.264 68.7687C136.525 68.9909 136.733 69.2698 136.871 69.5843C137.019 69.9342 137.092 70.3115 137.085 70.6915C137.092 71.07 137.024 71.4463 136.886 71.7986C136.756 72.1151 136.553 72.3959 136.293 72.6179C136.006 72.8557 135.672 73.0304 135.314 73.1309C134.872 73.2559 134.414 73.3156 133.955 73.308C133.399 73.308 133.002 73.308 132.759 73.2748L132.365 73.2342V68.8278ZM133.595 72.1492L133.79 72.1677C133.888 72.1677 134.011 72.1677 134.158 72.1677C134.384 72.1695 134.609 72.141 134.828 72.0828C135.018 72.0336 135.196 71.9428 135.347 71.8171C135.494 71.693 135.609 71.5346 135.682 71.3558C135.764 71.1442 135.804 70.9185 135.8 70.6915C135.802 70.4882 135.769 70.2861 135.704 70.0936C135.643 69.9166 135.544 69.7553 135.413 69.6212C135.274 69.4822 135.105 69.3763 134.92 69.3112C134.694 69.2331 134.456 69.1956 134.217 69.2005C134.025 69.2005 133.878 69.2005 133.775 69.2005H133.598L133.595 72.1492Z" fill="white"/>
<path d="M140.589 68.8717C140.589 68.403 140.832 68.1705 141.326 68.1705H143.844C144.017 68.1539 144.19 68.2055 144.326 68.3145C144.377 68.3709 144.415 68.4368 144.44 68.5085C144.465 68.5801 144.475 68.6559 144.47 68.7315C144.472 68.857 144.452 68.982 144.411 69.1005C144.386 69.1783 144.354 69.2536 144.315 69.3257H141.826V70.1191H143.748C143.921 70.1025 144.094 70.1541 144.23 70.263C144.281 70.3195 144.32 70.3854 144.344 70.457C144.369 70.5286 144.379 70.6045 144.374 70.6801C144.376 70.8056 144.356 70.9306 144.315 71.0491C144.29 71.1269 144.258 71.2022 144.219 71.2742H141.826V72.0935H144.433V73.2449H140.589V68.8717Z" fill="white"/>
<path d="M145.342 73.2342C145.445 72.9586 145.568 72.6375 145.71 72.2709C145.858 71.9019 146.016 71.5144 146.185 71.1048C146.355 70.6951 146.531 70.2744 146.715 69.8463C146.899 69.4182 147.084 69.0049 147.257 68.6063C147.315 68.4252 147.435 68.2699 147.594 68.1664C147.754 68.0629 147.944 68.0176 148.133 68.038C148.216 68.0385 148.299 68.0484 148.379 68.0675C148.454 68.0848 148.526 68.1082 148.597 68.1376C148.651 68.1573 148.703 68.1833 148.751 68.2151L148.825 68.2594C148.933 68.4479 149.03 68.6426 149.116 68.8425C149.237 69.1082 149.37 69.4071 149.51 69.7393C149.65 70.0714 149.801 70.4183 149.951 70.7837C150.102 71.149 150.246 71.4923 150.375 71.8207C150.504 72.1492 150.622 72.437 150.717 72.6917C150.813 72.9463 150.887 73.1271 150.923 73.2342H149.569C149.517 73.0915 149.458 72.9328 149.392 72.7581C149.329 72.5846 149.252 72.389 149.156 72.1418H147.014C146.936 72.3484 146.866 72.5367 146.804 72.7101C146.741 72.8836 146.679 73.057 146.609 73.2342H145.342ZM148.744 71.0199C148.696 70.887 148.641 70.7394 148.575 70.5733L148.391 70.0936C148.332 69.9386 148.276 69.7946 148.225 69.6655C148.173 69.5363 148.133 69.4367 148.103 69.3739L147.986 69.6655L147.824 70.0862C147.765 70.2412 147.706 70.3999 147.639 70.5623L147.463 71.0199H148.744Z" fill="white"/>
<path d="M152.219 71.7872C152.282 71.8319 152.348 71.8702 152.418 71.9016C152.544 71.9627 152.675 72.0145 152.808 72.0566C152.987 72.1143 153.169 72.1611 153.353 72.1968C153.574 72.2396 153.798 72.2606 154.023 72.2596C154.181 72.2624 154.339 72.2488 154.494 72.219C154.591 72.2006 154.684 72.1643 154.767 72.1119C154.822 72.0748 154.866 72.0222 154.892 71.9606C154.911 71.9048 154.921 71.8462 154.922 71.7872C154.921 71.7308 154.908 71.6752 154.883 71.6247C154.859 71.5742 154.823 71.53 154.778 71.4956C154.616 71.3951 154.434 71.3332 154.244 71.3148L153.508 71.1819C153.308 71.1471 153.111 71.0978 152.919 71.0343C152.73 70.9751 152.552 70.8853 152.392 70.7686C152.219 70.6434 152.079 70.4763 151.987 70.2828C151.895 70.0892 151.854 69.8755 151.866 69.6615C151.864 69.4423 151.907 69.2251 151.991 69.023C152.072 68.8233 152.198 68.6451 152.359 68.5027C152.551 68.3433 152.772 68.2241 153.011 68.1521C153.31 68.0611 153.622 68.0176 153.935 68.0229C154.159 68.0216 154.383 68.0351 154.605 68.0635C154.772 68.0841 154.937 68.1174 155.098 68.1631C155.212 68.1949 155.324 68.2343 155.433 68.2812C155.497 68.31 155.56 68.342 155.621 68.3772C155.71 68.4328 155.791 68.5012 155.86 68.5802C155.935 68.6647 155.975 68.7738 155.974 68.8865C155.975 68.9685 155.96 69.0499 155.93 69.1263C155.902 69.2001 155.866 69.2706 155.823 69.3367C155.783 69.3958 155.737 69.4514 155.687 69.5028C155.636 69.5508 155.595 69.584 155.562 69.6098C155.494 69.5476 155.42 69.492 155.341 69.4437C155.225 69.3744 155.102 69.3186 154.973 69.2777C154.819 69.2239 154.662 69.182 154.502 69.1522C154.315 69.1175 154.125 69.1002 153.935 69.1005C153.781 69.0955 153.628 69.1116 153.478 69.1485C153.386 69.1698 153.3 69.21 153.224 69.2666C153.172 69.3068 153.134 69.3622 153.114 69.4253C153.097 69.4778 153.089 69.5325 153.088 69.5877C153.087 69.6302 153.093 69.6727 153.107 69.7131C153.123 69.76 153.154 69.8002 153.195 69.8275C153.256 69.8717 153.323 69.9065 153.394 69.9309C153.508 69.9712 153.625 70.002 153.743 70.0231L154.524 70.1781C154.775 70.2249 155.021 70.2928 155.26 70.3811C155.45 70.4527 155.628 70.5535 155.787 70.68C155.925 70.7963 156.034 70.9427 156.107 71.1081C156.182 71.2983 156.218 71.5016 156.214 71.706C156.223 71.9397 156.175 72.1721 156.075 72.3831C155.974 72.5941 155.823 72.7772 155.636 72.9165C155.153 73.2346 154.581 73.3874 154.005 73.3519C153.71 73.3548 153.415 73.3276 153.125 73.2708C152.887 73.2233 152.652 73.1604 152.422 73.0825C152.254 73.0256 152.091 72.9578 151.932 72.8796C151.852 72.8443 151.777 72.7997 151.708 72.7467L152.219 71.7872Z" fill="white"/>
<path d="M158.794 71.3669C158.68 71.2303 158.562 71.079 158.426 70.9166C158.29 70.7542 158.176 70.5955 158.058 70.4405L157.73 70.0088C157.631 69.8759 157.546 69.7652 157.484 69.6766C157.421 69.588 157.381 69.5327 157.318 69.4478C157.256 69.3642 157.2 69.2767 157.149 69.1858C157.099 69.0994 157.056 69.0093 157.02 68.9164C156.988 68.8389 156.971 68.7564 156.968 68.6728C156.964 68.6025 156.977 68.5322 157.006 68.468C157.035 68.4038 157.079 68.3474 157.134 68.3038C157.251 68.2205 157.392 68.1777 157.535 68.182C157.654 68.1791 157.772 68.1953 157.885 68.23C157.947 68.2492 158.007 68.2726 158.065 68.3001L158.353 68.7355L158.721 69.2854L159.089 69.8353C159.21 70.0124 159.317 70.1601 159.406 70.2782C159.494 70.1601 159.586 70.0309 159.682 69.9091C159.777 69.7873 159.873 69.6286 159.969 69.481L160.249 69.0455L160.503 68.647L160.609 68.4994C160.653 68.442 160.705 68.3922 160.764 68.3517C160.831 68.3047 160.904 68.2674 160.981 68.241C161.076 68.2097 161.176 68.1948 161.276 68.1967C161.36 68.1961 161.445 68.2073 161.526 68.23C161.598 68.2501 161.668 68.276 161.736 68.3074C161.789 68.332 161.84 68.3617 161.887 68.396L161.968 68.4624C161.927 68.5473 161.868 68.658 161.784 68.7983C161.699 68.9385 161.6 69.0972 161.486 69.2707L161.117 69.8279C160.985 70.0235 160.852 70.2191 160.72 70.4073C160.587 70.5955 160.458 70.7764 160.333 70.9461C160.208 71.1159 160.098 71.2635 160.006 71.3927V73.2601H158.776L158.794 71.3669Z" fill="white"/>
<path d="M165.186 68.717C165.177 68.6371 165.188 68.5562 165.219 68.482C165.25 68.4078 165.299 68.3426 165.362 68.2926C165.501 68.2056 165.663 68.1631 165.826 68.1708C165.951 68.1704 166.075 68.1878 166.194 68.2225L166.404 68.2889V70.8722C166.402 71.0692 166.42 71.266 166.459 71.459C166.49 71.6132 166.552 71.7591 166.643 71.8871C166.731 72.0036 166.848 72.0941 166.982 72.1492C167.323 72.2673 167.694 72.2673 168.035 72.1492C168.169 72.0941 168.287 72.0036 168.374 71.8871C168.465 71.7591 168.527 71.6132 168.558 71.459C168.598 71.2611 168.616 71.0594 168.613 70.8575V68.717C168.604 68.6371 168.616 68.5562 168.647 68.482C168.678 68.4078 168.727 68.3426 168.79 68.2926C168.928 68.2056 169.09 68.1631 169.254 68.1708C169.378 68.1704 169.502 68.1878 169.622 68.2225L169.832 68.2889V70.9903C169.851 71.3074 169.807 71.6251 169.703 71.9252C169.6 72.2254 169.438 72.5021 169.228 72.7396C168.742 73.1448 168.13 73.3667 167.498 73.3667C166.865 73.3667 166.253 73.1448 165.767 72.7396C165.557 72.5021 165.395 72.2254 165.292 71.9252C165.188 71.6251 165.144 71.3074 165.163 70.9903L165.186 68.717Z" fill="white"/>
<path d="M171.345 73.2342V68.717C171.336 68.6371 171.348 68.5562 171.379 68.482C171.409 68.4078 171.459 68.3426 171.521 68.2926C171.66 68.2056 171.822 68.1631 171.985 68.1708C172.11 68.1704 172.234 68.1878 172.353 68.2225L172.563 68.2889V73.2342H171.345Z" fill="white"/>
<path d="M177.625 69.3222H176.447C176.274 69.3389 176.101 69.2873 175.965 69.1783C175.915 69.1219 175.876 69.056 175.851 68.9843C175.827 68.9127 175.816 68.8369 175.821 68.7613C175.819 68.6357 175.839 68.5108 175.88 68.3922C175.905 68.3145 175.938 68.2392 175.976 68.1671H180.026C180.199 68.1505 180.372 68.2021 180.508 68.3111C180.558 68.3675 180.597 68.4334 180.622 68.505C180.646 68.5766 180.657 68.6525 180.652 68.7281C180.654 68.8536 180.634 68.9786 180.593 69.0971C180.568 69.1749 180.535 69.2502 180.497 69.3222H178.848V73.2342H177.618L177.625 69.3222Z" fill="white"/>
<path d="M181.318 70.7022C181.315 70.3497 181.384 70.0003 181.519 69.675C181.654 69.3496 181.854 69.0551 182.106 68.809C182.356 68.5659 182.651 68.3742 182.975 68.2443C183.665 67.9687 184.434 67.9687 185.125 68.2443C185.448 68.3742 185.743 68.5659 185.993 68.809C186.245 69.0557 186.444 69.3503 186.581 69.6754C186.717 70.0004 186.787 70.3496 186.787 70.7022C186.787 71.0549 186.717 71.4039 186.581 71.729C186.444 72.0541 186.245 72.3487 185.993 72.5954C185.743 72.8385 185.448 73.0302 185.125 73.1601C184.434 73.4357 183.665 73.4357 182.975 73.1601C182.651 73.0302 182.356 72.8385 182.106 72.5954C181.854 72.3493 181.654 72.0548 181.519 71.7294C181.384 71.4041 181.315 71.0547 181.318 70.7022ZM184.05 72.2153C184.249 72.218 184.447 72.1791 184.631 72.1009C184.804 72.026 184.959 71.9168 185.088 71.7798C185.217 71.6406 185.318 71.4777 185.386 71.3001C185.458 71.1092 185.495 70.9064 185.493 70.7022C185.494 70.4968 185.458 70.2929 185.386 70.1007C185.32 69.9224 185.218 69.7592 185.088 69.6209C184.959 69.485 184.803 69.377 184.631 69.3035C184.258 69.1509 183.841 69.1509 183.468 69.3035C183.296 69.377 183.14 69.485 183.011 69.6209C182.881 69.7592 182.78 69.9224 182.713 70.1007C182.641 70.2929 182.605 70.4968 182.606 70.7022C182.605 70.9064 182.641 71.1092 182.713 71.3001C182.781 71.4777 182.882 71.6406 183.011 71.7798C183.14 71.9168 183.296 72.026 183.468 72.1009C183.652 72.1791 183.85 72.218 184.05 72.2153Z" fill="white"/>
<path d="M187.794 70.7022C187.791 70.3497 187.859 70.0003 187.995 69.675C188.13 69.3496 188.33 69.0551 188.582 68.809C188.832 68.5659 189.127 68.3742 189.45 68.2443C190.141 67.9687 190.91 67.9687 191.6 68.2443C191.924 68.3742 192.219 68.5659 192.469 68.809C192.721 69.0557 192.92 69.3503 193.057 69.6754C193.193 70.0004 193.263 70.3496 193.263 70.7022C193.263 71.0549 193.193 71.4039 193.057 71.729C192.92 72.0541 192.721 72.3487 192.469 72.5954C192.219 72.8385 191.924 73.0302 191.6 73.1601C190.91 73.4357 190.141 73.4357 189.45 73.1601C189.127 73.0302 188.832 72.8385 188.582 72.5954C188.33 72.3493 188.13 72.0548 187.995 71.7294C187.859 71.4041 187.791 71.0547 187.794 70.7022ZM190.525 72.2153C190.725 72.218 190.923 72.1791 191.107 72.1009C191.279 72.026 191.435 71.9168 191.564 71.7798C191.693 71.6406 191.794 71.4777 191.862 71.3001C191.934 71.1092 191.97 70.9064 191.968 70.7022C191.97 70.4968 191.934 70.2929 191.862 70.1007C191.795 69.9224 191.694 69.7592 191.564 69.6209C191.435 69.485 191.279 69.377 191.107 69.3035C190.734 69.1509 190.317 69.1509 189.944 69.3035C189.772 69.377 189.616 69.485 189.487 69.6209C189.357 69.7592 189.255 69.9224 189.189 70.1007C189.117 70.2929 189.081 70.4968 189.082 70.7022C189.08 70.9064 189.117 71.1092 189.189 71.3001C189.257 71.4777 189.358 71.6406 189.487 71.7798C189.616 71.9168 189.771 72.026 189.944 72.1009C190.128 72.1791 190.326 72.218 190.525 72.2153Z" fill="white"/>
<path d="M194.527 73.2342V68.717C194.518 68.6371 194.53 68.5562 194.561 68.482C194.592 68.4078 194.641 68.3426 194.704 68.2926C194.842 68.2056 195.004 68.1631 195.168 68.1708C195.292 68.1704 195.416 68.1878 195.536 68.2225L195.746 68.2889V72.0827H198.08V73.2342H194.527Z" fill="white"/>
<path d="M199.081 73.2342V68.7171C199.072 68.6372 199.084 68.5563 199.115 68.4821C199.146 68.4079 199.195 68.3427 199.258 68.2927C199.397 68.2057 199.558 68.1632 199.722 68.1709C199.846 68.1705 199.97 68.1879 200.09 68.2226L200.3 68.289V70.1675L200.668 69.7504L201.091 69.3002C201.235 69.1452 201.375 69.0013 201.511 68.8647L201.879 68.4957C201.975 68.4113 202.079 68.336 202.188 68.2706C202.323 68.1955 202.476 68.1586 202.63 68.1635C202.735 68.1629 202.839 68.1765 202.939 68.2041C203.023 68.2261 203.103 68.2583 203.179 68.3001C203.238 68.3316 203.294 68.37 203.344 68.4145C203.379 68.4436 203.411 68.4757 203.44 68.5104C203.418 68.5363 203.359 68.5916 203.271 68.6802L202.958 68.9976L202.564 69.3998C202.424 69.5438 202.284 69.6877 202.144 69.8242L201.776 70.2191L201.5 70.5217C201.706 70.7432 201.905 70.9609 202.089 71.175C202.273 71.389 202.457 71.6067 202.63 71.8282C202.803 72.0496 202.976 72.271 203.146 72.4998C203.315 72.7286 203.488 72.9722 203.665 73.2379H202.155C202.03 73.0645 201.887 72.8689 201.728 72.6807C201.57 72.4924 201.412 72.2821 201.246 72.0828C201.08 71.8835 200.918 71.6916 200.749 71.5071C200.58 71.3226 200.432 71.1676 200.292 71.0273V73.2416L199.081 73.2342Z" fill="white"/>
<path d="M204.692 73.2342V68.717C204.683 68.6371 204.695 68.5562 204.726 68.482C204.757 68.4078 204.806 68.3426 204.868 68.2926C205.007 68.2056 205.169 68.1631 205.332 68.1708C205.457 68.1704 205.581 68.1878 205.701 68.2225L205.91 68.2889V73.2342H204.692Z" fill="white"/>
<path d="M208.705 69.322H207.527C207.353 69.3387 207.18 69.2871 207.044 69.1781C206.994 69.1217 206.955 69.0557 206.93 68.9841C206.906 68.9125 206.896 68.8367 206.901 68.7611C206.9 68.6357 206.92 68.511 206.96 68.392C206.986 68.3149 207.018 68.2397 207.055 68.1669H211.105C211.278 68.1494 211.452 68.2012 211.587 68.3108C211.638 68.3672 211.676 68.4332 211.701 68.5048C211.726 68.5764 211.736 68.6523 211.731 68.7278C211.733 68.8534 211.713 68.9784 211.672 69.0969C211.648 69.1753 211.616 69.2508 211.576 69.322H209.927V73.2339H208.705V69.322Z" fill="white"/>
<path d="M104.12 44.3745C102.132 42.8835 99.3479 41.8994 95.7671 41.4221L89.1588 40.5954C87.3867 40.3814 86.027 39.9816 85.0797 39.396C84.6278 39.1388 84.2556 38.7614 84.0042 38.3056C83.7528 37.8497 83.6319 37.3331 83.6549 36.8127C83.6549 34.1678 86.1596 32.8454 91.1689 32.8454C92.7741 32.827 94.3773 32.9679 95.9548 33.2661C97.1649 33.503 98.356 33.8287 99.5185 34.2404C100.34 34.5315 101.132 34.9023 101.882 35.3476C102.283 35.5849 102.662 35.8565 103.016 36.1595C103.227 36.0662 103.423 35.9418 103.598 35.7904C103.875 35.5781 104.122 35.3299 104.334 35.0523C104.584 34.7295 104.801 34.382 104.982 34.0153C105.184 33.5893 105.284 33.1215 105.273 32.6498C105.273 31.0531 104.032 29.7553 101.551 28.7564C99.0694 27.7575 95.583 27.2654 91.0915 27.2802C88.7875 27.2351 86.4883 27.5083 84.2587 28.0921C82.6024 28.524 81.0498 29.2858 79.6936 30.3322C78.5991 31.198 77.7259 32.3125 77.146 33.5835C76.6062 34.8229 76.3304 36.1615 76.3361 37.5139C76.2986 38.9381 76.5989 40.3509 77.2123 41.6361C77.7881 42.7739 78.6199 43.7619 79.6421 44.5221C80.7687 45.3454 82.0275 45.9695 83.3641 46.3673C84.9149 46.8419 86.5098 47.1572 88.1243 47.3084L93.1753 47.8915C95.5069 48.1375 97.1255 48.5816 98.0312 49.2238C98.4751 49.5276 98.8335 49.9407 99.0721 50.4235C99.3106 50.9063 99.4213 51.4425 99.3934 51.9805C99.3934 53.41 98.6804 54.4163 97.2544 54.9994C95.8284 55.5824 93.9877 55.8752 91.7321 55.8777C90.1285 55.8861 88.5272 55.7552 86.9462 55.4865C85.6206 55.2626 84.3119 54.9482 83.029 54.5454C82.0495 54.2413 81.0872 53.884 80.1464 53.4752C79.583 53.2437 79.042 52.9608 78.5302 52.6301L75.7433 57.6307C76.2736 58.0059 76.8367 58.332 77.4258 58.6049C78.5262 59.1296 79.6631 59.5737 80.8275 59.9335C82.4496 60.4499 84.1037 60.8592 85.7791 61.1588C87.8741 61.5191 89.9969 61.692 92.1224 61.6754C96.9599 61.6754 100.662 60.7024 103.229 58.7563C104.458 57.872 105.451 56.6996 106.123 55.3415C106.795 53.9834 107.125 52.481 107.084 50.9657C107.094 48.065 106.106 45.8679 104.12 44.3745Z" fill="white"/>
<path d="M119.156 12.917C117.904 12.917 116.932 13.1987 116.24 13.7621C115.551 14.3231 115.205 15.1903 115.205 16.3454V60.7677H122.594V13.6551C122.376 13.569 121.945 13.4287 121.302 13.2344C120.606 13.0235 119.883 12.9166 119.156 12.917Z" fill="white"/>
<path d="M136.216 13.5735C135.627 13.5666 135.043 13.6777 134.498 13.9001C133.953 14.1226 133.458 14.452 133.041 14.8691C132.625 15.2861 132.296 15.7823 132.074 16.3286C131.851 16.8748 131.74 17.4601 131.746 18.0501C131.729 18.649 131.832 19.2453 132.049 19.8037C132.266 20.3621 132.592 20.8712 133.009 21.3009C133.425 21.7306 133.923 22.0722 134.474 22.3055C135.025 22.5387 135.616 22.6589 136.214 22.6589C136.812 22.6589 137.403 22.5387 137.954 22.3055C138.504 22.0722 139.003 21.7306 139.419 21.3009C139.836 20.8712 140.162 20.3621 140.379 19.8037C140.596 19.2453 140.699 18.649 140.681 18.0501C140.688 17.4604 140.577 16.8754 140.355 16.3294C140.132 15.7834 139.804 15.2874 139.388 14.8704C138.972 14.4534 138.477 14.1239 137.932 13.9012C137.388 13.6785 136.804 13.5671 136.216 13.5735Z" fill="white"/>
<path d="M136.459 28.1807C135.207 28.1807 134.236 28.4501 133.547 28.9889C132.857 29.5277 132.511 30.4048 132.508 31.6202V60.775H139.897V28.893C139.684 28.8081 139.249 28.6679 138.605 28.4723C137.908 28.2701 137.185 28.1719 136.459 28.1807Z" fill="white"/>
<path d="M176.602 30.9375C175.124 29.7079 173.419 28.7813 171.584 28.2102C169.53 27.5661 167.389 27.2485 165.237 27.2692C163.096 27.2468 160.965 27.5644 158.923 28.2102C157.101 28.7865 155.408 29.7128 153.939 30.9375C152.529 32.1269 151.398 33.6123 150.625 35.2886C149.8 37.1115 149.39 39.0958 149.425 41.0974V60.7676H156.788V42.9795C156.788 40.0271 157.49 37.7883 158.894 36.2629C160.298 34.7375 162.412 33.9674 165.237 33.9526C167.998 33.9526 170.092 34.7215 171.518 36.2592C172.944 37.7969 173.657 40.0358 173.657 42.9758V60.7639H181.038V41.0937C181.073 39.096 180.676 37.1145 179.875 35.2849C179.119 33.6103 178.001 32.1252 176.602 30.9375Z" fill="white"/>
<path d="M208.171 53.4308C207.446 53.9013 206.663 54.2736 205.84 54.5379C204.718 54.9365 203.534 55.1351 202.343 55.1247C201.59 55.1269 200.84 55.0389 200.108 54.8627C199.423 54.7033 198.782 54.3932 198.231 53.9548C197.672 53.4974 197.238 52.9058 196.968 52.235C196.637 51.3537 196.483 50.4156 196.515 49.4746V34.9968H208.948C209.15 34.5636 209.327 34.1187 209.478 33.6646C209.699 33.0061 209.809 32.3149 209.802 31.62C209.802 30.4932 209.51 29.6321 208.925 29.0367C208.341 28.4413 207.339 28.1498 205.918 28.1621H196.515V19.674C196.298 19.5891 195.856 19.4489 195.186 19.2533C194.481 19.0535 193.751 18.9554 193.018 18.9617C191.81 18.9617 190.86 19.2324 190.168 19.7736C189.476 20.3124 189.134 21.1908 189.134 22.4012V50.9655C189.134 54.1639 190.104 56.7473 192.046 58.7155C193.987 60.6838 196.859 61.6679 200.661 61.6679C201.897 61.6721 203.131 61.5485 204.342 61.2989C205.378 61.085 206.396 60.7914 207.387 60.4205C208.186 60.1245 208.957 59.7538 209.688 59.3134C210.31 58.9222 210.792 58.6011 211.142 58.3391L208.171 53.4308Z" fill="white"/>
<defs>
<radialGradient id="paint0_radial_1014_7422" cx="0" cy="0" r="1" gradientUnits="userSpaceOnUse" gradientTransform="translate(20.1931 28.7748) scale(103.145 103.396)">
<stop offset="0.1" stop-color="#2C2F36"/>
<stop offset="0.33" stop-color="#202328"/>
<stop offset="0.94" stop-color="#040708"/>
</radialGradient>
</defs>
</svg>
