<svg width="77" height="76" viewBox="0 0 77 76" fill="none" xmlns="http://www.w3.org/2000/svg">
<path d="M6.84444 76L70.1556 76C73.9356 76 77 72.9754 77 69.2444L77 6.75555C77 3.02456 73.9356 0 70.1556 0L6.84444 0C3.06436 0 0 3.02456 0 6.75555L0 69.2444C0 72.9754 3.06436 76 6.84444 76Z" fill="url(#paint0_radial_1014_7574)"/>
<path d="M28.1111 50.3651L53.8419 32.7825C53.8419 32.7825 55.003 32.1221 55.003 31.0876C55.003 29.7033 53.5364 29.254 53.5364 29.254L39.3739 23.7168C38.8697 23.5238 38.173 24.0727 38.8269 24.7633L43.5141 29.4048C43.5141 29.4048 44.828 30.6624 44.828 31.4918C44.828 32.3211 44.0305 33.057 44.0305 33.057L26.9622 49.2945C26.3541 49.8735 27.1761 50.92 28.1111 50.3651Z" fill="#0025FF"/>
<path d="M48.8889 5.76916L23.1611 23.3547C23.1611 23.3547 22 24.0122 22 25.0496C22 26.4339 23.4667 26.8833 23.4667 26.8833L37.6261 32.4114C38.1303 32.6044 38.8269 32.0555 38.173 31.3649L33.4858 26.7235C33.4858 26.7235 32.1719 25.4658 32.1719 24.6365C32.1719 23.8071 32.9694 23.0712 32.9694 23.0712L50.0378 6.83377C50.6458 6.25472 49.8239 5.20821 48.8889 5.76916Z" fill="#0025FF"/>
<path d="M28.7222 62.507C28.1049 62.0964 27.3921 61.8474 26.6506 61.7832L25.0097 61.5781C24.6549 61.5489 24.3103 61.4461 23.9983 61.2765C23.8867 61.2141 23.7945 61.1226 23.732 61.0119C23.6695 60.9013 23.639 60.7758 23.6439 60.6492C23.6439 60.0038 24.2652 59.6811 25.5078 59.6811C25.9065 59.6761 26.3047 59.7104 26.6964 59.7837C26.9975 59.8408 27.2937 59.9204 27.5825 60.0219C27.7868 60.0928 27.9833 60.1838 28.1692 60.2933C28.269 60.3497 28.3632 60.4153 28.4503 60.4894C28.5023 60.4675 28.5508 60.438 28.5939 60.4019C28.6634 60.3495 28.7261 60.2887 28.7803 60.221C28.8416 60.1419 28.8948 60.057 28.9392 59.9676C28.9899 59.8632 29.015 59.7486 29.0125 59.6329C29.0125 59.2408 28.707 58.9241 28.0958 58.6829C27.2602 58.4044 26.3799 58.2796 25.4986 58.3149C24.9267 58.3034 24.356 58.3703 23.8028 58.514C23.3914 58.62 23.0059 58.8067 22.6692 59.0629C22.3958 59.2754 22.1779 59.5494 22.0336 59.8621C21.8991 60.1653 21.8304 60.4931 21.832 60.8241C21.8228 61.1721 21.8971 61.5172 22.0489 61.8314C22.1941 62.1105 22.4033 62.3522 22.66 62.5372C22.9376 62.7378 23.2475 62.8908 23.5767 62.9895C23.9619 63.1054 24.3581 63.1822 24.7592 63.2187L26.012 63.3635C26.4335 63.3817 26.8457 63.4919 27.2189 63.6862C27.3285 63.7613 27.4168 63.8628 27.4756 63.981C27.5344 64.0992 27.5617 64.2302 27.555 64.3618C27.5597 64.5248 27.5107 64.6849 27.4154 64.8181C27.3201 64.9514 27.1836 65.0505 27.0264 65.1006C26.588 65.2573 26.1235 65.3299 25.6575 65.3148C25.2592 65.3168 24.8615 65.2845 24.4689 65.2183C23.8886 65.1224 23.3222 64.9574 22.7822 64.7267C22.6425 64.669 22.5076 64.6005 22.3789 64.5216L21.6945 65.746C21.8265 65.8376 21.9666 65.9174 22.1131 65.9843C22.3858 66.1128 22.6677 66.2217 22.9564 66.31C23.3571 66.4355 23.7653 66.5362 24.1786 66.6116C24.6993 66.6999 25.227 66.7423 25.7553 66.7383C26.9551 66.7383 27.8718 66.5 28.5053 66.0235C28.8102 65.8076 29.0568 65.5213 29.2235 65.1895C29.3903 64.8578 29.472 64.4907 29.4617 64.1205C29.482 63.8123 29.4252 63.5039 29.2963 63.2225C29.1673 62.9411 28.9702 62.6954 28.7222 62.507Z" fill="white"/>
<path d="M32.4683 54.8194C32.2103 54.804 31.9547 54.8764 31.7441 55.0245C31.6548 55.1041 31.5852 55.2028 31.5407 55.3132C31.4962 55.4235 31.478 55.5424 31.4875 55.6608V66.518H33.3208V54.9943C33.2658 54.9732 33.1589 54.937 33.0153 54.8888C32.8372 54.8401 32.653 54.8168 32.4683 54.8194Z" fill="white"/>
<path d="M36.7003 54.9761C36.5546 54.9761 36.4104 55.0044 36.2758 55.0594C36.1413 55.1145 36.019 55.1951 35.916 55.2968C35.813 55.3984 35.7313 55.5191 35.6756 55.6519C35.6198 55.7847 35.5911 55.9271 35.5911 56.0709C35.5911 56.2146 35.6198 56.357 35.6756 56.4898C35.7313 56.6226 35.813 56.7433 35.916 56.845C36.019 56.9466 36.1413 57.0273 36.2758 57.0823C36.4104 57.1373 36.5546 57.1656 36.7003 57.1656C36.8464 57.1672 36.9914 57.14 37.1267 57.0856C37.262 57.0311 37.3849 56.9506 37.4882 56.8486C37.5916 56.7466 37.6732 56.6253 37.7284 56.4917C37.7835 56.3582 37.8111 56.2151 37.8095 56.0709C37.8107 55.9268 37.7828 55.7839 37.7275 55.6505C37.6722 55.5171 37.5906 55.396 37.4873 55.2941C37.3841 55.1922 37.2613 55.1116 37.1262 55.057C36.9911 55.0024 36.8463 54.9749 36.7003 54.9761Z" fill="white"/>
<path d="M36.7644 58.5471C36.5072 58.5312 36.2521 58.6013 36.0403 58.7462C35.9495 58.826 35.879 58.9256 35.8345 59.0372C35.7899 59.1488 35.7725 59.2691 35.7836 59.3886V66.5121H37.6169V58.7221C37.5619 58.7009 37.455 58.6678 37.2931 58.6195C37.1215 58.5696 36.9433 58.5452 36.7644 58.5471Z" fill="white"/>
<path d="M46.7286 59.2227C46.3619 58.9212 45.9381 58.6946 45.4819 58.5562C44.973 58.3975 44.442 58.3192 43.9083 58.324C43.3767 58.3189 42.8476 58.3973 42.3408 58.5562C41.8934 58.6979 41.4783 58.9243 41.1186 59.2227C40.7696 59.5133 40.4891 59.8756 40.2966 60.2843C40.0911 60.7301 39.9868 61.2149 39.9911 61.7048V66.5121H41.8244V62.1662C41.7821 61.5728 41.9687 60.9856 42.3469 60.5225C42.7841 60.1583 43.3378 59.9585 43.9098 59.9585C44.4819 59.9585 45.0356 60.1583 45.4728 60.5225C45.8567 60.983 46.047 61.5713 46.0044 62.1662V66.5121H47.8378V61.7048C47.8454 61.2162 47.7464 60.7317 47.5475 60.2843C47.3583 59.8745 47.0784 59.5118 46.7286 59.2227Z" fill="white"/>
<path d="M54.5661 64.7206C54.3863 64.8346 54.1921 64.9249 53.9886 64.989C53.7092 65.0873 53.4144 65.1363 53.1178 65.1338C52.9315 65.1344 52.7458 65.1132 52.5647 65.0705C52.3941 65.0309 52.2345 64.9547 52.0972 64.8473C51.9606 64.7345 51.8554 64.5892 51.7916 64.4251C51.7084 64.2107 51.6699 63.9819 51.6786 63.7525V60.2149H54.7647C54.8152 60.1095 54.8581 60.0006 54.893 59.8892C54.9493 59.7282 54.9772 59.5589 54.9755 59.3886C54.9835 59.2748 54.9682 59.1605 54.9304 59.0528C54.8926 58.945 54.8331 58.8458 54.7555 58.7612C54.5445 58.5972 54.2772 58.5204 54.01 58.5471H51.6786V56.4692C51.6236 56.4481 51.5136 56.4149 51.3486 56.3666C51.1738 56.3171 50.9927 56.2928 50.8108 56.2943C50.5586 56.2801 50.3089 56.3502 50.1019 56.4933C50.0112 56.5731 49.9407 56.6728 49.8961 56.7843C49.8515 56.8959 49.8341 57.0163 49.8453 57.1357V64.1174C49.8302 64.4655 49.8866 64.8129 50.011 65.1389C50.1355 65.4649 50.3254 65.7627 50.5694 66.0144C51.0522 66.4929 51.7652 66.7332 52.7083 66.7352C53.0161 66.7369 53.3232 66.7076 53.625 66.6478C53.8818 66.5959 54.1342 66.5243 54.3797 66.4336C54.5778 66.361 54.769 66.2712 54.9511 66.1652C55.1039 66.0687 55.2261 65.9903 55.3116 65.927L54.5661 64.7206Z" fill="white"/>
<defs>
<radialGradient id="paint0_radial_1014_7574" cx="0" cy="0" r="1" gradientUnits="userSpaceOnUse" gradientTransform="translate(23.5186 22.7553) scale(128.189 92.7841)">
<stop offset="0.1" stop-color="#2C2F36"/>
<stop offset="0.33" stop-color="#202328"/>
<stop offset="0.94" stop-color="#040708"/>
</radialGradient>
</defs>
</svg>
