<svg width="78" height="77" viewBox="0 0 78 77" fill="none" xmlns="http://www.w3.org/2000/svg">
<path d="M39.1536 0.303223H38.8465C17.5618 0.303223 0.307098 17.3367 0.307098 38.3485V38.6517C0.307098 59.6635 17.5618 76.6969 38.8465 76.6969H39.1536C60.4383 76.6969 77.6929 59.6635 77.6929 38.6517V38.3485C77.6929 17.3367 60.4383 0.303223 39.1536 0.303223Z" fill="url(#paint0_radial_1014_7563)"/>
<path d="M29.4558 62.0365C28.8507 61.6349 28.1522 61.3919 27.4259 61.3301L25.8229 61.13C25.4754 61.0986 25.1385 60.9953 24.8341 60.8269C24.726 60.7664 24.6366 60.678 24.5754 60.5712C24.5143 60.4644 24.4838 60.3432 24.4871 60.2206C24.4871 59.59 25.0951 59.2748 26.3112 59.2748C26.7015 59.2705 27.0913 59.304 27.475 59.3748C27.7683 59.4305 28.0568 59.5086 28.338 59.6082C28.538 59.6765 28.7304 59.7649 28.9122 59.872C29.0101 59.9282 29.1026 59.9932 29.1886 60.066C29.2392 60.0426 29.2866 60.013 29.3298 59.9781C29.3974 59.9281 29.4574 59.8689 29.508 59.8022C29.5685 59.7242 29.622 59.641 29.6676 59.5537C29.7161 59.4513 29.7403 59.3393 29.7383 59.2263C29.7383 58.8443 29.4312 58.5341 28.817 58.2956C28.0003 58.0264 27.1408 57.9062 26.2805 57.9409C25.7215 57.9298 25.1636 57.994 24.6222 58.1319C24.2201 58.236 23.8432 58.4184 23.5136 58.6685C23.2493 58.8777 23.0389 59.1457 22.8995 59.4506C22.768 59.7468 22.7011 60.067 22.7029 60.3904C22.6935 60.7307 22.7661 61.0684 22.9148 61.3756C23.0544 61.648 23.2562 61.8847 23.5044 62.0668C23.7782 62.2631 24.0834 62.4127 24.4073 62.5094C24.7836 62.6221 25.1704 62.6973 25.5619 62.7337L26.7902 62.8731C27.2006 62.884 27.603 62.9877 27.9664 63.1763C28.0745 63.2483 28.1619 63.3468 28.22 63.4621C28.2781 63.5774 28.305 63.7055 28.298 63.8341C28.3074 63.9953 28.2625 64.1549 28.1703 64.2882C28.0781 64.4215 27.9437 64.5208 27.7883 64.5708C27.3605 64.7237 26.9071 64.7946 26.4524 64.78C26.0626 64.7823 25.6732 64.7518 25.2886 64.689C24.9677 64.6348 24.6507 64.5598 24.3397 64.4647C24.1018 64.3912 23.8681 64.3052 23.6395 64.207C23.5029 64.1517 23.3713 64.0848 23.2465 64.0069L22.5709 65.2013C22.6994 65.2906 22.8361 65.3678 22.9793 65.4317C23.2464 65.5535 23.5226 65.6548 23.8054 65.7349C24.1983 65.8624 24.5994 65.9637 25.0061 66.038C25.5132 66.124 26.027 66.1655 26.5415 66.1623C27.7146 66.1623 28.6123 65.9299 29.2347 65.4651C29.53 65.2515 29.7683 64.9702 29.9288 64.6454C30.0893 64.3205 30.1673 63.962 30.1559 63.6007C30.1751 63.3036 30.1215 63.0063 29.9997 62.734C29.8778 62.4617 29.6912 62.2225 29.4558 62.0365Z" fill="black"/>
<path d="M33.1039 54.5185C32.8518 54.5036 32.6022 54.5754 32.3976 54.7216C32.3097 54.7988 32.2412 54.8952 32.1975 55.003C32.1538 55.1109 32.1361 55.2273 32.1458 55.3431V65.9533H33.9361V54.6913C33.8829 54.6711 33.7806 54.6378 33.6291 54.5913C33.4588 54.5407 33.2817 54.5161 33.1039 54.5185Z" fill="black"/>
<path d="M37.2404 54.6762C36.9938 54.6809 36.7564 54.7698 36.5685 54.9276C36.3807 55.0855 36.254 55.3027 36.2099 55.5423C36.1657 55.7819 36.207 56.0292 36.3265 56.2422C36.4461 56.4552 36.6366 56.6208 36.8658 56.711C37.0949 56.8011 37.3486 56.8102 37.5838 56.7367C37.819 56.6632 38.0212 56.5116 38.1561 56.3077C38.291 56.1038 38.3502 55.8601 38.3238 55.618C38.2974 55.3759 38.1869 55.1502 38.0112 54.9793C37.9103 54.8798 37.7899 54.8015 37.6574 54.7494C37.5249 54.6973 37.383 54.6724 37.2404 54.6762Z" fill="black"/>
<path d="M37.3018 58.1653C37.051 58.1497 36.8022 58.2181 36.5955 58.3593C36.5065 58.437 36.4373 58.5343 36.3936 58.6433C36.3498 58.7523 36.3327 58.87 36.3437 58.9868V65.9592H38.1371V58.335L37.83 58.235C37.6583 58.1866 37.4804 58.1631 37.3018 58.1653Z" fill="black"/>
<path d="M47.0457 58.8262C46.6846 58.53 46.2668 58.3084 45.8173 58.1745C45.3207 58.0203 44.8025 57.9446 44.2819 57.9501C43.7612 57.9432 43.2428 58.019 42.7465 58.1745C42.3033 58.3102 41.892 58.5318 41.5365 58.8262C41.1956 59.1108 40.922 59.4657 40.735 59.866C40.5281 60.3001 40.4231 60.7747 40.428 61.2545V65.9533H42.2183V61.7092C42.1773 61.1289 42.3606 60.5548 42.7311 60.1025C43.1603 59.744 43.7043 59.5472 44.2665 59.5472C44.8288 59.5472 45.3728 59.744 45.802 60.1025C46.1772 60.5526 46.363 61.1278 46.3209 61.7092V65.9533H48.1113V61.2545C48.1208 60.7769 48.0244 60.303 47.8287 59.866C47.6499 59.4659 47.3823 59.1106 47.0457 58.8262Z" fill="black"/>
<path d="M54.7075 64.2011C54.5302 64.3123 54.3393 64.4009 54.1394 64.4648C53.6922 64.6184 53.2104 64.6457 52.7483 64.5436C52.5827 64.504 52.4276 64.4295 52.2938 64.3253C52.1573 64.2162 52.0515 64.0742 51.9867 63.9131C51.9058 63.7033 51.8682 63.4796 51.8762 63.2552V59.7963H54.8948C54.9422 59.6923 54.9842 59.5861 55.0207 59.478C55.0746 59.3197 55.1015 59.1538 55.1006 58.9869C55.1078 58.8767 55.0925 58.7663 55.0556 58.6621C55.0187 58.558 54.9609 58.4622 54.8856 58.3806C54.6788 58.2198 54.4166 58.1448 54.1547 58.1714H51.8762V56.1403C51.824 56.1191 51.7165 56.0857 51.5537 56.0372C51.3828 55.9899 51.2061 55.9665 51.0286 55.9675C50.7828 55.954 50.5395 56.0223 50.3377 56.1615C50.2484 56.2397 50.1791 56.3375 50.1353 56.4471C50.0916 56.5566 50.0746 56.6748 50.0858 56.7921V63.616C50.0709 63.9562 50.1258 64.296 50.2472 64.6148C50.3685 64.9336 50.5539 65.2249 50.7921 65.4713C51.2651 65.9421 51.9621 66.1776 52.8834 66.1776C53.1844 66.1789 53.4848 66.1505 53.7801 66.0927C54.0307 66.0412 54.277 65.9712 54.5171 65.8835C54.7106 65.8113 54.8975 65.723 55.076 65.6198C55.2265 65.5258 55.3462 65.447 55.4291 65.3864L54.7075 64.2011Z" fill="black"/>
<path d="M30.3432 48.5042L52.1034 33.6317C52.1034 33.6317 53.0861 33.0739 53.0861 32.1978C53.0861 31.0276 51.8424 30.6487 51.8424 30.6487L39.866 25.9711C39.4391 25.8074 38.8495 26.2742 39.4023 26.8563L43.3668 30.7972C43.3668 30.7972 44.4784 31.8613 44.4784 32.5646C44.4784 33.2679 43.8028 33.8863 43.8028 33.8863L29.3759 47.5948C28.8662 48.0859 29.554 48.9711 30.3432 48.5042Z" fill="#0025FF"/>
<path d="M47.9209 10.7832L26.1607 25.6558C26.1607 25.6558 25.1811 26.2136 25.1811 27.0897C25.1811 28.2598 26.4095 28.6418 26.4095 28.6418L38.3858 33.3164C38.8127 33.4801 39.4023 33.0132 38.8495 32.4312L34.8912 28.4963C34.8912 28.4963 33.7795 27.4413 33.7795 26.741C33.7795 26.0408 34.4521 25.4163 34.4521 25.4163L48.8851 11.6836C49.401 11.1925 48.7101 10.3073 47.9209 10.7832Z" fill="#0025FF"/>
<defs>
<radialGradient id="paint0_radial_1014_7563" cx="0" cy="0" r="1" gradientUnits="userSpaceOnUse" gradientTransform="translate(30.4461 19.0567) scale(108.177 78.3128)">
<stop offset="0.15" stop-color="#FBFCFF"/>
<stop offset="0.53" stop-color="#F8F9FD"/>
<stop offset="0.82" stop-color="#EEF0F8"/>
<stop offset="1" stop-color="#E4E6F3"/>
</radialGradient>
</defs>
</svg>
