<svg width="215" height="93" viewBox="0 0 215 93" fill="none" xmlns="http://www.w3.org/2000/svg">
<path d="M10.6138 88.9219H57.7371C61.8036 88.9219 65.1001 85.6173 65.1001 81.5409L65.1001 11.4219C65.1001 7.34549 61.8036 4.04092 57.7371 4.04092H10.6138C6.54732 4.04092 3.25079 7.34549 3.25079 11.4219L3.25079 81.5409C3.25079 85.6173 6.54732 88.9219 10.6138 88.9219Z" fill="url(#paint0_radial_1014_7476)"/>
<path d="M18.437 76.9981L53.8273 52.4306C53.8273 52.4306 55.4251 51.5116 55.4251 50.065C55.4251 48.1312 53.4076 47.5038 53.4076 47.5038L33.9361 39.7833C33.2403 39.5102 32.2831 40.2778 33.1814 41.2595L39.6277 47.7437C39.6277 47.7437 41.4354 49.504 41.4354 50.6628C41.4354 51.8216 40.3309 52.8476 40.3309 52.8476L16.8613 75.5145C16.0256 76.319 17.1521 77.7841 18.437 76.9981Z" fill="#0025FF"/>
<path d="M47.0239 14.71L11.6336 39.2775C11.6336 39.2775 10.0358 40.1964 10.0358 41.6431C10.0358 43.5769 12.0533 44.2043 12.0533 44.2043L31.5248 51.9248C32.2206 52.1979 33.1778 51.4303 32.2795 50.467L25.8332 43.9829C25.8332 43.9829 24.0256 42.2225 24.0256 41.0637C24.0256 39.9049 25.13 38.8789 25.13 38.8789L48.5959 16.1936C49.4353 15.3854 48.3088 13.9239 47.0239 14.71Z" fill="#0025FF"/>
<path d="M104.444 49.0168C102.456 47.5234 99.6719 46.5392 96.0911 46.0644L89.4864 45.2193C87.7144 45.0003 86.3535 44.6005 85.4036 44.0199C84.9521 43.7623 84.5801 43.3849 84.3287 42.9291C84.0774 42.4733 83.9563 41.9569 83.9789 41.4365C83.9789 38.7991 86.4836 37.4791 91.4929 37.4767C94.3382 37.4364 97.1676 37.9089 99.8462 38.8717C100.669 39.1596 101.461 39.5306 102.21 39.9788C102.611 40.2148 102.991 40.4865 103.344 40.7907C103.554 40.6959 103.75 40.5716 103.925 40.4217C104.202 40.2093 104.45 39.9611 104.662 39.6836C104.914 39.3609 105.131 39.012 105.31 38.6429C105.513 38.2186 105.614 37.7519 105.604 37.2811C105.604 35.6794 104.362 34.3816 101.878 33.3876C99.3946 32.3936 95.9082 31.9016 91.4192 31.9114C89.1163 31.8644 86.8181 32.1377 84.59 32.7233C82.9323 33.1545 81.3784 33.9164 80.0213 34.9634C78.9196 35.8344 78.0432 36.9585 77.4663 38.2406C76.9249 39.4781 76.6489 40.8159 76.6564 42.1673C76.6173 43.5912 76.9164 45.0041 77.5289 46.2895C78.1037 47.429 78.9357 48.4184 79.9587 49.1792C81.0853 50.0026 82.3441 50.6267 83.6807 51.0244C85.2311 51.5008 86.8262 51.8162 88.4409 51.9655L93.5103 52.556C95.8419 52.8143 97.4606 53.2571 98.3662 53.8845C98.8106 54.1886 99.1694 54.6024 99.408 55.0859C99.6466 55.5694 99.7569 56.1063 99.7284 56.645C99.7284 58.0744 99.0154 59.0807 97.5894 59.6638C96.1635 60.2469 94.3227 60.5384 92.0672 60.5384C90.4642 60.5544 88.8629 60.431 87.2812 60.1694C85.9552 59.9419 84.6454 59.6276 83.3604 59.2283C82.3832 58.921 81.4223 58.5638 80.4815 58.1581C79.917 57.9263 79.3748 57.6435 78.8616 57.313L76.0747 62.3099C76.6046 62.6877 77.1692 63.0139 77.7608 63.2842C78.8595 63.811 79.9952 64.2563 81.1589 64.6164C82.7829 65.1237 84.4382 65.5243 86.1142 65.8158C88.21 66.1793 90.3342 66.3535 92.4611 66.3362C97.2961 66.3362 100.997 65.3619 103.565 63.4133C104.793 62.5295 105.787 61.3572 106.459 59.999C107.131 58.6408 107.461 57.1382 107.419 55.6227C107.421 52.7122 106.43 50.5102 104.444 49.0168Z" fill="white"/>
<path d="M119.48 17.5628C118.228 17.5628 117.271 17.847 116.568 18.408C115.864 18.9689 115.529 19.8362 115.529 20.9913V65.4099H122.914V18.2788C122.697 18.1939 122.267 18.05 121.619 17.8581C120.924 17.6554 120.203 17.5559 119.48 17.5628Z" fill="white"/>
<path d="M136.525 18.2123C135.936 18.2053 135.352 18.3165 134.807 18.5392C134.261 18.7619 133.766 19.0916 133.349 19.5091C132.933 19.9265 132.604 20.4231 132.382 20.9698C132.16 21.5165 132.049 22.1022 132.056 22.6925C132.06 23.4274 132.245 24.1499 132.593 24.7963C132.942 25.4428 133.444 25.9934 134.055 26.3996C134.665 26.8058 135.367 27.0551 136.096 27.1256C136.826 27.1961 137.562 27.0855 138.239 26.8037C138.916 26.5219 139.513 26.0775 139.979 25.5096C140.444 24.9418 140.763 24.2679 140.907 23.5474C141.051 22.8269 141.016 22.0819 140.806 21.378C140.595 20.6742 140.215 20.0331 139.699 19.5113C139.286 19.0895 138.791 18.7566 138.246 18.5332C137.7 18.3099 137.114 18.2006 136.525 18.2123Z" fill="white"/>
<path d="M136.783 32.8191C135.531 32.8191 134.574 33.0922 133.871 33.631C133.167 34.1698 132.832 35.0482 132.832 36.2587V65.4134H140.218V33.5351C140 33.4465 139.57 33.3063 138.922 33.1107C138.226 32.9111 137.506 32.8129 136.783 32.8191Z" fill="white"/>
<path d="M176.93 35.5798C175.457 34.3477 173.757 33.4185 171.926 32.8452C169.873 32.2008 167.731 31.8832 165.579 31.9041C163.432 31.88 161.295 32.1977 159.247 32.8452C157.42 33.4197 155.724 34.3489 154.255 35.5798C152.847 36.7691 151.716 38.253 150.942 39.9272C150.118 41.752 149.708 43.7371 149.742 45.7397V65.4099H157.127V47.6071C157.127 44.6547 157.827 42.4146 159.229 40.8867C160.63 39.3589 162.735 38.5912 165.543 38.5839C168.309 38.5839 170.403 39.3515 171.827 40.8867C173.251 42.422 173.962 44.6621 173.962 47.6071V65.3952H181.344V45.7249C181.378 43.7261 180.981 41.7433 180.18 39.9124C179.431 38.2444 178.32 36.7644 176.93 35.5798Z" fill="white"/>
<path d="M208.498 58.0734C207.771 58.5416 206.987 58.9137 206.164 59.1806C205.041 59.576 203.858 59.7733 202.667 59.7637C201.916 59.7673 201.167 59.6805 200.436 59.5053C199.75 59.3452 199.108 59.0352 198.555 58.5975C197.996 58.1383 197.562 57.5456 197.292 56.874C196.961 55.9941 196.807 55.0571 196.839 54.1172V39.6358H209.275C209.473 39.2037 209.645 38.76 209.791 38.3072C210.012 37.6476 210.122 36.9552 210.115 36.259C210.115 35.1519 209.824 34.2809 209.242 33.6978C208.66 33.1147 207.655 32.8195 206.231 32.8195H196.839V24.3314C196.622 24.2465 196.18 24.1026 195.514 23.9107C194.807 23.7094 194.076 23.61 193.342 23.6155C192.328 23.5588 191.325 23.8447 190.492 24.4274C189.805 24.9686 189.46 25.8457 189.458 27.0587V55.6193C189.458 58.8177 190.43 61.401 192.373 63.3693C194.317 65.3375 197.188 66.3217 200.985 66.3217C202.221 66.3257 203.455 66.202 204.666 65.9526C205.701 65.7377 206.719 65.4453 207.711 65.078C208.509 64.7813 209.278 64.4106 210.008 63.9708C210.634 63.5796 211.125 63.2549 211.48 62.9965L208.498 58.0734Z" fill="white"/>
<defs>
<radialGradient id="paint0_radial_1014_7476" cx="0" cy="0" r="1" gradientUnits="userSpaceOnUse" gradientTransform="translate(20.517 28.6195) scale(103.145 103.396)">
<stop offset="0.1" stop-color="#2C2F36"/>
<stop offset="0.33" stop-color="#202328"/>
<stop offset="0.94" stop-color="#040708"/>
</radialGradient>
</defs>
</svg>
