<svg width="77" height="76" viewBox="0 0 77 76" fill="none" xmlns="http://www.w3.org/2000/svg">
<g clip-path="url(#clip0_1014_7611)">
<path d="M70.1281 0H6.81695C3.03687 0 -0.0274963 3.02457 -0.0274963 6.75556V69.2444C-0.0274963 72.9754 3.03687 76 6.81695 76H70.1281C73.9081 76 76.9725 72.9754 76.9725 69.2444V6.75556C76.9725 3.02457 73.9081 0 70.1281 0Z" fill="url(#paint0_radial_1014_7611)"/>
<path d="M24.75 67.9323L59.2778 44.3331C59.2778 44.3331 60.8361 43.4495 60.8361 42.0591C60.8361 40.2014 58.8653 39.5982 58.8653 39.5982L39.8597 32.1761C39.1814 31.9137 38.2464 32.6526 39.1233 33.5785L45.4208 39.8093C45.4208 39.8093 47.1839 41.5012 47.1839 42.6141C47.1839 43.7752 46.1114 44.7252 46.1114 44.7252L23.1947 66.5269C22.3819 67.2809 23.4819 68.6863 24.75 67.9323Z" fill="#0025FF"/>
<path d="M52.6381 8.06731L18.095 31.6665C18.095 31.6665 16.5336 32.5502 16.5336 33.9405C16.5336 35.7983 18.5044 36.4014 18.5044 36.4014L37.5131 43.8235C38.1883 44.0859 39.1233 43.347 38.2495 42.4211L31.955 36.1903C31.955 36.1903 30.1919 34.4984 30.1919 33.3856C30.1919 32.2244 31.2644 31.2745 31.2644 31.2745L54.1811 9.47271C55 8.71874 53.8908 7.31334 52.6381 8.06731Z" fill="#0025FF"/>
</g>
<defs>
<radialGradient id="paint0_radial_1014_7611" cx="0" cy="0" r="1" gradientUnits="userSpaceOnUse" gradientTransform="translate(29.3938 18.8619) scale(107.638 77.9092)">
<stop offset="0.15" stop-color="#FBFCFF"/>
<stop offset="0.53" stop-color="#F8F9FD"/>
<stop offset="0.82" stop-color="#EEF0F8"/>
<stop offset="1" stop-color="#E4E6F3"/>
</radialGradient>
<clipPath id="clip0_1014_7611">
<rect width="77" height="76" fill="white"/>
</clipPath>
</defs>
</svg>
