<svg width="214" height="93" viewBox="0 0 214 93" fill="none" xmlns="http://www.w3.org/2000/svg">
<path d="M57.5638 4.05957H10.6597C6.61213 4.05957 3.33093 7.36413 3.33093 11.4405V81.5596C3.33093 85.6359 6.61213 88.9405 10.6597 88.9405H57.5638C61.6114 88.9405 64.8926 85.6359 64.8926 81.5596V11.4405C64.8926 7.36413 61.6114 4.05957 57.5638 4.05957Z" fill="url(#paint0_radial_1014_7541)"/>
<path d="M19.718 77.2932L55.9331 52.0355C55.9331 52.0355 57.5675 51.0908 57.5675 49.5998C57.5675 47.6144 55.5007 46.9685 55.5007 46.9685L35.5775 39.034C34.8666 38.7535 33.8882 39.5396 34.8043 40.536L41.4002 47.1789C41.4002 47.1789 43.2324 48.9909 43.2324 50.1792C43.2324 51.3676 42.1074 52.4267 42.1074 52.4267L18.1057 75.7653C17.2519 76.5957 18.4062 78.1014 19.718 77.2932Z" fill="#0025FF"/>
<path d="M48.9708 13.2598L12.7557 38.5138C12.7557 38.5138 11.1214 39.4585 11.1214 40.9495C11.1214 42.935 13.1881 43.5808 13.1881 43.5808L33.1114 51.519C33.8223 51.7958 34.8043 51.0097 33.8845 50.017L27.2887 43.352C27.2887 43.352 25.4565 41.5436 25.4565 40.3516C25.4565 39.1596 26.5814 38.1041 26.5814 38.1041L50.5685 14.784C51.4369 13.9536 50.2863 12.4479 48.9708 13.2598Z" fill="#0025FF"/>
<path d="M104.138 49.0352C102.159 47.5393 99.3866 46.5552 95.82 46.0828L89.2461 45.2377C87.4823 45.0187 86.1289 44.6177 85.1859 44.0346C84.739 43.7798 84.3704 43.406 84.1202 42.9543C83.8701 42.5026 83.7482 41.9903 83.7678 41.4734C83.7678 38.8311 86.2596 37.5111 91.2432 37.5136C94.0764 37.4739 96.8937 37.9464 99.5613 38.9086C100.38 39.1981 101.168 39.569 101.914 40.0157C102.312 40.2514 102.689 40.5232 103.039 40.8276C103.249 40.7331 103.446 40.6088 103.621 40.4586C103.895 40.2443 104.142 39.9963 104.354 39.7205C104.603 39.396 104.819 39.0473 104.999 38.6797C105.201 38.2551 105.3 37.7885 105.289 37.318C105.289 35.7163 104.054 34.4172 101.584 33.4208C99.1143 32.4244 95.6441 31.9323 91.1735 31.9446C88.8802 31.8977 86.5914 32.1709 84.3724 32.7565C82.7233 33.1869 81.1777 33.9489 79.8286 34.9966C78.7243 35.8653 77.8444 36.9895 77.2635 38.2738C76.7246 39.5113 76.4499 40.8491 76.4574 42.2005C76.4179 43.6249 76.7169 45.0382 77.3295 46.3227C77.9013 47.4613 78.728 48.4505 79.7443 49.2124C80.8674 50.0351 82.1215 50.6591 83.4527 51.0576C84.9958 51.534 86.5835 51.8494 88.1907 51.9987L93.2183 52.5855C95.539 52.8315 97.1501 53.2743 98.0516 53.914C98.493 54.2188 98.8492 54.6328 99.086 55.1162C99.3228 55.5996 99.4322 56.1362 99.4037 56.6745C99.4037 58.104 98.6953 59.1102 97.2784 59.6933C95.8615 60.2764 94.0293 60.568 91.7818 60.568C90.1858 60.5775 88.5919 60.4478 87.0181 60.1805C85.6994 59.9535 84.3969 59.6391 83.1192 59.2394C82.1447 58.9326 81.187 58.5741 80.25 58.1655C79.6881 57.9354 79.1484 57.6537 78.6377 57.324L75.8674 62.3209C76.3933 62.699 76.9541 63.0252 77.542 63.2952C78.6378 63.8197 79.7693 64.2649 80.9279 64.6275C82.5431 65.1348 84.1895 65.5354 85.8565 65.8269C87.9426 66.1902 90.0569 66.3644 92.1739 66.3472C96.984 66.3472 100.669 65.373 103.229 63.4244C104.452 62.5405 105.442 61.3682 106.111 60.01C106.779 58.6519 107.107 57.1493 107.066 55.6338C107.09 52.7306 106.114 50.5311 104.138 49.0352Z" fill="black"/>
<path d="M119.092 17.5814C117.847 17.5814 116.894 17.8656 116.19 18.4265C115.487 18.9875 115.161 19.8547 115.161 21.0099V65.4284H122.508V18.2974C122.291 18.2125 121.863 18.0686 121.218 17.8766C120.528 17.6738 119.811 17.5743 119.092 17.5814Z" fill="black"/>
<path d="M136.07 18.2308C135.483 18.2239 134.902 18.3351 134.359 18.5578C133.816 18.7805 133.323 19.1102 132.909 19.5276C132.494 19.9451 132.167 20.4417 131.946 20.9884C131.725 21.5351 131.614 22.1208 131.621 22.7111C131.625 23.4463 131.808 24.1693 132.155 24.8163C132.502 25.4634 133.001 26.0145 133.609 26.4211C134.218 26.8277 134.916 27.0773 135.643 27.1479C136.369 27.2184 137.102 27.1078 137.776 26.8257C138.45 26.5437 139.045 26.0988 139.508 25.5305C139.971 24.9621 140.289 24.2877 140.432 23.5667C140.575 22.8458 140.54 22.1004 140.329 21.3964C140.119 20.6924 139.739 20.0514 139.225 19.5299C138.815 19.108 138.323 18.775 137.781 18.5516C137.238 18.3282 136.656 18.2191 136.07 18.2308Z" fill="black"/>
<path d="M136.315 32.8454C135.069 32.8454 134.116 33.1185 133.413 33.6573C132.709 34.1961 132.394 35.0597 132.394 36.2775V65.4323H139.741V33.554C139.525 33.4654 139.096 33.3252 138.451 33.1296C137.757 32.9314 137.037 32.8357 136.315 32.8454Z" fill="black"/>
<path d="M176.283 35.5981C174.813 34.3659 173.115 33.439 171.288 32.8709C169.244 32.2271 167.112 31.9096 164.971 31.9298C162.84 31.9075 160.718 32.2251 158.686 32.8709C156.87 33.4441 155.183 34.3707 153.721 35.5981C152.32 36.7874 151.194 38.2713 150.423 39.9455C149.608 41.7726 149.205 43.759 149.243 45.7617V65.432H156.59V47.6439C156.59 44.6915 157.289 42.4514 158.686 40.9235C160.083 39.3956 162.178 38.628 164.971 38.6206C167.719 38.6206 169.803 39.3883 171.222 40.9235C172.641 42.4587 173.351 44.6989 173.351 47.6439V65.432H180.698V45.7617C180.737 43.7627 180.347 41.7787 179.555 39.9455C178.801 38.2677 177.683 36.782 176.283 35.5981Z" fill="black"/>
<path d="M207.705 58.0921C206.982 58.561 206.203 58.9332 205.385 59.1992C204.268 59.5954 203.092 59.794 201.908 59.786C201.159 59.7894 200.412 59.7027 199.683 59.5277C199.002 59.367 198.364 59.057 197.814 58.6198C197.258 58.1609 196.826 57.5681 196.558 56.8964C196.228 56.0164 196.075 55.0795 196.107 54.1396V39.6545H208.481C208.679 39.2218 208.851 38.7783 208.998 38.3259C209.217 37.6657 209.326 36.9736 209.321 36.2777C209.321 35.1705 209.031 34.2996 208.448 33.7165C207.866 33.1334 206.865 32.8455 205.447 32.8455H196.103V24.3574C195.887 24.2689 195.447 24.1286 194.78 23.933C194.078 23.7349 193.351 23.6368 192.622 23.6415C191.613 23.5842 190.614 23.8701 189.786 24.4534C189.082 24.9737 188.752 25.8336 188.752 27.0625V55.6231C188.752 58.8216 189.72 61.4049 191.655 63.3731C193.589 65.3414 196.448 66.3255 200.229 66.3255C201.46 66.3298 202.688 66.2062 203.894 65.9565C204.924 65.7421 205.937 65.4497 206.924 65.0818C207.719 64.7851 208.484 64.4145 209.211 63.9747C209.834 63.5835 210.322 63.2587 210.676 63.0004L207.705 58.0921Z" fill="black"/>
<defs>
<radialGradient id="paint0_radial_1014_7541" cx="0" cy="0" r="1" gradientUnits="userSpaceOnUse" gradientTransform="translate(25.9072 24.2981) scale(86.2046 86.8184)">
<stop offset="0.15" stop-color="#FBFCFF"/>
<stop offset="0.53" stop-color="#F8F9FD"/>
<stop offset="0.82" stop-color="#EEF0F8"/>
<stop offset="1" stop-color="#E4E6F3"/>
</radialGradient>
</defs>
</svg>
