<svg width="16" height="17" viewBox="0 0 16 17" fill="none" xmlns="http://www.w3.org/2000/svg">
<g clip-path="url(#clip0_412_3753)">
<path d="M11.0008 9.00299C9.68877 9.00299 8.59577 9.86099 8.18777 11.034C7.5573 11.1122 6.98046 11.4282 6.57499 11.9172C6.16951 12.4063 5.96597 13.0317 6.00591 13.6658C6.04585 14.2998 6.32626 14.8947 6.7899 15.3291C7.25354 15.7634 7.86546 16.0045 8.50077 16.003H13.5008C14.1361 16.0045 14.748 15.7634 15.2116 15.3291C15.6753 14.8947 15.9557 14.2998 15.9956 13.6658C16.0356 13.0317 15.832 12.4063 15.4266 11.9172C15.0211 11.4282 14.4442 11.1122 13.8138 11.034C13.4058 9.86099 12.3128 9.00299 11.0008 9.00299Z" fill="#232323"/>
<path d="M0.000732422 0.00299072H16.0007V16.003H0.000732422V0.00299072Z" fill="#808080" fill-opacity="0.01"/>
<path d="M7.00078 0.00299072L6.50078 1.03399C6.66278 1.02099 6.83578 1.00299 7.00078 1.00299H7.50078L7.00078 0.00299072ZM7.00078 2.00299C5.6747 2.00299 4.40293 2.52977 3.46525 3.46746C2.52756 4.40514 2.00078 5.67691 2.00078 7.00299C2.00078 9.25499 3.51078 11.125 5.55778 11.751C5.77778 11.431 6.05278 11.151 6.37178 10.917C6.40478 10.892 6.43578 10.867 6.46978 10.843C6.54378 10.793 6.61978 10.748 6.69778 10.703C6.95647 10.5387 7.23549 10.409 7.52778 10.317C7.59778 10.175 7.67778 10.037 7.76078 9.90299C8.22778 9.15499 8.90678 8.55799 9.72978 8.24499C9.72978 8.24432 9.72978 8.24366 9.72978 8.24299C9.73278 8.24299 9.73578 8.23999 9.73978 8.23899C9.90478 8.17699 10.0758 8.12599 10.2528 8.08899C10.2958 8.07899 10.3368 8.06699 10.3798 8.05899C10.5798 8.02499 10.7868 8.00299 11.0008 8.00299C11.1492 8.00189 11.2974 8.01361 11.4438 8.03799C11.5938 8.05599 11.7358 8.08599 11.8778 8.12199C11.9616 7.75461 12.0029 7.37881 12.0008 7.00199C12.0008 6.34538 11.8715 5.6952 11.6202 5.08857C11.3689 4.48195 11.0006 3.93075 10.5363 3.46646C10.072 3.00216 9.52082 2.63387 8.9142 2.38259C8.30757 2.13132 7.65739 2.00199 7.00078 2.00199V2.00299ZM2.06278 2.06499L2.40678 3.12799C2.62678 2.86799 2.86678 2.62799 3.12578 2.40899L2.06278 2.06499ZM11.9388 2.06499L10.8448 2.43999H10.7818C10.9218 2.55099 11.0568 2.66599 11.1878 2.78399C11.3188 2.90199 11.4458 3.02599 11.5628 3.15899L11.9388 2.06499ZM0.998779 6.50299L-0.0012207 7.00299L1.03078 7.50299C1.01578 7.33299 0.998779 7.17699 0.998779 7.00299C0.998779 6.97499 0.996779 6.91899 0.998779 6.84699C1.00478 6.73099 1.02178 6.61499 1.03078 6.50299H0.998779ZM12.9688 6.50299C12.9828 6.67299 12.9988 6.82899 12.9988 7.00299C12.9988 7.02999 13.0018 7.08699 12.9988 7.15899C12.9938 7.27499 12.9768 7.39099 12.9688 7.50299H12.9988L13.9988 7.00299L12.9688 6.50299ZM2.43678 10.847L2.06178 11.941L3.15578 11.566H3.21878C3.07878 11.455 2.94378 11.34 2.81278 11.222C2.68178 11.104 2.55478 10.98 2.43778 10.847H2.43678Z" fill="#232323"/>
</g>
<defs>
<clipPath id="clip0_412_3753">
<rect width="16" height="16.003" fill="white" transform="translate(0.000732422)"/>
</clipPath>
</defs>
</svg>