<svg width="16" height="16" viewBox="0 0 16 16" fill="none" xmlns="http://www.w3.org/2000/svg">
<g clip-path="url(#clip0_758_3659)">
<path d="M0 0H16V16H0V0Z" fill="#808080" fill-opacity="0.01"/>
<path d="M4 0.0100098C3.46957 0.0100098 2.96086 0.220723 2.58579 0.595796C2.21071 0.970869 2 1.47958 2 2.01001V13.01C2 13.5404 2.21071 14.0492 2.58579 14.4242C2.96086 14.7993 3.46957 15.01 4 15.01H12C13.09 15.01 13.974 14.136 13.996 13.051C14.006 11.957 14.001 7.62801 13.996 4.92101C13.9868 4.42272 13.7917 3.94586 13.449 3.58401L10.48 0.61501C10.2937 0.423568 10.0708 0.271401 9.82473 0.16749C9.5786 0.0635796 9.31416 0.0100324 9.047 0.0100098H4Z" fill="#232323"/>
</g>
<defs>
<clipPath id="clip0_758_3659">
<rect width="16" height="16" fill="white"/>
</clipPath>
</defs>
</svg>