<svg width="16" height="16" viewBox="0 0 16 16" fill="none" xmlns="http://www.w3.org/2000/svg">
<g clip-path="url(#clip0_409_3649)">
<path d="M5.219 1L4.906 1.28101L1.282 4.90601L1 5.21899V10.78L1.282 11.093L4.907 14.718L5.219 14.999H10.782L11.094 14.718L14.719 11.093L15 10.78V5.21997L14.719 4.90698L11.094 1.28198L10.781 1.00098H5.625L5.219 1ZM7 4H9V7L8.75 9H7.281L7.001 7L7 4ZM8 9.75C8.33152 9.75 8.64946 9.88167 8.88388 10.1161C9.11831 10.3505 9.25 10.6685 9.25 11C9.25 11.3315 9.11831 11.6495 8.88388 11.8839C8.64946 12.1183 8.33152 12.25 8 12.25C7.66848 12.25 7.35054 12.1183 7.11612 11.8839C6.8817 11.6495 6.75 11.3315 6.75 11C6.75 10.6685 6.8817 10.3505 7.11612 10.1161C7.35054 9.88167 7.66848 9.75 8 9.75Z" fill="#232323"/>
</g>
<defs>
<clipPath id="clip0_409_3649">
<rect width="16" height="16" fill="white"/>
</clipPath>
</defs>
</svg>