<svg width="16" height="16" viewBox="0 0 16 16" fill="none" xmlns="http://www.w3.org/2000/svg">
<g clip-path="url(#clip0_758_3666)">
<path d="M16 0H0V16H16V0Z" fill="#808080" fill-opacity="0.01"/>
<path d="M11.7101 10.285L10.2881 11.707L13.298 14.717C14.257 15.654 15.663 14.217 14.704 13.279L11.7101 10.285Z" fill="#232323"/>
<path d="M6.5 1C5.04131 1 3.64236 1.57946 2.61091 2.61091C1.57946 3.64236 1 5.04131 1 6.5C1 7.95869 1.57946 9.35764 2.61091 10.3891C3.64236 11.4205 5.04131 12 6.5 12C7.95869 12 9.35764 11.4205 10.3891 10.3891C11.4205 9.35764 12 7.95869 12 6.5C12 5.04131 11.4205 3.64236 10.3891 2.61091C9.35764 1.57946 7.95869 1 6.5 1ZM6.5 3C7.42826 3 8.3185 3.36875 8.97487 4.02513C9.63125 4.6815 10 5.57174 10 6.5C10 7.42826 9.63125 8.3185 8.97487 8.97487C8.3185 9.63125 7.42826 10 6.5 10C5.57174 10 4.6815 9.63125 4.02513 8.97487C3.36875 8.3185 3 7.42826 3 6.5C3 5.57174 3.36875 4.6815 4.02513 4.02513C4.6815 3.36875 5.57174 3 6.5 3Z" fill="#232323"/>
</g>
<defs>
<clipPath id="clip0_758_3666">
<rect width="16" height="16" fill="white"/>
</clipPath>
</defs>
</svg>