<svg width="16" height="16" viewBox="0 0 16 16" fill="none" xmlns="http://www.w3.org/2000/svg">
<g clip-path="url(#clip0_412_3773)">
<path d="M0 0.00299072H16V16.003H0V0.00299072Z" fill="#808080" fill-opacity="0.01"/>
<path d="M7.99999 0.723022C7.26199 1.45102 6.55499 2.28002 5.80899 3.00402H2.99999V5.81302C2.27499 6.55902 1.44699 7.26602 0.718994 8.00402C1.44699 8.74202 2.27499 9.47802 2.99999 10.227V13.004H5.80699C6.55399 13.729 7.26099 14.557 7.99999 15.285C8.73899 14.556 9.47499 13.729 10.225 13.005H13V10.227C13.725 9.47702 14.553 8.74302 15.281 8.00402C14.553 7.26602 13.725 6.56002 13 5.81302V3.00402H10.223C9.47299 2.28002 8.73799 1.45202 7.99999 0.723022ZM6.99999 4.00402H8.99999V9.00402H6.99999V7.00002V4.00402ZM6.99999 10H8.99999V12H6.99999V10Z" fill="#FF9800"/>
<path d="M0 0.00299072H16V16.003H0V0.00299072Z" fill="#808080" fill-opacity="0.01"/>
</g>
<defs>
<clipPath id="clip0_412_3773">
<rect width="16" height="16" fill="white"/>
</clipPath>
</defs>
</svg>