<svg enable-background="new 0 0 306 344.35" height="144" viewBox="0 0 306 344.35" width="144" xmlns="http://www.w3.org/2000/svg"><path d="m302.107 258.262c2.401-4.159 3.893-8.845 3.893-13.053v-146.069c0-4.208-1.49-8.893-3.892-13.052l-149.108 86.087z" fill="#00599c"/><path d="m166.25 341.193 126.5-73.034c3.644-2.104 6.956-5.737 9.357-9.897l-149.107-86.087-149.107 86.088c2.401 4.159 5.714 7.793 9.357 9.896l126.5 73.034c7.287 4.208 19.213 4.208 26.5 0z" fill="#004482"/><path d="m302.108 86.087c-2.402-4.16-5.715-7.793-9.358-9.897l-126.5-73.034c-7.287-4.208-19.213-4.208-26.5 0l-126.5 73.034c-7.288 4.207-13.25 14.535-13.25 22.95v146.069c0 4.208 1.491 8.894 3.893 13.053l149.107-86.087z" fill="#659ad2"/><g fill="#fff"><path d="m153 274.175c-56.243 0-102-45.757-102-102s45.757-102 102-102c36.292 0 70.139 19.53 88.331 50.968l-44.143 25.544c-9.105-15.736-26.038-25.512-44.188-25.512-28.122 0-51 22.878-51 51 0 28.121 22.878 51 51 51 18.152 0 35.085-9.776 44.191-25.515l44.143 25.543c-18.192 31.441-52.04 50.972-88.334 50.972z"/><path d="m255 166.508h-11.334v-11.333h-11.332v11.333h-11.334v11.333h11.334v11.334h11.332v-11.334h11.334z"/><path d="m297.5 166.508h-11.334v-11.333h-11.332v11.333h-11.334v11.333h11.334v11.334h11.332v-11.334h11.334z"/></g></svg>