<svg enable-background="new 0 0 144 144" height="144" viewBox="19 19 106 106" width="144" xmlns="http://www.w3.org/2000/svg"><path d="m123.617 70.715999-4.394-2.72c-.037-.428-.079-.855-.125-1.28l3.776-3.522c.384-.358.556-.888.452-1.401-.101-.515-.462-.939-.953-1.122l-4.827-1.805c-.121-.418-.248-.833-.378-1.246l3.011-4.182c.307-.425.37-.978.17-1.463-.2-.483-.637-.829-1.154-.914l-5.09-.828c-.198-.386-.404-.766-.612-1.143l2.139-4.695c.219-.478.174-1.034-.118-1.468-.291-.436-.784-.691-1.31-.671l-5.166.18c-.267-.334-.539-.665-.816-.99l1.187-5.032c.12-.511-.031-1.046-.403-1.417-.369-.37-.905-.523-1.416-.403l-5.031 1.186c-.326-.276-.657-.549-.992-.816l.181-5.166c.02-.523-.235-1.02-.671-1.31-.437-.292-.99-.336-1.467001-.119l-4.694 2.14c-.379-.208-.759-.414-1.143-.613l-.83-5.091c-.084-.516-.43-.954-.914-1.154-.483-.201-1.037-.136-1.462.17l-4.185 3.011c-.412-.131-.826-.257-1.244-.377l-1.805-4.828c-.183-.492-.607-.853-1.122-.955-.514-.101-1.043.07-1.4.452l-3.522 3.779c-.425-.047-.853-.09-1.28-.125l-2.72-4.395c-.275-.445-.762-.716-1.286-.716s-1.011.271-1.285.716l-2.72 4.395c-.428.035-.856.078-1.281.125l-3.523-3.779c-.357-.382-.887-.553-1.4-.452-.515.103-.939.463-1.122.955l-1.805 4.828c-.418.12-.832.247-1.245.377l-4.184-3.011c-.425-.307-.979-.372-1.463-.17-.483.2-.83.638-.914 1.154l-.83 5.091c-.384.199-.764.404-1.143.613l-4.694-2.14c-.477-.218-1.033-.173-1.467.119-.436.29-.691.787-.671 1.31l.18 5.166c-.334.267-.665.54-.992.816l-5.031-1.186c-.511-.119-1.047.033-1.417.403-.372.371-.523.906-.403 1.417l1.185 5.032c-.275.326-.547.656-.814.99l-5.166-.18c-.521-.015-1.019.235-1.31.671-.292.434-.336.99-.119 1.468l2.14 4.695c-.208.377-.414.757-.613 1.143l-5.09.828c-.517.084-.953.43-1.154.914-.2.485-.135 1.038.17 1.463l3.011 4.182c-.131.413-.258.828-.378 1.246l-4.828 1.805c-.49.183-.851.607-.953 1.122-.102.514.069 1.043.452 1.401l3.777 3.522c-.047.425-.089.853-.125 1.28l-4.394 2.72c-.445.275-.716.761-.716 1.286s.271 1.011.716 1.285l4.394 2.72c.036.428.078.855.125 1.28l-3.777 3.523c-.383.357-.554.887-.452 1.4.102.515.463.938.953 1.122l4.828 1.805c.12.418.247.833.378 1.246l-3.011 4.183c-.306.426-.371.979-.17 1.462.201.485.638.831 1.155.914l5.089.828c.199.386.403.766.613 1.145l-2.14 4.693c-.218.477001-.173 1.032001.119 1.468001.292.437.789.692 1.31.671l5.164-.181c.269.336.54.665.816.992l-1.185 5.033c-.12.51.031 1.043.403 1.414.369.373.906.522 1.417.402l5.031-1.185c.327.278.658.548.992.814l-.18 5.167c-.02.523.235 1.019.671 1.311.434.291.99.335 1.467.117l4.694-2.139c.378.21.758.414 1.143.613l.83 5.088c.084.518.43.956.914 1.155.483.201 1.038.136 1.463-.169l4.182-3.013c.413.131.828.259 1.246.379l1.805 4.826c.183.49.607.853 1.122.953.514.104 1.043-.068 1.4-.452l3.523-3.777c.425.049.853.09 1.281.128l2.72 4.394c.274.443.761.716 1.285.716s1.011-.272 1.286-.716l2.72-4.394c.428-.038.855-.079 1.28-.128l3.522 3.777c.357.384.887.556 1.4.452.515-.101.939-.463 1.122-.953l1.805-4.826c.418-.12.833-.248 1.246-.379l4.183 3.013c.425.305.979.37 1.462.169.484-.199.83-.638.914-1.155l.83-5.088c.384-.199.764-.406 1.143-.613l4.694 2.139c.477001.218 1.032001.174 1.467001-.117.436-.292.69-.787.671-1.311l-.18-5.167c.334-.267.665-.536.991-.814l5.031 1.185c.511.12 1.047-.029 1.416-.402.372-.371.523-.904.403-1.414l-1.185-5.033c.276-.327.548-.656.814-.992l5.166.181c.521.021 1.019-.234 1.31-.671.292-.436.337-.991.118-1.468001l-2.139-4.693c.209-.379.414-.759.612-1.145l5.09-.828c.518-.083.954-.429 1.154-.914.2-.483.137-1.036-.17-1.462l-3.011-4.183c.13-.413.257-.828.378-1.246l4.827-1.805c.491-.184.853-.607.953-1.122.104-.514-.068-1.043-.452-1.4l-3.776-3.523c.046-.425.088-.853.125-1.28l4.394-2.72c.445-.274.716-.761.716-1.285s-.27-1.011-.715-1.286zm-29.409001 36.451001c-1.678-.362-2.745-2.016-2.385-3.699.359-1.681 2.012-2.751 3.689-2.389 1.678.359 2.747 2.016 2.387 3.696s-2.014 2.751-3.691 2.392zm-1.493-10.098001c-1.531-.328-3.037.646-3.365 2.18l-1.56 7.280001c-4.814 2.185-10.16 3.399-15.79 3.399-5.759 0-11.221-1.274-16.121-3.552l-1.559-7.280001c-.328-1.532-1.834-2.508-3.364-2.179l-6.427 1.38c-1.193-1.228-2.303-2.536-3.323-3.917h31.272c.354 0 .59-.064.59-.386v-11.062c0-.322-.236-.386-.59-.386h-9.146v-7.012h9.892c.903 0 4.828.258 6.083 5.275.393 1.543 1.256 6.562 1.846 8.169.588 1.802 2.982 5.402 5.533 5.402h15.583001c.177 0 .366-.02.565-.056-1.081 1.469-2.267 2.859-3.544001 4.158zm-43.252 9.946001c-1.678.362-3.33-.708-3.691-2.389-.359-1.684.708-3.337 2.386-3.699 1.678-.359 3.331.711 3.691 2.392.359 1.68-.709 3.336-2.386 3.696zm-11.863-48.105001c.696 1.571-.012 3.412-1.581 4.107-1.569.697-3.405-.012-4.101-1.584s.012-3.41 1.581-4.107c1.57-.696 3.405.012 4.101 1.584zm-3.646 8.643 6.695-2.975c1.43-.635 2.076-2.311 1.441-3.744l-1.379-3.118h5.423v24.444h-10.941c-.949-3.336-1.458-6.857-1.458-10.496 0-1.389.075-2.762.219-4.111zm29.38-2.374v-7.205h12.914c.667 0 4.71.771 4.71 3.794 0 2.51-3.101 3.41-5.651 3.41h-11.973zm46.932001 6.485c0 .956-.035 1.902-.105 2.841h-3.926c-.393 0-.551.258-.551.643v1.803c0 4.244-2.393 5.167-4.49 5.402-1.997001.225-4.211001-.836-4.484001-2.058-1.178-6.626-3.141-8.041-6.241-10.486 3.847-2.443 7.85-6.047 7.85-10.871 0-5.209-3.571-8.49-6.005-10.099-3.415-2.251-7.196-2.702-8.216-2.702h-40.603c5.506-6.145 12.968-10.498 21.408-12.082l4.786 5.021c1.082 1.133 2.874 1.175 4.006.092l5.355-5.122c11.221 2.089 20.721 9.074 26.196001 18.657l-3.666 8.28c-.633 1.433.013 3.109 1.442 3.744l7.058 3.135c.122 1.253.186 2.519.186 3.802zm-40.575001-41.88c1.24-1.188 3.207-1.141 4.394.101 1.185 1.245 1.14 3.214-.103 4.401-1.24 1.188-3.207 1.142-4.394-.102-1.184-1.243-1.139-3.212.103-4.4zm36.380001 29.277c.695-1.571 2.531-2.28 4.1-1.583 1.569.696 2.277 2.536 1.581 4.107-.695 1.572-2.531 2.281-4.101 1.584-1.567-.696-2.275-2.535-1.58-4.108z"/></svg>