<svg fill="none" height="42" viewBox="0 0 141 42" width="141" xmlns="http://www.w3.org/2000/svg" xmlns:xlink="http://www.w3.org/1999/xlink"><clipPath id="a"><path d="m0 0h141v42h-141z"/></clipPath><g clip-path="url(#a)"><path d="m5.48586 41.6226 23.11044-16.118s1.043-.6029 1.043-1.5543c0-1.2671-1.3189-1.6792-1.3189-1.6792l-12.7139-5.0634c-.4537-.1789-1.078.3227-.4934.9585l4.2091 4.2391s1.1692 1.1564 1.1692 1.9147-.7179 1.4342-.7179 1.4342l-15.31654 14.8934c-.54485.5299.19175 1.4908 1.0289.975z" fill="#2379f4"/><path d="m24.1534.760004-23.11047 16.115696s-1.04293.6029-1.04293 1.5543c0 1.267 1.31886 1.6792 1.31886 1.6792l12.71394 5.0657c.4536.1766 1.0803-.325.4934-.9585l-4.2091-4.2532s-1.16925-1.154-1.16925-1.9147.71789-1.4342.71789-1.4342l15.30716-14.88166c.5543-.52988-.18-1.490749-1.0195-.972636z" fill="#2379f4"/><g fill="#fff"><path d="m60.924 25.868c-1.4872-1.1243-3.5713-1.864-6.252-2.219l-4.9411-.6352c-1.3257-.1646-2.3429-.466-3.0516-.9043-.3359-.1915-.613-.4724-.801-.812-.188-.3395-.2797-.7246-.2649-1.113 0-1.9861 1.8728-2.9782 5.6186-2.9763 2.1295-.0298 4.247.3253 6.252 1.0485.6154.2176 1.2077.4963 1.7682.8321.2997.1772.5827.3815.8456.6103.1583-.0711.3057-.1645.4379-.2774.2059-.1611.3909-.3474.5508-.5548.187-.2439.3494-.5059.4848-.7822.1516-.3191.2261-.6699.2175-1.0235 0-1.2039-.9281-2.1803-2.7845-2.9292-1.8563-.7489-4.4645-1.1188-7.8247-1.1095-1.7237-.0353-3.444.17-5.1118.6102-1.2395.3235-2.4012.8962-3.4152 1.6837-.83.6529-1.4914 1.4979-1.9279 2.4632-.4051.9301-.6116 1.9356-.606 2.9513-.0296 1.0706.1951 2.1329.6555 3.0984.4298.8558 1.0512 1.5993 1.815 2.1719.8442.6183 1.7868 1.0874 2.7873 1.3869 1.1599.3581 2.3532.5951 3.5612.7073l3.7788.4411c1.7443.1849 2.9552.5177 3.6328.9985.3318.2291.5995.5403.7775.9036.1779.3634.2602.7667.2388 1.1713 0 1.0743-.5325 1.8307-1.5975 2.2689-1.0649.4383-2.442.6574-4.1313.6574-1.1996.0072-2.3975-.0903-3.5804-.2912-.9913-.1706-1.9702-.4069-2.9305-.7073-.7325-.2307-1.4523-.5001-2.1566-.8072-.4223-.173-.828-.3847-1.2118-.6325l-2.0822 3.7558c.3953.2841.8168.5294 1.2587.7323.8236.3942 1.674.7289 2.5449 1.0013 1.214.3813 2.4514.6825 3.7044.9015 1.5679.2731 3.157.404 4.7482.3911 3.6154 0 6.3852-.7322 8.3095-2.1968.9192-.6643 1.6628-1.5455 2.1655-2.5663s.7493-2.1502.7181-3.2893c.0184-2.182-.7151-3.8352-2.2006-4.9596z"/><path d="m72.164 2.22674c-.9364 0-1.6525.21358-2.1813.6352-.5288.42163-.774 1.07347-.774 1.94168v33.38568h5.5222v-35.42444c-.1625-.0638-.4847-.17198-.9695-.31622-.5187-.15248-1.057-.22725-1.5974-.2219z"/><path d="m84.9243 2.71494c-.4405-.0052-.8776.07834-1.2856.24572-.4081.16739-.7787.41524-1.0902.72897-.3115.31374-.5576.68703-.7238 1.09794s-.2492.85113-.244 1.29479c.0028.55262.1405 1.09605.4012 1.58235.2606.48631.6361.90054 1.0932 1.20615.4572.30562.982.49322 1.5282.54626.5462.05305 1.0969-.0301 1.6037-.24211.5067-.212.9538-.54635 1.3019-.97354s.5865-.93409.6941-1.47598c.1075-.5419.0811-1.10213-.0772-1.63128-.1582-.52915-.4433-1.01094-.8301-1.40288-.3082-.31713-.6776-.56735-1.0854-.73527-.4079-.16792-.8455-.24998-1.286-.24112z"/><path d="m85.1088 13.6993c-.9364 0-1.6525.2052-2.1813.6102s-.7657 1.0541-.7657 1.9694v21.9132h5.5222v-23.9603c-.1625-.0665-.4847-.1719-.9695-.3189-.5222-.149-1.063-.221-1.6057-.2136z"/><path d="m115.149 15.7685c-1.105-.9261-2.381-1.6228-3.754-2.0498-1.536-.4839-3.139-.7226-4.748-.7074-1.602-.0168-3.196.222-4.724.7074-1.365.4308-2.6329 1.1272-3.7317 2.0498-1.0533.8939-1.8993 2.0092-2.4788 3.2676-.6128 1.3732-.9157 2.8662-.8869 4.3715v14.7845h5.5224v-13.3698c0-2.2191.525-3.9028 1.575-5.0512 1.05-1.1483 2.625-1.7253 4.724-1.7308 2.065 0 3.632.5769 4.698 1.7308 1.067 1.1539 1.601 2.8377 1.601 5.0512v13.3698h5.522v-14.7845c.029-1.5025-.264-2.9937-.86-4.3715-.566-1.2611-1.406-2.3778-2.459-3.2676z"/><path d="m138.766 32.675c-.542.3524-1.129.6322-1.743.8321-.84.2978-1.724.4471-2.614.4411-.563.0025-1.124-.0627-1.672-.1942-.512-.1207-.992-.3537-1.404-.6824-.418-.3449-.743-.7904-.945-1.2953-.248-.6614-.363-1.3656-.339-2.0721v-10.8872h9.301c.148-.3252.278-.6586.389-.9986.164-.4962.246-1.0164.242-1.5395 0-.8321-.218-1.4868-.656-1.925-.437-.4383-1.189-.6546-2.255-.6546h-7.024v-6.37983c-.162-.06657-.493-.17198-.994-.31899-.528-.14889-1.074-.22265-1.622-.21913-.758-.04305-1.509.17187-2.132.61024-.529.39111-.776 1.03741-.776 1.96109v21.46662c0 2.404.727 4.3456 2.181 5.825s3.602 2.2191 6.445 2.2191c.925.0032 1.848-.0897 2.754-.2774.775-.1612 1.536-.3809 2.278-.6574.597-.223 1.172-.5016 1.718-.8321.469-.2941.836-.5382 1.102-.7323z"/></g></g></svg>