<svg fill="none" height="64" viewBox="0 0 64 64" width="64" xmlns="http://www.w3.org/2000/svg"><g fill="#2379f4"><path d="m20.6632 55.828 28.0701-18.7971s1.2667-.7031 1.2667-1.8127c0-1.4776-1.6019-1.9583-1.6019-1.9583l-15.4424-5.9049c-.551-.2088-1.3093.3762-.5993 1.1178l5.1125 4.9437s1.4201 1.3485 1.4201 2.2329-.872 1.6726-.872 1.6726l-18.6035 17.3689c-.6618.618.2329 1.7385 1.2497 1.1371z"/><path d="m43.3368 8.17339-28.0701 18.79431s-1.2667.7031-1.2667 1.8127c0 1.4776 1.6019 1.9583 1.6019 1.9583l15.4424 5.9077c.551.206 1.3122-.379.5993-1.1178l-5.1125-4.9602s-1.4201-1.3458-1.4201-2.2329c0-.8872.872-1.6727.872-1.6727l18.5922-17.35511c.6731-.61796-.2187-1.73853-1.2384-1.1343z"/></g></svg>