<svg  xmlns="http://www.w3.org/2000/svg"  width="24"  height="24"  viewBox="0 0 24 24"  fill="none"  stroke="url(#gradient-main)"  stroke-width="2"  stroke-linecap="round"  stroke-linejoin="round"  class="icon icon-tabler icons-tabler-outline icon-tabler-files"><defs>
    <linearGradient id="gradient-main" x1="0" y1="0" x2="24" y2="24" gradientUnits="userSpaceOnUse">
      <stop offset="0%" stop-color="#3b82f6" />
      <stop offset="50%" stop-color="#a21caf" />
      <stop offset="100%" stop-color="#ec4899" />
    </linearGradient>
  </defs><path stroke="none" d="M0 0h24v24H0z" fill="none"/><path d="M15 3v4a1 1 0 0 0 1 1h4" /><path d="M18 17h-7a2 2 0 0 1 -2 -2v-10a2 2 0 0 1 2 -2h4l5 5v7a2 2 0 0 1 -2 2z" /><path d="M16 17v2a2 2 0 0 1 -2 2h-7a2 2 0 0 1 -2 -2v-10a2 2 0 0 1 2 -2h2" /></svg>