<svg xmlns="http://www.w3.org/2000/svg" width="24" height="24" viewBox="0 0 24 24" fill="none" stroke-width="2" stroke-linecap="round" stroke-linejoin="round" class="icon icon-tabler icons-tabler-outline icon-tabler-hand-click">
  <defs>
    <linearGradient id="gradient-main" x1="0" y1="0" x2="1" y2="1">
      <stop offset="0%" stop-color="#3b82f6" />
      <stop offset="50%" stop-color="#a21caf" />
      <stop offset="100%" stop-color="#ec4899" />
    </linearGradient>
  </defs>
  <path stroke="none" d="M0 0h24v24H0z" fill="none"/>
  <path stroke="url(#gradient-main)" d="M8 13v-8.5a1.5 1.5 0 0 1 3 0v7.5" />
  <path stroke="url(#gradient-main)" d="M11 11.5v-2a1.5 1.5 0 0 1 3 0v2.5" />
  <path stroke="url(#gradient-main)" d="M14 10.5a1.5 1.5 0 0 1 3 0v1.5" />
  <path stroke="url(#gradient-main)" d="M17 11.5a1.5 1.5 0 0 1 3 0v4.5a6 6 0 0 1 -6 6h-2h.208a6 6 0 0 1 -5.012 -2.7l-.196 -.3c-.312 -.479 -1.407 -2.388 -3.286 -5.728a1.5 1.5 0 0 1 .536 -2.022a1.867 1.867 0 0 1 2.28 .28l1.47 1.47" />
  <path stroke="url(#gradient-main)" d="M5 3l-1 -1" />
  <path stroke="url(#gradient-main)" d="M4 7h-1" />
  <path stroke="url(#gradient-main)" d="M14 3l1 -1" />
  <path stroke="url(#gradient-main)" d="M15 6h1" />
</svg>