<svg width="212" height="97" viewBox="0 0 212 97" fill="none" xmlns="http://www.w3.org/2000/svg">
<rect width="212" height="97" rx="48.5" fill="#151D21"/>
<path d="M44.116 54.8572L65.6681 39.8261C65.6681 39.8261 66.6407 39.2638 66.6407 38.3765C66.6407 37.1949 65.4108 36.8106 65.4108 36.8106L53.5542 32.0886C53.1311 31.9217 52.5489 32.3895 53.094 32.9825L57.0193 36.9358C57.0193 36.9358 58.1097 38.0141 58.1097 38.7213C58.1097 39.4285 57.4402 40.0589 57.4402 40.0589L43.1565 53.948C42.6484 54.4421 43.3353 55.3382 44.116 54.8572Z" fill="#2379F4"/>
<path d="M61.5247 16.75L39.9726 31.779C39.9726 31.779 39 32.3412 39 33.2285C39 34.4101 40.2299 34.7944 40.2299 34.7944L52.0865 39.5186C52.5096 39.6833 53.094 39.2155 52.5467 38.6247L48.6214 34.6583C48.6214 34.6583 47.531 33.5821 47.531 32.8727C47.531 32.1633 48.2005 31.5352 48.2005 31.5352L62.4755 17.657C62.9924 17.1629 62.3076 16.2668 61.5247 16.75Z" fill="#2379F4"/>
<path d="M95.8159 40.165C94.4289 39.1165 92.4854 38.4267 89.9854 38.0955L85.3776 37.5032C84.1413 37.3497 83.1926 37.0686 82.5317 36.6599C82.2184 36.4812 81.96 36.2193 81.7847 35.9027C81.6094 35.586 81.5239 35.2269 81.5377 34.8647C81.5377 33.0125 83.2842 32.0873 86.7774 32.089C88.7633 32.0612 90.7381 32.3924 92.6079 33.0668C93.1817 33.2698 93.7341 33.5297 94.2569 33.8429C94.5363 34.0081 94.8002 34.1986 95.0454 34.412C95.193 34.3457 95.3305 34.2586 95.4538 34.1533C95.6458 34.0031 95.8183 33.8293 95.9675 33.6359C96.1418 33.4085 96.2932 33.1641 96.4195 32.9065C96.5609 32.6088 96.6305 32.2818 96.6224 31.9519C96.6224 30.8293 95.7569 29.9187 94.0257 29.2203C92.2945 28.5219 89.8622 28.177 86.7286 28.1856C85.1211 28.1527 83.5168 28.3442 81.9615 28.7547C80.8055 29.0563 79.7221 29.5904 78.7765 30.3249C78.0025 30.9337 77.3857 31.7217 76.9786 32.6219C76.6008 33.4893 76.4083 34.4271 76.4135 35.3742C76.3859 36.3727 76.5955 37.3633 77.0248 38.2637C77.4257 39.0618 78.0051 39.7551 78.7175 40.2891C79.5047 40.8658 80.3837 41.3032 81.3168 41.5825C82.3984 41.9165 83.5113 42.1375 84.6378 42.2422L88.1618 42.6535C89.7885 42.8259 90.9178 43.1363 91.5497 43.5847C91.8591 43.7983 92.1087 44.0885 92.2747 44.4274C92.4407 44.7662 92.5174 45.1423 92.4974 45.5196C92.4974 46.5216 92.0009 47.2269 91.0077 47.6356C90.0146 48.0443 88.7303 48.2487 87.155 48.2487C86.0363 48.2553 84.9191 48.1645 83.8159 47.9771C82.8916 47.818 81.9786 47.5976 81.0831 47.3174C80.4 47.1024 79.7287 46.8511 79.0719 46.5647C78.6781 46.4034 78.2997 46.206 77.9418 45.9749L76 49.4774C76.3686 49.7424 76.7617 49.971 77.1738 50.1603C77.9419 50.5279 78.735 50.84 79.5471 51.0941C80.6793 51.4497 81.8332 51.7305 83.0017 51.9348C84.4639 52.1895 85.9459 52.3116 87.4298 52.2996C90.8014 52.2996 93.3844 51.6167 95.1789 50.2508C96.0362 49.6313 96.7296 48.8096 97.1985 47.8576C97.6673 46.9056 97.8972 45.8524 97.8682 44.7901C97.8853 42.7552 97.2012 41.2135 95.8159 40.165Z" fill="#F2F4FF"/>
<path d="M106.298 18.1178C105.425 18.1178 104.757 18.317 104.264 18.7102C103.771 19.1034 103.542 19.7113 103.542 20.5209V51.6555H108.692V18.6197C108.54 18.5602 108.24 18.4593 107.788 18.3248C107.304 18.1826 106.802 18.1128 106.298 18.1178Z" fill="#F2F4FF"/>
<path d="M118.198 18.5731C117.787 18.5682 117.379 18.6462 116.999 18.8022C116.618 18.9583 116.273 19.1895 115.982 19.4821C115.692 19.7746 115.462 20.1228 115.307 20.506C115.152 20.8892 115.075 21.2997 115.08 21.7134C115.082 22.2288 115.211 22.7356 115.454 23.1891C115.697 23.6426 116.047 24.0289 116.473 24.3139C116.9 24.5989 117.389 24.7739 117.899 24.8233C118.408 24.8728 118.921 24.7953 119.394 24.5976C119.867 24.3999 120.284 24.0881 120.608 23.6897C120.933 23.2913 121.155 22.8186 121.255 22.3132C121.356 21.8079 121.331 21.2854 121.183 20.7919C121.036 20.2985 120.77 19.8492 120.409 19.4836C120.122 19.1879 119.777 18.9545 119.397 18.798C119.017 18.6414 118.609 18.5648 118.198 18.5731V18.5731Z" fill="#F2F4FF"/>
<path d="M118.37 28.8168C117.497 28.8168 116.829 29.0082 116.336 29.3858C115.843 29.7635 115.622 30.3688 115.622 31.2225V51.658H120.771V29.3134C120.62 29.2513 120.319 29.153 119.867 29.0159C119.38 28.877 118.876 28.8099 118.37 28.8168Z" fill="#F2F4FF"/>
<path d="M146.384 30.7465C145.354 29.8828 144.164 29.2331 142.884 28.8349C141.451 28.3836 139.957 28.161 138.456 28.1752C136.962 28.1596 135.475 28.3822 134.051 28.8349C132.777 29.2366 131.595 29.8861 130.57 30.7465C129.588 31.5801 128.799 32.6202 128.259 33.7937C127.687 35.0744 127.405 36.4667 127.432 37.8705V51.658H132.581V39.1897C132.581 37.1203 133.071 35.5501 134.051 34.4792C135.03 33.4083 136.498 32.8702 138.456 32.8651C140.382 32.8651 141.842 33.4031 142.837 34.4792C143.832 35.5553 144.33 37.1255 144.33 39.1897V51.658H149.479V37.8705C149.507 36.4693 149.234 35.0786 148.678 33.7937C148.15 32.6177 147.366 31.5763 146.384 30.7465V30.7465Z" fill="#F2F4FF"/>
<path d="M168.409 46.5129C167.903 46.8416 167.357 47.1025 166.783 47.289C166.001 47.5667 165.176 47.7059 164.346 47.7003C163.821 47.7026 163.298 47.6418 162.787 47.5192C162.309 47.4066 161.862 47.1893 161.477 46.8828C161.087 46.5612 160.784 46.1457 160.596 45.6748C160.365 45.058 160.258 44.4013 160.28 43.7425V33.5894H168.954C169.092 33.2861 169.213 32.9752 169.316 32.6581C169.469 32.1954 169.546 31.7103 169.542 31.2225C169.542 30.4464 169.339 29.8359 168.931 29.4272C168.522 29.0185 167.821 28.8168 166.827 28.8168H160.277V22.8672C160.126 22.8051 159.818 22.7068 159.35 22.5697C158.858 22.4308 158.349 22.362 157.837 22.3653C157.13 22.3252 156.43 22.5256 155.849 22.9344C155.356 23.2991 155.125 23.9019 155.125 24.7633V44.7824C155.125 47.0243 155.803 48.835 157.159 50.2146C158.515 51.5942 160.519 52.284 163.17 52.284C164.032 52.2871 164.893 52.2004 165.738 52.0254C166.46 51.8751 167.17 51.6701 167.862 51.4123C168.419 51.2043 168.956 50.9445 169.465 50.6363C169.902 50.3621 170.244 50.1344 170.492 49.9534L168.409 46.5129Z" fill="#F2F4FF"/>
<path d="M40.0993 77.2236L40.8446 73.758H39.4472V72.1556H41.18L41.7576 69.4539H40.3043V67.8515H42.1116L42.9501 63.9946H44.6083L43.7699 67.8515H46.2852L47.1051 63.9946H48.782L47.9435 67.8515H49.3968V69.4539H47.6081L47.0305 72.1556H48.5584V73.758H46.6951L45.9499 77.2236H44.2729L45.0182 73.758H42.5029L41.7762 77.2236H40.0993ZM42.8383 72.1556H45.3536L45.9499 69.4539H43.4345L42.8383 72.1556ZM51.3538 77V64.2182H54.6145L57.0926 71.9693C57.1671 72.1929 57.2416 72.4475 57.3162 72.7332C57.3907 73.0189 57.459 73.2922 57.5211 73.553C57.5956 73.8139 57.6515 74.0437 57.6888 74.2424H57.8379C57.8627 74.0561 57.9062 73.8325 57.9683 73.5717C58.0304 73.3108 58.0925 73.0375 58.1546 72.7518C58.2291 72.4661 58.3037 72.1991 58.3782 71.9506L60.8749 64.2182H64.0797V77H62.0115V69.9942C62.0115 69.5222 62.0177 69.0316 62.0301 68.5223C62.0426 68.013 62.055 67.5596 62.0674 67.1621C62.0798 66.7646 62.086 66.51 62.086 66.3982H61.937C61.9121 66.5348 61.85 66.7709 61.7506 67.1062C61.6637 67.4292 61.5705 67.777 61.4712 68.1496C61.3718 68.5223 61.2786 68.8453 61.1917 69.1185L58.6018 77H56.7572L54.1673 69.1372C54.0928 68.9012 54.012 68.6217 53.9251 68.2987C53.8381 67.9757 53.7512 67.6466 53.6642 67.3112C53.5773 66.9758 53.5027 66.6715 53.4406 66.3982H53.2916C53.304 66.6963 53.3102 67.0628 53.3102 67.4975C53.3226 67.9323 53.335 68.3732 53.3475 68.8204C53.3599 69.2552 53.3661 69.6464 53.3661 69.9942V77H51.3538ZM69.3285 77.2236C69.0179 77.2236 68.6826 77.1863 68.3223 77.1118C67.9621 77.0373 67.6205 76.9006 67.2975 76.7019C66.987 76.5031 66.7324 76.2299 66.5336 75.8821C66.3349 75.5218 66.2355 75.056 66.2355 74.4846C66.2355 73.8139 66.3908 73.2611 66.7013 72.8264C67.0119 72.3916 67.4466 72.05 68.0056 71.8016C68.5645 71.5532 69.2291 71.3792 69.9992 71.2799C70.7818 71.1805 71.6327 71.1308 72.5519 71.1308V70.1619C72.5519 69.839 72.496 69.5533 72.3842 69.3049C72.2848 69.0564 72.0923 68.8639 71.8066 68.7272C71.5333 68.5906 71.1358 68.5223 70.6141 68.5223C70.0924 68.5223 69.6825 68.5906 69.3844 68.7272C69.0987 68.8515 68.8937 69.0129 68.7695 69.2117C68.6577 69.398 68.6018 69.603 68.6018 69.8266V70.106H66.7386C66.7262 70.0439 66.7199 69.9818 66.7199 69.9197C66.7199 69.8576 66.7199 69.7831 66.7199 69.6961C66.7199 69.1123 66.8814 68.6217 67.2044 68.2242C67.5398 67.8143 68.0056 67.5037 68.6018 67.2926C69.198 67.0814 69.8874 66.9758 70.67 66.9758C71.5147 66.9758 72.2165 67.1 72.7755 67.3485C73.3468 67.5845 73.7754 67.9261 74.0611 68.3732C74.3468 68.8204 74.4896 69.3607 74.4896 69.9942V74.9691C74.4896 75.2051 74.5455 75.3728 74.6573 75.4721C74.7815 75.5715 74.9244 75.6212 75.0859 75.6212H75.7566V76.9255C75.6076 76.9876 75.4212 77.0497 75.1977 77.1118C74.9741 77.1739 74.7132 77.205 74.4151 77.205C74.0797 77.205 73.794 77.1428 73.558 77.0186C73.3344 76.9068 73.1481 76.7454 72.999 76.5342C72.8624 76.3106 72.7692 76.0622 72.7196 75.7889H72.6078C72.3842 76.0746 72.1109 76.3292 71.7879 76.5528C71.4774 76.764 71.1172 76.9255 70.7073 77.0373C70.2974 77.1615 69.8378 77.2236 69.3285 77.2236ZM69.8688 75.6212C70.2539 75.6212 70.6079 75.5653 70.9309 75.4535C71.2662 75.3293 71.5519 75.1616 71.7879 74.9504C72.0239 74.7269 72.2103 74.466 72.3469 74.1679C72.4835 73.8573 72.5519 73.522 72.5519 73.1617V72.5096C71.6948 72.5096 70.9433 72.5593 70.2974 72.6587C69.6514 72.758 69.1484 72.9444 68.7881 73.2176C68.4279 73.4785 68.2478 73.8449 68.2478 74.3169C68.2478 74.6026 68.3099 74.8449 68.4341 75.0436C68.5583 75.2299 68.7447 75.3728 68.9931 75.4721C69.2415 75.5715 69.5334 75.6212 69.8688 75.6212ZM80.467 77.2236C79.672 77.2236 78.9826 77.0435 78.3988 76.6833C77.815 76.323 77.3616 75.7641 77.0386 75.0063C76.7281 74.2486 76.5728 73.2673 76.5728 72.0624C76.5728 70.8824 76.7343 69.9197 77.0572 69.1744C77.3802 68.4291 77.8274 67.8764 78.3988 67.5161C78.9702 67.1559 79.6285 66.9758 80.3738 66.9758C80.8086 66.9758 81.2123 67.0255 81.5849 67.1249C81.9575 67.2242 82.2867 67.3795 82.5724 67.5907C82.8705 67.8018 83.119 68.0689 83.3177 68.3919H83.4481V63.5288H85.3859V77H83.8021L83.6158 75.6585H83.4854C83.1624 76.1802 82.7339 76.5715 82.1998 76.8323C81.6781 77.0932 81.1005 77.2236 80.467 77.2236ZM81.0073 75.5467C81.5787 75.5467 82.0383 75.4225 82.3861 75.174C82.7463 74.9132 83.0134 74.5405 83.1873 74.0561C83.3612 73.5592 83.4481 72.9568 83.4481 72.2488V71.9879C83.4481 71.3917 83.3922 70.8824 83.2804 70.4601C83.1686 70.0377 83.0072 69.6961 82.796 69.4353C82.5848 69.162 82.3302 68.9633 82.0321 68.839C81.734 68.7148 81.3986 68.6527 81.0259 68.6527C80.4545 68.6527 79.9887 68.7707 79.6285 69.0067C79.2683 69.2303 79.0012 69.5843 78.8273 70.0688C78.6658 70.5532 78.5851 71.1805 78.5851 71.9506V72.286C78.5851 73.0562 78.672 73.6834 78.8459 74.1679C79.0199 74.6399 79.2807 74.9877 79.6285 75.2113C79.9887 75.4349 80.4483 75.5467 81.0073 75.5467ZM91.9464 77.2236C90.9402 77.2236 90.0956 77.0435 89.4124 76.6833C88.7416 76.3106 88.2323 75.7454 87.8845 74.9877C87.5367 74.23 87.3628 73.2673 87.3628 72.0997C87.3628 70.9197 87.5367 69.957 87.8845 69.2117C88.2323 68.454 88.7478 67.895 89.431 67.5348C90.1142 67.1621 90.9651 66.9758 91.9836 66.9758C92.9152 66.9758 93.6916 67.1559 94.3127 67.5161C94.9462 67.864 95.4244 68.3981 95.7474 69.1185C96.0703 69.839 96.2318 70.7458 96.2318 71.8388V72.5841H89.3565C89.3813 73.2797 89.4869 73.8636 89.6732 74.3356C89.8595 74.7952 90.139 75.1368 90.5117 75.3604C90.8967 75.5715 91.3812 75.6771 91.965 75.6771C92.3252 75.6771 92.6482 75.6336 92.9339 75.5467C93.2196 75.4473 93.4618 75.3107 93.6605 75.1368C93.8593 74.9504 94.0146 74.7331 94.1263 74.4846C94.2381 74.2238 94.294 73.9319 94.294 73.6089H96.1945C96.1945 74.1927 96.0952 74.7082 95.8964 75.1554C95.6977 75.6026 95.4058 75.9814 95.0207 76.292C94.648 76.5901 94.2009 76.8199 93.6792 76.9814C93.1575 77.1428 92.5799 77.2236 91.9464 77.2236ZM89.3937 71.1681H94.2009C94.2009 70.6836 94.145 70.2799 94.0332 69.957C93.9338 69.6216 93.7848 69.3483 93.586 69.1372C93.3873 68.926 93.1513 68.7769 92.878 68.69C92.6047 68.5906 92.2942 68.5409 91.9464 68.5409C91.4247 68.5409 90.9775 68.6341 90.6048 68.8204C90.2446 69.0067 89.9651 69.2986 89.7664 69.6961C89.5676 70.0812 89.4434 70.5718 89.3937 71.1681ZM100.68 77L97.158 64.2182H99.3753L101.555 72.64C101.593 72.7767 101.636 72.963 101.686 73.199C101.735 73.435 101.779 73.6834 101.816 73.9443C101.866 74.1927 101.909 74.4225 101.947 74.6337H102.058C102.096 74.4722 102.127 74.2983 102.151 74.112C102.176 73.9257 102.207 73.7393 102.245 73.553C102.282 73.3667 102.313 73.1928 102.338 73.0313C102.375 72.8698 102.4 72.7394 102.412 72.64L104.425 64.2182H107.108L109.139 72.64C109.176 72.7767 109.219 72.963 109.269 73.199C109.319 73.435 109.362 73.6834 109.399 73.9443C109.449 74.1927 109.493 74.4225 109.53 74.6337H109.642C109.667 74.4846 109.698 74.3169 109.735 74.1306C109.772 73.9443 109.809 73.7642 109.847 73.5903C109.884 73.404 109.921 73.2301 109.958 73.0686C110.008 72.9071 110.045 72.7643 110.07 72.64L112.25 64.2182H114.225L110.704 77H108.263L106.12 68.4664C106.083 68.2801 106.039 68.0689 105.99 67.8329C105.94 67.5845 105.89 67.336 105.841 67.0876C105.803 66.8268 105.772 66.6032 105.748 66.4168H105.654C105.63 66.6156 105.598 66.8454 105.561 67.1062C105.524 67.3671 105.48 67.6217 105.431 67.8702C105.381 68.1062 105.338 68.3049 105.3 68.4664L103.195 77H100.68ZM115.687 65.5039V63.5288H117.625V65.5039H115.687ZM115.687 77V67.1994H117.625V77H115.687ZM122.568 77.2236C122.009 77.2236 121.568 77.118 121.245 76.9068C120.935 76.6833 120.711 76.4038 120.574 76.0684C120.45 75.7206 120.388 75.3541 120.388 74.9691V68.8018H119.158V67.1994H120.425L120.779 64.4604H122.326V67.1994H124.096V68.8018H122.326V74.7455C122.326 75.0312 122.388 75.2486 122.512 75.3976C122.636 75.5467 122.841 75.6212 123.127 75.6212H124.096V76.9255C123.972 76.9752 123.816 77.0186 123.63 77.0559C123.456 77.1056 123.276 77.1428 123.09 77.1677C122.903 77.205 122.729 77.2236 122.568 77.2236ZM125.804 77V63.5288H127.742V68.3732H127.872C128.108 68.0751 128.375 67.8267 128.674 67.6279C128.972 67.4168 129.307 67.2553 129.68 67.1435C130.052 67.0317 130.462 66.9758 130.909 66.9758C131.531 66.9758 132.077 67.0876 132.549 67.3112C133.021 67.5224 133.388 67.8702 133.648 68.3546C133.922 68.839 134.058 69.4912 134.058 70.311V77H132.121V70.6091C132.121 70.2365 132.071 69.9259 131.972 69.6775C131.885 69.4291 131.754 69.2303 131.58 69.0813C131.406 68.9322 131.201 68.8266 130.965 68.7645C130.729 68.7024 130.468 68.6714 130.183 68.6714C129.736 68.6714 129.326 68.7769 128.953 68.9881C128.593 69.1993 128.301 69.4974 128.077 69.8825C127.854 70.2675 127.742 70.7271 127.742 71.2612V77H125.804ZM141.478 77.2236C140.783 77.2236 140.112 77.1491 139.466 77C138.82 76.8634 138.249 76.6398 137.752 76.3292C137.255 76.0063 136.864 75.6026 136.578 75.1181C136.293 74.6213 136.15 74.0312 136.15 73.3481C136.15 73.2735 136.15 73.2052 136.15 73.1431C136.162 73.0686 136.168 73.0065 136.168 72.9568H138.255C138.255 72.9941 138.249 73.0499 138.236 73.1245C138.236 73.199 138.236 73.2611 138.236 73.3108C138.236 73.7704 138.373 74.1617 138.646 74.4846C138.92 74.8076 139.299 75.0498 139.783 75.2113C140.28 75.3728 140.845 75.4535 141.478 75.4535C141.826 75.4535 142.162 75.4349 142.485 75.3976C142.808 75.3479 143.1 75.2796 143.36 75.1927C143.634 75.0933 143.87 74.9753 144.068 74.8387C144.267 74.6896 144.422 74.5157 144.534 74.3169C144.646 74.1182 144.702 73.8884 144.702 73.6275C144.702 73.2301 144.584 72.9009 144.348 72.64C144.124 72.3792 143.814 72.1618 143.416 71.9879C143.031 71.814 142.59 71.6587 142.093 71.5221C141.609 71.3855 141.106 71.2488 140.584 71.1122C140.062 70.9755 139.553 70.8141 139.056 70.6277C138.572 70.4414 138.131 70.2178 137.733 69.957C137.348 69.6837 137.038 69.3483 136.802 68.9508C136.578 68.5409 136.466 68.0441 136.466 67.4603C136.466 66.9013 136.584 66.4044 136.82 65.9697C137.056 65.5349 137.398 65.1747 137.845 64.889C138.292 64.5909 138.826 64.3673 139.448 64.2182C140.069 64.0692 140.77 63.9946 141.553 63.9946C142.224 63.9946 142.857 64.0692 143.454 64.2182C144.05 64.3549 144.571 64.5722 145.019 64.8704C145.466 65.1685 145.814 65.5473 146.062 66.0069C146.323 66.4665 146.453 67.0131 146.453 67.6466V67.8702H144.385V67.6279C144.385 67.2305 144.267 66.8951 144.031 66.6218C143.795 66.3485 143.466 66.1374 143.044 65.9883C142.621 65.8392 142.131 65.7647 141.572 65.7647C140.913 65.7647 140.361 65.833 139.913 65.9697C139.466 66.0939 139.125 66.274 138.889 66.51C138.665 66.7336 138.553 67.0069 138.553 67.3298C138.553 67.69 138.671 67.9882 138.907 68.2242C139.143 68.4478 139.454 68.6403 139.839 68.8018C140.236 68.9633 140.677 69.1123 141.162 69.249C141.659 69.3732 142.162 69.5098 142.671 69.6589C143.193 69.7955 143.696 69.957 144.18 70.1433C144.677 70.3296 145.118 70.5594 145.503 70.8327C145.901 71.106 146.217 71.4476 146.453 71.8575C146.689 72.255 146.807 72.7456 146.807 73.3294C146.807 74.2486 146.578 75.0001 146.118 75.5839C145.658 76.1553 145.025 76.5715 144.217 76.8323C143.422 77.0932 142.509 77.2236 141.478 77.2236ZM148.967 77V63.5288H150.905V77H148.967ZM153.407 65.5039V63.5288H155.345V65.5039H153.407ZM153.407 77V67.1994H155.345V77H153.407ZM157.847 77V67.1994H159.449L159.617 68.5968H159.747C159.983 68.2366 160.263 67.9385 160.586 67.7025C160.909 67.4665 161.263 67.2863 161.648 67.1621C162.045 67.0379 162.48 66.9758 162.952 66.9758C163.573 66.9758 164.12 67.0876 164.592 67.3112C165.064 67.5224 165.43 67.8702 165.691 68.3546C165.964 68.839 166.101 69.4912 166.101 70.311V77H164.163V70.6091C164.163 70.2365 164.113 69.9259 164.014 69.6775C163.927 69.4291 163.797 69.2303 163.623 69.0813C163.449 68.9322 163.244 68.8266 163.008 68.7645C162.772 68.7024 162.511 68.6714 162.225 68.6714C161.778 68.6714 161.368 68.7831 160.996 69.0067C160.635 69.2179 160.343 69.516 160.12 69.9011C159.896 70.2862 159.784 70.7395 159.784 71.2612V77H157.847ZM170.968 77.2236C170.409 77.2236 169.968 77.118 169.645 76.9068C169.335 76.6833 169.111 76.4038 168.975 76.0684C168.851 75.7206 168.788 75.3541 168.788 74.9691V68.8018H167.559V67.1994H168.826L169.18 64.4604H170.726V67.1994H172.496V68.8018H170.726V74.7455C170.726 75.0312 170.788 75.2486 170.912 75.3976C171.037 75.5467 171.242 75.6212 171.527 75.6212H172.496V76.9255C172.372 76.9752 172.217 77.0186 172.03 77.0559C171.857 77.1056 171.676 77.1428 171.49 77.1677C171.304 77.205 171.13 77.2236 170.968 77.2236Z" fill="#F2F4FF"/>
</svg>
